<?xml version="1.0" encoding="iso-8859-1"?>
<!-- Generator: Adobe Illustrator 19.0.0, SVG Export Plug-In . SVG Version: 6.00 Build 0)  -->
<svg version="1.1" id="Capa_1" xmlns="http://www.w3.org/2000/svg" xmlns:xlink="http://www.w3.org/1999/xlink" x="0px" y="0px"
	 viewBox="0 0 471 471" style="enable-background:new 0 0 471 471;" xml:space="preserve">
<g>
	<path d="M450.278,159.157c-1.538-3.602-3.064-7.18-4.541-10.74c-1.361-3.283-2.704-6.588-4.05-9.9
		c-10.05-24.739-20.443-50.32-39.663-69.54c-19.219-19.22-44.8-29.613-69.539-39.663c-3.313-1.346-6.619-2.689-9.902-4.05
		c-3.56-1.477-7.138-3.003-10.74-4.541C287.971,10.535,263.285,0,235.5,0c-27.786,0-52.473,10.536-76.347,20.724
		c-3.601,1.537-7.178,3.063-10.736,4.539c-3.283,1.361-6.588,2.704-9.9,4.05c-24.739,10.05-50.32,20.443-69.54,39.663
		c-19.22,19.219-29.613,44.8-39.664,69.54c-1.346,3.312-2.689,6.618-4.05,9.901c-1.476,3.56-3.003,7.139-4.541,10.741
		C10.535,183.031,0,207.716,0,235.5c0,27.785,10.535,52.472,20.724,76.346c1.537,3.601,3.063,7.179,4.539,10.737
		c1.361,3.282,2.704,6.588,4.049,9.9c10.051,24.739,20.443,50.32,39.664,69.541c19.219,19.22,44.8,29.613,69.54,39.664
		c3.312,1.346,6.618,2.689,9.901,4.05c3.56,1.476,7.139,3.003,10.741,4.541C183.031,460.466,207.716,471,235.5,471
		c27.784,0,52.469-10.535,76.342-20.722c3.602-1.538,7.181-3.065,10.741-4.541c3.282-1.361,6.588-2.704,9.9-4.049
		c24.739-10.051,50.32-20.443,69.541-39.664c19.22-19.219,29.613-44.8,39.663-69.539c1.346-3.313,2.689-6.619,4.051-9.902
		c1.476-3.56,3.003-7.138,4.54-10.74C460.466,287.971,471,263.285,471,235.5C471,207.716,460.466,183.03,450.278,159.157z
		 M436.481,305.956c-1.558,3.649-3.104,7.275-4.601,10.882c-1.375,3.316-2.732,6.656-4.091,10.002
		c-9.488,23.356-19.3,47.506-36.373,64.579c-17.073,17.073-41.224,26.884-64.58,36.373c-3.345,1.359-6.684,2.715-9.999,4.09
		c-3.607,1.496-7.234,3.043-10.884,4.601C283.468,446.078,260.217,456,235.5,456s-47.969-9.923-70.455-19.519
		c-3.65-1.558-7.276-3.105-10.883-4.601c-3.316-1.375-6.656-2.731-10.001-4.091c-23.355-9.489-47.506-19.3-64.579-36.373
		c-17.073-17.073-26.884-41.224-36.373-64.58c-1.359-3.345-2.715-6.684-4.09-10c-1.495-3.606-3.042-7.23-4.599-10.879
		C24.923,283.471,15,260.218,15,235.5c0-24.717,9.923-47.969,19.519-70.455c1.558-3.65,3.105-7.276,4.601-10.883
		c1.375-3.316,2.732-6.656,4.091-10.001c9.489-23.355,19.3-47.506,36.373-64.579s41.224-26.884,64.58-36.373
		c3.345-1.359,6.684-2.716,10-4.091c3.605-1.495,7.23-3.042,10.878-4.599C187.528,24.924,210.781,15,235.5,15
		c24.718,0,47.97,9.923,70.456,19.519c3.649,1.558,7.275,3.104,10.882,4.6c3.316,1.375,6.656,2.732,10.002,4.092
		c23.356,9.488,47.506,19.3,64.579,36.373c17.072,17.073,26.884,41.224,36.373,64.58c1.359,3.345,2.716,6.684,4.09,10
		c1.496,3.606,3.043,7.232,4.601,10.882C446.078,187.531,456,210.783,456,235.5C456,260.218,446.078,283.47,436.481,305.956z"/>
	<path d="M140,187.5c0,30.603,24.897,55.5,55.5,55.5s55.5-24.897,55.5-55.5S226.103,132,195.5,132S140,156.897,140,187.5z
		 M195.5,147c22.332,0,40.5,18.168,40.5,40.5S217.832,228,195.5,228S155,209.832,155,187.5S173.168,147,195.5,147z"/>
	<path d="M195.5,179c4.687,0,8.5,3.813,8.5,8.5c0,4.142,3.358,7.5,7.5,7.5s7.5-3.358,7.5-7.5c0-12.958-10.542-23.5-23.5-23.5
		c-4.142,0-7.5,3.358-7.5,7.5S191.358,179,195.5,179z"/>
	<path d="M275.5,276c-30.603,0-55.5,24.897-55.5,55.5s24.897,55.5,55.5,55.5s55.5-24.897,55.5-55.5S306.103,276,275.5,276z
		 M275.5,372c-22.332,0-40.5-18.168-40.5-40.5c0-22.332,18.168-40.5,40.5-40.5c22.332,0,40.5,18.168,40.5,40.5
		C316,353.832,297.832,372,275.5,372z"/>
	<path d="M275.5,308c-4.142,0-7.5,3.358-7.5,7.5s3.358,7.5,7.5,7.5c4.687,0,8.5,3.813,8.5,8.5c0,4.142,3.358,7.5,7.5,7.5
		s7.5-3.358,7.5-7.5C299,318.542,288.458,308,275.5,308z"/>
	<path d="M155.5,300c-17.369,0-31.5,14.131-31.5,31.5c0,17.369,14.131,31.5,31.5,31.5S187,348.87,187,331.5
		C187,314.131,172.869,300,155.5,300z M155.5,348c-9.098,0-16.5-7.402-16.5-16.5s7.402-16.5,16.5-16.5s16.5,7.402,16.5,16.5
		S164.598,348,155.5,348z"/>
	<path d="M307.5,163c17.369,0,31.5-14.131,31.5-31.5S324.87,100,307.5,100c-17.37,0-31.5,14.131-31.5,31.5S290.131,163,307.5,163z
		 M307.5,115c9.098,0,16.5,7.402,16.5,16.5s-7.402,16.5-16.5,16.5s-16.5-7.402-16.5-16.5S298.402,115,307.5,115z"/>
	<path d="M99.5,228C86.542,228,76,238.542,76,251.5S86.542,275,99.5,275s23.5-10.542,23.5-23.5S112.458,228,99.5,228z M99.5,260
		c-4.687,0-8.5-3.813-8.5-8.5s3.813-8.5,8.5-8.5s8.5,3.813,8.5,8.5S104.187,260,99.5,260z"/>
	<path d="M219.5,99c12.958,0,23.5-10.542,23.5-23.5S232.458,52,219.5,52S196,62.542,196,75.5S206.542,99,219.5,99z M219.5,67
		c4.687,0,8.5,3.813,8.5,8.5s-3.813,8.5-8.5,8.5s-8.5-3.813-8.5-8.5S214.813,67,219.5,67z"/>
	<path d="M387,227.5c0-17.369-14.131-31.5-31.5-31.5S324,210.131,324,227.5s14.131,31.5,31.5,31.5S387,244.869,387,227.5z
		 M355.5,244c-9.098,0-16.5-7.402-16.5-16.5s7.402-16.5,16.5-16.5s16.5,7.402,16.5,16.5S364.599,244,355.5,244z"/>
	<path d="M83.5,163c1.919,0,3.839-0.732,5.303-2.197l8-8c2.929-2.929,2.929-7.678,0-10.606c-2.929-2.929-7.678-2.929-10.606,0l-8,8
		c-2.929,2.929-2.929,7.678,0,10.606C79.661,162.268,81.581,163,83.5,163z"/>
	<path d="M150.197,96.803C151.661,98.268,153.581,99,155.5,99s3.839-0.732,5.303-2.197c2.929-2.929,2.929-7.678,0-10.606l-8-8
		c-2.929-2.929-7.678-2.929-10.606,0c-2.929,2.929-2.929,7.678,0,10.606L150.197,96.803z"/>
	<path d="M275.5,243c1.919,0,3.839-0.732,5.303-2.197l8-8c2.929-2.929,2.929-7.678,0-10.606c-2.929-2.929-7.678-2.929-10.606,0l-8,8
		c-2.929,2.929-2.929,7.678,0,10.606C271.661,242.268,273.581,243,275.5,243z"/>
	<path d="M384.804,126.197c-2.929-2.929-7.678-2.929-10.606,0c-2.929,2.929-2.929,7.678,0,10.606l8,8
		c1.464,1.464,3.384,2.197,5.303,2.197s3.839-0.732,5.303-2.197c2.929-2.929,2.929-7.678,0-10.606L384.804,126.197z"/>
	<path d="M374.197,310.197l-8,8c-2.929,2.929-2.929,7.678,0,10.606c1.464,1.464,3.384,2.197,5.303,2.197s3.839-0.732,5.303-2.197
		l8-8c2.929-2.929,2.929-7.678,0-10.606C381.875,307.269,377.126,307.269,374.197,310.197z"/>
	<path d="M200.803,398.197c-2.929-2.929-7.678-2.929-10.606,0c-2.929,2.929-2.929,7.678,0,10.606l8,8
		c1.464,1.464,3.384,2.197,5.303,2.197s3.839-0.732,5.303-2.197c2.929-2.929,2.929-7.678,0-10.606L200.803,398.197z"/>
	<path d="M88.803,310.197c-2.929-2.929-7.678-2.929-10.606,0c-2.929,2.929-2.929,7.678,0,10.606l8,8
		C87.661,330.268,89.581,331,91.5,331s3.839-0.732,5.303-2.197c2.929-2.929,2.929-7.678,0-10.606L88.803,310.197z"/>
	<path d="M179.5,260c-1.97,0-3.91,0.8-5.3,2.2c-1.4,1.39-2.2,3.33-2.2,5.3c0,1.97,0.8,3.91,2.2,5.3c1.39,1.4,3.33,2.2,5.3,2.2
		c1.97,0,3.91-0.8,5.3-2.2c1.4-1.39,2.2-3.33,2.2-5.3c0-1.97-0.8-3.91-2.2-5.3C183.41,260.8,181.47,260,179.5,260z"/>
	<path d="M259.5,412c-1.97,0-3.91,0.8-5.3,2.2c-1.4,1.39-2.2,3.33-2.2,5.3c0,1.97,0.8,3.91,2.2,5.3c1.39,1.4,3.33,2.2,5.3,2.2
		c1.97,0,3.91-0.8,5.3-2.2c1.4-1.39,2.2-3.33,2.2-5.3c0-1.97-0.8-3.91-2.2-5.3C263.41,412.8,261.47,412,259.5,412z"/>
	<path d="M419.5,252c-1.97,0-3.91,0.8-5.3,2.2c-1.4,1.39-2.2,3.32-2.2,5.3c0,1.97,0.8,3.91,2.2,5.3c1.39,1.4,3.33,2.2,5.3,2.2
		c1.97,0,3.91-0.8,5.3-2.2c1.4-1.39,2.2-3.33,2.2-5.3c0-1.97-0.8-3.91-2.2-5.3C423.41,252.8,421.47,252,419.5,252z"/>
	<path d="M275.5,83c1.98,0,3.91-0.8,5.3-2.2c1.4-1.39,2.2-3.33,2.2-5.3c0-1.97-0.8-3.91-2.2-5.3c-1.39-1.4-3.33-2.2-5.3-2.2
		c-1.97,0-3.91,0.8-5.3,2.2c-1.4,1.39-2.2,3.33-2.2,5.3c0,1.97,0.8,3.91,2.2,5.3C271.59,82.2,273.53,83,275.5,83z"/>
	<path d="M131.5,139c1.97,0,3.91-0.8,5.3-2.2c1.4-1.39,2.2-3.33,2.2-5.3c0-1.97-0.8-3.91-2.2-5.3c-1.39-1.4-3.33-2.2-5.3-2.2
		c-1.97,0-3.91,0.8-5.3,2.2c-1.4,1.39-2.2,3.33-2.2,5.3c0,1.97,0.8,3.91,2.2,5.3C127.59,138.2,129.53,139,131.5,139z"/>
	<path d="M107.5,211c1.97,0,3.91-0.8,5.3-2.2c1.4-1.39,2.2-3.33,2.2-5.3c0-1.97-0.8-3.91-2.2-5.3c-1.39-1.4-3.33-2.2-5.3-2.2
		c-1.97,0-3.91,0.8-5.3,2.2c-1.4,1.39-2.2,3.32-2.2,5.3c0,1.97,0.8,3.91,2.2,5.3C103.59,210.2,105.53,211,107.5,211z"/>
	<path d="M51.5,228c-1.97,0-3.91,0.8-5.3,2.2c-1.4,1.39-2.2,3.33-2.2,5.3c0,1.97,0.8,3.91,2.2,5.3c1.39,1.4,3.33,2.2,5.3,2.2
		c1.97,0,3.91-0.8,5.3-2.2c1.4-1.39,2.2-3.33,2.2-5.3c0-1.97-0.8-3.91-2.2-5.3C55.41,228.8,53.47,228,51.5,228z"/>
	<path d="M302.2,182.2c-1.4,1.39-2.2,3.33-2.2,5.3c0,1.97,0.8,3.91,2.2,5.3c1.39,1.4,3.33,2.2,5.3,2.2c1.97,0,3.91-0.8,5.3-2.2
		c1.4-1.39,2.2-3.33,2.2-5.3c0-1.97-0.8-3.91-2.2-5.3c-1.39-1.4-3.33-2.2-5.3-2.2C305.53,180,303.59,180.8,302.2,182.2z"/>
</g>
<g>
</g>
<g>
</g>
<g>
</g>
<g>
</g>
<g>
</g>
<g>
</g>
<g>
</g>
<g>
</g>
<g>
</g>
<g>
</g>
<g>
</g>
<g>
</g>
<g>
</g>
<g>
</g>
<g>
</g>
</svg>
