<svg height="512pt" viewBox="-85 0 512 512.00002" width="512pt" xmlns="http://www.w3.org/2000/svg"><path d="m170.667969 358.398438c-28.277344 0-51.203125 22.925781-51.203125 51.203124 0 28.277344 22.925781 51.199219 51.203125 51.199219 28.277343 0 51.199219-22.921875 51.199219-51.199219-.027344-28.265624-22.933594-51.171874-51.199219-51.203124zm0 85.335937c-18.816407.023437-34.085938-15.210937-34.109375-34.023437-.019532-15.558594 10.507812-29.15625 25.574218-33.03125v7.320312c0 4.710938 3.820313 8.535156 8.535157 8.535156 4.710937 0 8.53125-3.824218 8.53125-8.535156v-7.320312c18.222656 4.6875 29.191406 23.257812 24.5 41.480468-3.878907 15.066406-17.472657 25.59375-33.03125 25.574219zm0 0"/><path d="m196.265625 162.132812c4.714844 0 8.535156-3.820312 8.535156-8.53125 0-4.714843-3.820312-8.535156-8.535156-8.535156h-17.066406v-17.066406c0-4.714844-3.820313-8.535156-8.53125-8.535156-4.714844 0-8.535157 3.820312-8.535157 8.535156v17.066406h-17.066406c-4.714844 0-8.535156 3.820313-8.535156 8.535156 0 4.710938 3.820312 8.53125 8.535156 8.53125h17.066406v34.132813h-17.066406c-4.714844 0-8.535156 3.820313-8.535156 8.535156 0 4.710938 3.820312 8.53125 8.535156 8.53125h17.066406v34.136719h-17.066406c-4.714844 0-8.535156 3.820312-8.535156 8.53125 0 4.714844 3.820312 8.535156 8.535156 8.535156h17.066406v17.066406c0 4.710938 3.820313 8.53125 8.535157 8.53125 4.710937 0 8.53125-3.820312 8.53125-8.53125v-17.066406h17.066406c4.714844 0 8.535156-3.820312 8.535156-8.535156 0-4.710938-3.820312-8.53125-8.535156-8.53125h-17.066406v-34.136719h17.066406c4.714844 0 8.535156-3.820312 8.535156-8.53125 0-4.714843-3.820312-8.535156-8.535156-8.535156h-17.066406v-34.132813zm0 0"/><path d="m315.734375 221.867188c14.136719 0 25.597656-11.460938 25.597656-25.601563v-85.332031c0-14.136719-11.460937-25.601563-25.597656-25.601563h-18.117187l.527343-8.53125h.523438c4.710937 0 8.53125-3.820312 8.53125-8.535156v-25.597656c0-9.425781-7.640625-17.066407-17.066407-17.066407h-93.867187v-8.535156c0-9.425781-7.640625-17.066406-17.066406-17.066406h-17.066407c-9.425781 0-17.066406 7.640625-17.066406 17.066406v8.535156h-93.867187c-9.425781 0-17.066407 7.640626-17.066407 17.066407v25.597656h-25.597656c-4.714844.003906-8.535156 3.824219-8.53124975 8.535156 0 2.265625.89843775 4.433594 2.49609375 6.03125l43.800781 43.804688 12.886719 206.164062h-7.988281c-2.941407 0-5.675781 1.515625-7.234375 4.011719l-42.667969 68.265625c-.847656 1.355469-1.296875 2.921875-1.296875 4.519531v59.734375c0 9.425781 7.640625 17.066407 17.066406 17.066407h17.066406v17.066406c0 4.714844 3.820313 8.535156 8.535157 8.535156h51.199219c4.714843 0 8.535156-3.820312 8.535156-8.535156v-17.066406h136.53125v17.066406c0 4.714844 3.820312 8.535156 8.535156 8.535156h51.199219c4.714843 0 8.535156-3.820312 8.535156-8.535156v-17.066406h17.066406c9.425781 0 17.066407-7.640626 17.066407-17.066407v-59.734375c0-1.597656-.449219-3.164062-1.296876-4.519531l-42.667968-68.265625c-1.558594-2.496094-4.292969-4.011719-7.234375-4.011719h-7.988281l6.9375-110.933593zm0-119.46875c4.710937 0 8.53125 3.820312 8.53125 8.535156v85.332031c0 4.714844-3.820313 8.535156-8.53125 8.535156h-25.601563l6.402344-102.398437h19.199219zm-153.601563-85.332032h17.066407v8.535156h-17.066407zm-110.933593 25.601563h238.933593v17.066406h-238.933593zm-22.066407 42.664062h14.582032l.972656 15.558594zm56.199219 409.601563h-34.132812v-8.535156h34.132812zm204.800781 0h-34.132812v-8.535156h34.132812zm34.132813-82.882813v57.28125h-307.199219v-57.28125l38.859375-62.183593h229.480469zm-247.984375-79.25-16-256h220.773438l-16 256zm0 0"/></svg>