<?xml version="1.0" encoding="iso-8859-1"?>
<!-- Generator: Adobe Illustrator 19.0.0, SVG Export Plug-In . SVG Version: 6.00 Build 0)  -->
<svg version="1.1" id="Capa_1" xmlns="http://www.w3.org/2000/svg" xmlns:xlink="http://www.w3.org/1999/xlink" x="0px" y="0px"
	 viewBox="0 0 461.131 461.131" style="enable-background:new 0 0 461.131 461.131;" xml:space="preserve">
<g>
	<path d="M461.016,318.949c-2.192-25-12.132-32.871-14.103-34.195l-0.001,0.001c-0.272-0.182-0.556-0.341-0.848-0.486
		c1.319-17.771-3.726-38.387-13.761-54.336c-7.541-11.986-16.789-19.403-26.75-21.465c-4.353-17.696-16.075-36.749-30.902-49.257
		c-10.646-8.981-21.393-13.277-31.163-12.489c-0.146-0.001-0.29,0.008-0.435,0.016c-19.095-24.348-59.398-40.448-81.877-31.616
		c-11.442-4.844-28.476-6.957-46.916-5.691c-10.405,0.714-35.599,3.657-44.795,15.552c-0.596,0.77-1.011,1.621-1.266,2.503
		c-33.804,0.277-71.598,17.131-77.927,36.238c-0.3,0.907-0.41,1.829-0.365,2.729c-0.005,0.118-0.014,0.236-0.013,0.354
		c-13.638,5.172-27.478,14.403-38.902,26.108c-6.026,6.175-18.941,21.071-18.995,35.254C11.485,247.264,1.232,274.101,0.18,292.939
		c-0.373,6.669,0.366,12.485,2.146,17.249c-3.611,8.6-3.018,18.294,1.782,26.593c5.534,9.568,15.419,15.281,26.441,15.281h400.147
		c8.502,0,16.677-3.601,22.43-9.88C458.884,335.897,461.76,327.429,461.016,318.949z M419.607,237.92
		c9.08,14.431,13.415,34.795,10.92,49.996l-16.371,6.781c-5.279-19.459-13.566-37.691-24.334-54.164l16.181-16.181
		C410.688,226.573,415.413,231.254,419.607,237.92z M230.143,168.92c94.335,0,171.527,74.759,175.471,168.142H54.673
		C58.616,243.679,135.808,168.92,230.143,168.92z M391.992,217.149L381,228.142c-12.166-15.729-26.731-29.509-43.145-40.79
		l10.562-25.499c4.935,0.823,10.667,3.848,16.563,8.823C378.855,182.381,389.806,201.413,391.992,217.149z M300.941,133.765
		c14.094,6.152,25.936,15.405,32.441,25.187l-8.398,20.275c-17.023-9.803-35.697-17.043-55.49-21.214v-28.444
		c0-0.448-0.046-0.885-0.122-1.311C277.108,126.525,288.872,128.496,300.941,133.765z M215.287,124.395
		c15.392-1.055,30.154,0.586,39.274,4.22c-0.04,0.313-0.067,0.63-0.067,0.955v25.899c-7.975-1.021-16.103-1.549-24.351-1.549
		c-11.965,0-23.672,1.12-35.032,3.238l-10.179-24.575c-0.007-0.016-0.013-0.033-0.02-0.049l-0.378-0.913
		C189.983,128.455,200.86,125.384,215.287,124.395z M172.835,142.576l7.444,17.973c-19.459,5.279-37.691,13.566-54.164,24.335
		l-19.746-19.746C114.686,154.333,145.308,141.318,172.835,142.576z M61.728,203.391c10.99-11.261,24.941-20.117,37.683-23.999
		l14.313,14.313c-15.729,12.167-29.509,26.731-40.79,43.145l-25.721-10.654C48.192,220.952,52.664,212.678,61.728,203.391z
		 M15.156,293.776c0.839-15.024,9.379-37.645,26.164-53.785l23.489,9.729c-9.803,17.023-17.044,35.698-21.214,55.49H16.469
		C15.378,302.474,14.895,298.454,15.156,293.776z M17.093,329.27c-1.636-2.829-2.296-5.974-1.984-9.062
		c0.015,0,0.028,0.002,0.043,0.002h25.9c-0.71,5.546-1.167,11.168-1.388,16.851H30.55C24.945,337.061,19.914,334.149,17.093,329.27z
		 M442.067,332.048c-2.961,3.232-7,5.013-11.37,5.013h-10.073c-0.364-9.365-1.403-18.558-3.077-27.532l23.019-9.535
		c1.941,3.227,4.557,9.424,5.508,20.265C446.456,324.624,445.033,328.81,442.067,332.048z"/>
	<path d="M252.607,201.796c5.108,0.797,10.224,1.881,15.205,3.222c0.653,0.176,1.309,0.26,1.955,0.26
		c3.308,0,6.336-2.205,7.237-5.552c1.077-4-1.292-8.115-5.292-9.192c-5.501-1.481-11.15-2.678-16.792-3.559
		c-4.086-0.638-7.928,2.161-8.566,6.254C245.714,197.321,248.514,201.157,252.607,201.796z"/>
	<path d="M294.695,215.244c29.187,14.599,52.829,38.929,66.571,68.509c1.27,2.734,3.978,4.342,6.807,4.342
		c1.058,0,2.133-0.225,3.155-0.7c3.756-1.745,5.387-6.205,3.642-9.962c-15.166-32.644-41.256-59.494-73.465-75.605
		c-3.706-1.854-8.21-0.352-10.063,3.353C289.489,208.885,290.99,213.391,294.695,215.244z"/>
</g>
<g>
</g>
<g>
</g>
<g>
</g>
<g>
</g>
<g>
</g>
<g>
</g>
<g>
</g>
<g>
</g>
<g>
</g>
<g>
</g>
<g>
</g>
<g>
</g>
<g>
</g>
<g>
</g>
<g>
</g>
</svg>
