<?xml version="1.0" encoding="iso-8859-1"?>
<!-- Generator: Adobe Illustrator 19.0.0, SVG Export Plug-In . SVG Version: 6.00 Build 0)  -->
<svg version="1.1" id="Capa_1" xmlns="http://www.w3.org/2000/svg" xmlns:xlink="http://www.w3.org/1999/xlink" x="0px" y="0px"
	 viewBox="0 0 463 463" style="enable-background:new 0 0 463 463;" xml:space="preserve">
<g>
	<path d="M449.594,195.766c-4.202-7.015-8.17-13.64-9.886-20.059c-1.823-6.822-1.72-14.791-1.61-23.228
		c0.164-12.615,0.333-25.659-6.087-36.756c-6.522-11.272-17.997-17.664-29.093-23.845c-7.287-4.059-14.169-7.892-19.034-12.757
		c-4.866-4.866-8.7-11.749-12.758-19.036c-6.181-11.097-12.572-22.572-23.845-29.094c-11.098-6.421-24.142-6.251-36.759-6.088
		c-8.437,0.11-16.406,0.213-23.228-1.61c-6.418-1.716-13.044-5.685-20.059-9.886C256.231,6.815,244.854,0,231.5,0
		s-24.731,6.815-35.734,13.406c-7.015,4.202-13.64,8.17-20.059,9.886c-6.822,1.823-14.791,1.719-23.228,1.61
		c-12.613-0.163-25.659-0.333-36.757,6.087c-11.272,6.522-17.664,17.997-23.845,29.093c-4.059,7.287-7.892,14.169-12.757,19.034
		c-4.866,4.865-11.749,8.699-19.035,12.758c-11.097,6.181-22.572,12.573-29.095,23.846c-6.421,11.098-6.252,24.143-6.088,36.759
		c0.109,8.437,0.213,16.406-1.61,23.229c-1.716,6.418-5.685,13.044-9.886,20.059C6.815,206.769,0,218.146,0,231.5
		s6.815,24.731,13.406,35.735c4.202,7.015,8.17,13.64,9.886,20.059c1.823,6.822,1.72,14.791,1.61,23.228
		c-0.164,12.615-0.333,25.66,6.087,36.757c6.522,11.272,17.996,17.664,29.092,23.844c7.287,4.059,14.169,7.892,19.035,12.758
		c4.865,4.866,8.699,11.748,12.758,19.035c6.181,11.097,12.573,22.572,23.846,29.094c11.097,6.421,24.143,6.252,36.759,6.088
		c8.438-0.11,16.406-0.213,23.229,1.61c6.418,1.716,13.044,5.685,20.059,9.886C206.769,456.185,218.146,463,231.5,463
		s24.731-6.815,35.735-13.406c7.015-4.202,13.64-8.17,20.059-9.886c6.823-1.823,14.792-1.72,23.228-1.61
		c12.618,0.164,25.66,0.334,36.757-6.087c11.272-6.522,17.664-17.996,23.844-29.092c4.059-7.287,7.892-14.169,12.758-19.035
		s11.749-8.7,19.036-12.758c11.097-6.181,22.571-12.572,29.094-23.845c6.421-11.098,6.252-24.144,6.088-36.759
		c-0.11-8.437-0.213-16.406,1.61-23.228c1.716-6.418,5.685-13.044,9.886-20.059C456.185,256.231,463,244.854,463,231.5
		S456.185,206.769,449.594,195.766z M395.619,104.982c9.749,5.431,18.958,10.56,23.409,18.252c4.352,7.521,4.216,17.979,4.072,29.05
		c-0.086,6.592-0.169,13.346,0.691,19.927l-42.525,11.395c-0.128-2.705-0.091-5.571-0.052-8.521
		c0.121-9.301,0.246-18.919-4.636-27.357c-4.954-8.563-13.794-13.487-21.593-17.831c-2.495-1.39-4.919-2.742-7.13-4.145
		l31.115-31.115C384.148,98.576,389.948,101.823,395.619,104.982z M376.252,250.417c-3.324,5.55-6.762,11.289-8.453,17.614
		c-1.761,6.587-1.672,13.446-1.585,20.08c0.099,7.604,0.192,14.788-2.622,19.65c-2.884,4.984-9.211,8.508-15.91,12.24
		c-5.746,3.2-11.688,6.51-16.431,11.253c-4.743,4.743-8.053,10.685-11.253,16.43c-3.731,6.699-7.255,13.025-12.239,15.909
		c-4.861,2.813-12.043,2.721-19.649,2.621c-6.633-0.085-13.491-0.175-20.078,1.585c-6.325,1.691-12.064,5.128-17.614,8.453
		C243.766,380.236,237.482,384,231.5,384c-5.982,0-12.265-3.764-18.917-7.748c-5.55-3.325-11.289-6.762-17.615-8.453
		c-5.157-1.378-10.479-1.623-15.731-1.623c-1.456,0-2.908,0.019-4.348,0.038c-7.605,0.095-14.789,0.191-19.65-2.622
		c-4.983-2.883-8.508-9.211-12.239-15.91c-3.2-5.746-6.51-11.688-11.253-16.431c-4.743-4.743-10.685-8.053-16.43-11.253
		c-6.699-3.731-13.025-7.255-15.909-12.239c-2.813-4.861-2.72-12.044-2.621-19.649c0.086-6.633,0.175-13.491-1.585-20.078
		c-1.691-6.326-5.128-12.064-8.453-17.614C82.764,243.766,79,237.482,79,231.5c0-5.982,3.764-12.265,7.748-18.917
		c3.325-5.55,6.762-11.289,8.453-17.615c1.761-6.586,1.671-13.445,1.585-20.078c-0.099-7.605-0.192-14.789,2.621-19.65
		c2.884-4.984,9.211-8.508,15.91-12.239c5.746-3.201,11.688-6.51,16.432-11.254c4.744-4.743,8.053-10.685,11.253-16.431
		c3.731-6.698,7.255-13.025,12.238-15.908c4.862-2.813,12.047-2.718,19.649-2.621c6.633,0.085,13.492,0.175,20.078-1.585
		c6.326-1.691,12.064-5.128,17.615-8.453C219.235,82.764,225.518,79,231.5,79s12.265,3.764,18.917,7.749
		c5.55,3.324,11.289,6.762,17.615,8.453c6.586,1.761,13.445,1.671,20.079,1.585c7.605-0.098,14.789-0.192,19.65,2.621
		c4.984,2.884,8.508,9.211,12.24,15.91c3.2,5.746,6.51,11.688,11.253,16.431c4.743,4.744,10.685,8.053,16.431,11.253
		c6.698,3.731,13.025,7.255,15.908,12.238c2.813,4.862,2.72,12.045,2.621,19.65c-0.086,6.633-0.175,13.491,1.585,20.078
		c1.691,6.325,5.128,12.064,8.453,17.614c3.985,6.652,7.749,12.936,7.749,18.918S380.237,243.765,376.252,250.417z M310.716,39.901
		c11.073-0.144,21.53-0.28,29.052,4.073c7.693,4.451,12.822,13.66,18.253,23.41c3.158,5.67,6.405,11.469,10.342,16.647
		l-31.115,31.115c-1.403-2.21-2.755-4.633-4.144-7.127c-4.344-7.799-9.268-16.639-17.832-21.594
		c-8.438-4.882-18.055-4.758-27.357-4.636c-2.95,0.038-5.817,0.075-8.522-0.053l11.395-42.525
		C297.37,40.07,304.124,39.986,310.716,39.901z M203.474,26.274C213.153,20.477,222.295,15,231.5,15s18.347,5.477,28.027,11.274
		c5.42,3.247,10.973,6.567,16.78,9.026l-11.385,42.491c-2.201-1.163-4.467-2.516-6.796-3.911C250.394,69.249,241.631,64,231.5,64
		s-18.894,5.249-26.625,9.88c-2.329,1.395-4.595,2.748-6.796,3.911l-11.385-42.491C192.5,32.842,198.053,29.521,203.474,26.274z
		 M123.234,43.973c7.522-4.352,17.981-4.215,29.05-4.072c6.594,0.086,13.347,0.168,19.927-0.691l11.395,42.525
		c-2.705,0.128-5.572,0.091-8.521,0.052c-9.298-0.119-18.918-0.246-27.356,4.636c-8.563,4.954-13.487,13.794-17.831,21.593
		c-1.39,2.495-2.742,4.919-4.145,7.13L94.638,84.031c3.938-5.179,7.186-10.979,10.344-16.65
		C110.413,57.633,115.542,48.424,123.234,43.973z M43.974,123.232c4.451-7.693,13.661-12.823,23.411-18.253
		c5.669-3.158,11.468-6.405,16.646-10.342l31.115,31.115c-2.21,1.403-4.633,2.754-7.127,4.144
		c-7.799,4.344-16.639,9.268-21.594,17.832c-4.882,8.438-4.757,18.056-4.636,27.357c0.038,2.95,0.075,5.816-0.053,8.521
		L39.21,172.211c0.859-6.581,0.777-13.335,0.691-19.927C39.758,141.212,39.622,130.754,43.974,123.232z M15,231.5
		c0-9.205,5.477-18.347,11.274-28.026c3.247-5.42,6.567-10.973,9.026-16.781l42.491,11.385c-1.164,2.201-2.516,4.467-3.911,6.796
		C69.249,212.606,64,221.369,64,231.5c0,10.131,5.249,18.895,9.88,26.626c1.395,2.329,2.748,4.594,3.911,6.795l-42.491,11.385
		c-2.459-5.807-5.78-11.36-9.026-16.78C20.477,249.848,15,240.705,15,231.5z M67.381,358.018
		c-9.749-5.431-18.958-10.56-23.408-18.252c-4.352-7.521-4.216-17.979-4.072-29.05c0.086-6.592,0.168-13.346-0.691-19.927
		l42.525-11.395c0.128,2.705,0.091,5.572,0.053,8.521c-0.121,9.301-0.246,18.919,4.636,27.356
		c4.954,8.563,13.794,13.487,21.593,17.831c2.495,1.39,4.919,2.742,7.13,4.145l-31.115,31.115
		C78.853,364.424,73.052,361.177,67.381,358.018z M158.3,423.047c-2.014,0-4.022,0.026-6.015,0.052
		c-11.073,0.143-21.53,0.279-29.053-4.073c-7.693-4.451-12.822-13.66-18.253-23.41c-3.158-5.669-6.404-11.468-10.341-16.646
		l31.115-31.115c1.403,2.21,2.755,4.633,4.144,7.127c4.344,7.799,9.268,16.639,17.832,21.594c8.438,4.882,18.052,4.756,27.357,4.637
		c2.949-0.038,5.817-0.075,8.522,0.053l-11.395,42.528C167.62,423.194,162.946,423.047,158.3,423.047z M259.527,436.726
		C249.848,442.524,240.705,448,231.5,448c-9.205,0-18.347-5.477-28.026-11.274c-5.42-3.247-10.973-6.567-16.781-9.026l11.385-42.491
		c2.201,1.164,4.467,2.516,6.796,3.911c7.731,4.631,16.494,9.88,26.625,9.88c10.131,0,18.895-5.25,26.626-9.881
		c2.329-1.395,4.594-2.748,6.795-3.911l11.385,42.491C270.5,430.159,264.947,433.479,259.527,436.726z M339.766,419.027
		c-7.521,4.352-17.978,4.215-29.05,4.072c-6.593-0.085-13.346-0.168-19.927,0.691l-11.395-42.526
		c2.705-0.128,5.571-0.091,8.521-0.052c9.302,0.119,18.919,0.246,27.356-4.636c8.563-4.954,13.487-13.794,17.831-21.593
		c1.39-2.495,2.742-4.919,4.145-7.13l31.115,31.115c-3.939,5.179-7.186,10.979-10.344,16.65
		C352.587,405.368,347.458,414.577,339.766,419.027z M419.026,339.769c-4.451,7.693-13.66,12.822-23.41,18.252
		c-5.67,3.158-11.469,6.405-16.647,10.342l-31.114-31.114c2.209-1.403,4.633-2.754,7.126-4.143
		c7.799-4.345,16.64-9.269,21.594-17.832c4.882-8.438,4.757-18.056,4.637-27.357c-0.038-2.95-0.075-5.817,0.053-8.522l42.525,11.395
		c-0.86,6.581-0.777,13.335-0.692,19.927C423.243,321.788,423.378,332.246,419.026,339.769z M436.726,259.527
		c-3.247,5.42-6.567,10.973-9.026,16.78l-42.491-11.385c1.164-2.201,2.516-4.467,3.911-6.796c4.631-7.731,9.88-16.495,9.88-26.625
		s-5.25-18.895-9.881-26.626c-1.395-2.329-2.748-4.594-3.911-6.795l42.491-11.385c2.459,5.807,5.78,11.36,9.026,16.78
		C442.524,213.153,448,222.295,448,231.5S442.524,249.847,436.726,259.527z"/>
	<path d="M231.5,160c-39.425,0-71.5,32.075-71.5,71.5s32.075,71.5,71.5,71.5s71.5-32.075,71.5-71.5S270.925,160,231.5,160z
		 M231.5,288c-31.154,0-56.5-25.346-56.5-56.5s25.346-56.5,56.5-56.5s56.5,25.346,56.5,56.5S262.654,288,231.5,288z"/>
	<path d="M139.648,297.135c-3.108-1.944-6.097-3.609-8.761-5.093c-1.696-0.944-4.018-2.238-5.598-3.23
		c-3.508-2.204-8.137-1.146-10.341,2.36c-2.204,3.507-1.147,8.137,2.36,10.341c1.916,1.204,4.438,2.608,6.305,3.648
		c2.603,1.45,5.295,2.95,8.082,4.692c1.237,0.773,2.611,1.142,3.969,1.142c2.5,0,4.943-1.249,6.366-3.524
		C144.227,303.958,143.16,299.331,139.648,297.135z"/>
	<path d="M351.375,199.356c-2.366-8.851-2.252-17.632-2.16-24.687c0.027-2.063,0.064-4.889-0.019-7.11
		c-0.092-2.479-1.404-4.75-3.503-6.07c-1.909-1.2-4.432-2.605-6.297-3.644c-2.612-1.455-5.313-2.96-8.11-4.709
		c-3.512-2.196-8.139-1.13-10.336,2.381c-2.197,3.511-1.131,8.139,2.381,10.336c3.119,1.951,6.119,3.622,8.789,5.11
		c0.643,0.358,1.375,0.766,2.122,1.188c-0.006,0.821-0.017,1.621-0.026,2.324c-0.104,7.978-0.232,17.906,2.668,28.756
		c2.85,10.662,7.877,19.054,11.916,25.796c1.406,2.347,3.892,3.647,6.441,3.647c1.312,0,2.64-0.344,3.847-1.067
		c3.554-2.129,4.708-6.735,2.58-10.288C358.11,215.379,353.682,207.987,351.375,199.356z"/>
	<path d="M229.027,348.8c-6.743-4.039-15.135-9.066-25.795-11.916c-8.928-2.386-17.154-2.708-24.024-2.708
		c-1.573,0-3.154,0.02-4.73,0.04l-0.299,0.004c-0.677,0.009-1.354,0.018-2.028,0.023c-0.429-0.759-0.845-1.505-1.212-2.166
		c-1.464-2.628-3.124-5.607-5.06-8.705c-2.195-3.512-6.823-4.58-10.335-2.385c-3.513,2.195-4.58,6.823-2.385,10.335
		c1.736,2.777,3.231,5.46,4.693,8.085c1.024,1.839,2.426,4.358,3.635,6.281c1.316,2.094,3.581,3.405,6.053,3.503
		c0.826,0.033,1.886,0.056,3.244,0.056c1.191,0,2.388-0.015,3.588-0.03l0.299-0.004c1.514-0.02,3.03-0.039,4.538-0.039
		c5.896,0,12.9,0.261,20.151,2.199c8.629,2.307,16.021,6.735,21.961,10.293c1.207,0.723,2.535,1.067,3.847,1.067
		c2.55,0,5.036-1.301,6.441-3.647C233.735,355.535,232.581,350.929,229.027,348.8z"/>
	<path d="M305.143,123.579c-1.025-1.84-2.429-4.36-3.628-6.269c-2.204-3.506-6.833-4.564-10.341-2.359
		c-3.507,2.204-4.563,6.833-2.359,10.341c0.988,1.573,2.281,3.893,3.235,5.606c1.437,2.58,3.066,5.505,4.958,8.544
		c1.421,2.283,3.869,3.537,6.374,3.537c1.353,0,2.723-0.366,3.957-1.134c3.517-2.189,4.592-6.814,2.403-10.331
		C308.043,128.786,306.574,126.149,305.143,123.579z"/>
</g>
<g>
</g>
<g>
</g>
<g>
</g>
<g>
</g>
<g>
</g>
<g>
</g>
<g>
</g>
<g>
</g>
<g>
</g>
<g>
</g>
<g>
</g>
<g>
</g>
<g>
</g>
<g>
</g>
<g>
</g>
</svg>
