<?xml version="1.0" encoding="iso-8859-1"?>
<!-- Generator: Adobe Illustrator 19.0.0, SVG Export Plug-In . SVG Version: 6.00 Build 0)  -->
<svg version="1.1" id="Capa_1" xmlns="http://www.w3.org/2000/svg" xmlns:xlink="http://www.w3.org/1999/xlink" x="0px" y="0px"
	 viewBox="0 0 465.628 465.628" style="enable-background:new 0 0 465.628 465.628;" xml:space="preserve">
<g>
	<path d="M460.658,255.519c-2.208-8.119-4.292-15.788-4.288-22.71c0.004-7.351,2.131-15.27,4.383-23.654
		c3.377-12.574,6.869-25.577,3.434-38.349c-3.489-12.975-13.101-22.529-22.396-31.769c-6.086-6.051-11.835-11.766-15.418-17.971
		c-3.583-6.206-5.658-14.043-7.854-22.34c-3.354-12.67-6.823-25.771-16.315-35.281c-9.344-9.362-22.351-12.839-34.93-16.202
		c-8.387-2.243-16.309-4.36-22.677-8.032c-5.997-3.457-11.596-9.097-17.523-15.068c-9.322-9.391-18.962-19.102-32.271-22.668
		c-13.31-3.564-26.512,0.024-39.282,3.496c-8.111,2.205-15.772,4.288-22.688,4.288c-0.007,0-0.015,0-0.021,0
		c-7.351-0.004-15.27-2.131-23.654-4.383c-12.574-3.377-25.578-6.87-38.349-3.434c-12.975,3.489-22.529,13.101-31.769,22.396
		c-6.051,6.087-11.766,11.836-17.972,15.419c-6.206,3.583-14.043,5.658-22.34,7.854c-12.67,3.354-25.771,6.823-35.281,16.315
		c-9.362,9.344-12.839,22.351-16.202,34.93c-2.242,8.387-4.36,16.309-8.032,22.677c-3.457,5.997-9.097,11.596-15.069,17.523
		c-9.391,9.322-19.102,18.962-22.668,32.271c-3.565,13.309,0.024,26.512,3.496,39.281c2.208,8.12,4.293,15.789,4.289,22.711
		c-0.004,7.351-2.131,15.27-4.383,23.654c-3.377,12.574-6.869,25.577-3.434,38.349c3.489,12.974,13.101,22.529,22.396,31.769
		c6.087,6.05,11.836,11.766,15.419,17.971c3.583,6.206,5.658,14.043,7.854,22.34c3.354,12.67,6.823,25.772,16.315,35.282
		c9.344,9.361,22.351,12.839,34.93,16.202c8.387,2.242,16.309,4.36,22.677,8.032c5.997,3.458,11.596,9.097,17.523,15.068
		c9.323,9.391,18.962,19.102,32.271,22.668c3.896,1.043,7.783,1.475,11.652,1.474c9.35,0,18.599-2.515,27.63-4.97
		c8.111-2.206,15.772-4.289,22.688-4.289c0.007,0,0.015,0,0.021,0c7.351,0.004,15.27,2.131,23.654,4.383
		c12.574,3.377,25.578,6.87,38.349,3.434c12.975-3.489,22.529-13.101,31.769-22.396c6.051-6.086,11.766-11.835,17.971-15.418
		c6.206-3.583,14.042-5.657,22.339-7.854c12.67-3.355,25.772-6.824,35.282-16.316c9.362-9.344,12.839-22.351,16.202-34.93
		c2.243-8.387,4.36-16.309,8.032-22.677c3.457-5.997,9.097-11.595,15.068-17.523c9.391-9.322,19.102-18.962,22.668-32.271
		C467.719,281.492,464.129,268.288,460.658,255.519z M449.665,290.919c-2.518,9.398-10.401,17.223-18.747,25.507
		c-6.409,6.362-13.036,12.94-17.496,20.676c-4.658,8.079-7.134,17.339-9.528,26.295c-2.982,11.155-5.8,21.691-12.308,28.188
		c-6.653,6.641-17.277,9.454-28.524,12.432c-8.881,2.352-18.064,4.783-26,9.364s-14.633,11.318-21.109,17.834
		c-8.202,8.251-15.949,16.044-25.026,18.485c-8.882,2.387-19.413-0.44-30.563-3.435c-8.953-2.404-18.21-4.891-27.536-4.896
		c-0.01,0-0.019,0-0.03,0c-8.919,0-17.92,2.447-26.625,4.814c-11.347,3.085-22.065,5.998-31.464,3.481
		c-9.398-2.518-17.223-10.401-25.508-18.747c-6.362-6.409-12.94-13.036-20.676-17.496c-8.079-4.657-17.339-7.133-26.295-9.528
		c-11.155-2.982-21.691-5.799-28.188-12.308c-6.641-6.653-9.454-17.277-12.431-28.524c-2.352-8.881-4.783-18.065-9.365-26.001
		c-4.582-7.936-11.319-14.633-17.834-21.109c-8.251-8.202-16.044-15.949-18.485-25.026c-2.388-8.879,0.44-19.412,3.436-30.563
		c2.404-8.953,4.89-18.21,4.896-27.535c0.005-8.929-2.444-17.94-4.813-26.655c-3.085-11.348-6-22.066-3.481-31.464
		c2.518-9.397,10.401-17.223,18.747-25.507c6.409-6.362,13.036-12.941,17.496-20.677c4.658-8.079,7.134-17.339,9.528-26.295
		c2.982-11.155,5.8-21.691,12.308-28.188c6.653-6.641,17.277-9.454,28.524-12.431c8.881-2.352,18.064-4.783,26-9.365
		c7.936-4.581,14.633-11.318,21.11-17.834c8.202-8.251,15.949-16.044,25.026-18.485c2.328-0.626,4.769-0.894,7.305-0.894
		c7.139,0,15.03,2.119,23.257,4.329c8.953,2.404,18.21,4.891,27.536,4.896c0.01,0,0.019,0,0.03,0c8.919,0,17.92-2.447,26.624-4.813
		c11.348-3.086,22.065-6.001,31.464-3.481c9.398,2.518,17.223,10.401,25.507,18.746c6.362,6.409,12.941,13.036,20.677,17.496
		c8.079,4.658,17.339,7.134,26.295,9.528c11.155,2.982,21.691,5.8,28.188,12.308c6.641,6.653,9.454,17.277,12.431,28.524
		c2.352,8.881,4.783,18.064,9.365,26c4.582,7.936,11.318,14.633,17.834,21.109c8.251,8.202,16.044,15.949,18.485,25.026
		c2.388,8.879-0.44,19.412-3.436,30.563c-2.404,8.953-4.89,18.21-4.896,27.535c-0.005,8.929,2.444,17.94,4.813,26.654
		C449.269,270.802,452.183,281.521,449.665,290.919z"/>
	<path d="M232.814,393.314c-4.142,0-7.5,3.358-7.5,7.5v14.307c0,4.142,3.358,7.5,7.5,7.5s7.5-3.358,7.5-7.5v-14.307
		C240.314,396.672,236.956,393.314,232.814,393.314z"/>
	<path d="M232.814,72.314c4.142,0,7.5-3.358,7.5-7.5V50.507c0-4.142-3.358-7.5-7.5-7.5s-7.5,3.358-7.5,7.5v14.307
		C225.314,68.956,228.672,72.314,232.814,72.314z"/>
	<path d="M72.31,232.813c0-4.142-3.358-7.5-7.5-7.5H50.507c-4.142,0-7.5,3.358-7.5,7.5s3.358,7.5,7.5,7.5H64.81
		C68.952,240.313,72.31,236.956,72.31,232.813z"/>
	<path d="M415.121,225.313h-14.308c-4.142,0-7.5,3.358-7.5,7.5s3.358,7.5,7.5,7.5h14.308c4.142,0,7.5-3.358,7.5-7.5
		S419.263,225.313,415.121,225.313z"/>
	<path d="M322.453,373.073c-2.071-3.587-6.658-4.816-10.245-2.745c-3.587,2.071-4.816,6.658-2.745,10.245l8.009,13.873
		c1.389,2.406,3.91,3.751,6.502,3.751c1.272,0,2.562-0.324,3.743-1.006c3.587-2.071,4.816-6.658,2.745-10.245L322.453,373.073z"/>
	<path d="M143.194,92.587c1.389,2.406,3.91,3.751,6.502,3.751c1.272,0,2.562-0.324,3.743-1.006
		c3.587-2.071,4.816-6.658,2.745-10.245l-8.028-13.906c-2.072-3.587-6.659-4.816-10.245-2.745
		c-3.587,2.071-4.816,6.658-2.745,10.245L143.194,92.587z"/>
	<path d="M85.061,309.459l-13.879,8.014c-3.587,2.071-4.816,6.658-2.745,10.245c1.389,2.406,3.91,3.751,6.502,3.751
		c1.272,0,2.563-0.325,3.743-1.006l13.879-8.014c3.587-2.071,4.816-6.658,2.745-10.245
		C93.235,308.616,88.646,307.389,85.061,309.459z"/>
	<path d="M376.823,157.175c1.272,0,2.562-0.324,3.743-1.006l13.88-8.014c3.587-2.071,4.816-6.658,2.745-10.245
		c-2.071-3.587-6.659-4.816-10.245-2.745l-13.88,8.014c-3.587,2.071-4.816,6.658-2.745,10.245
		C371.71,155.83,374.231,157.175,376.823,157.175z"/>
	<path d="M327.717,68.436c-3.588-2.072-8.175-0.842-10.245,2.745l-8.017,13.887c-2.071,3.587-0.842,8.174,2.745,10.245
		c1.181,0.682,2.471,1.006,3.743,1.006c2.592,0,5.113-1.346,6.502-3.751l8.017-13.887C332.534,75.094,331.304,70.507,327.717,68.436
		z"/>
	<path d="M153.424,370.321c-3.588-2.072-8.174-0.842-10.245,2.745l-8.013,13.879c-2.071,3.587-0.842,8.174,2.745,10.245
		c1.181,0.682,2.471,1.006,3.743,1.006c2.592,0,5.113-1.346,6.502-3.751l8.013-13.879
		C158.24,376.979,157.011,372.392,153.424,370.321z"/>
	<path d="M71.182,148.155l13.873,8.01c1.181,0.682,2.471,1.006,3.743,1.006c2.592,0,5.113-1.345,6.502-3.751
		c2.071-3.587,0.842-8.174-2.745-10.245l-13.873-8.01c-3.588-2.072-8.175-0.843-10.245,2.745
		C66.365,141.497,67.594,146.084,71.182,148.155z"/>
	<path d="M394.446,317.472l-13.905-8.028c-3.587-2.072-8.174-0.843-10.245,2.745c-2.071,3.587-0.842,8.174,2.745,10.245
		l13.905,8.028c1.181,0.682,2.471,1.006,3.743,1.006c2.592,0,5.113-1.345,6.502-3.751
		C399.263,324.13,398.034,319.543,394.446,317.472z"/>
	<path d="M232.814,209.313c-12.958,0-23.5,10.542-23.5,23.5s10.542,23.5,23.5,23.5s23.5-10.542,23.5-23.5
		S245.772,209.313,232.814,209.313z M232.814,241.313c-4.687,0-8.5-3.813-8.5-8.5s3.813-8.5,8.5-8.5s8.5,3.813,8.5,8.5
		S237.501,241.313,232.814,241.313z"/>
	<path d="M232.814,289.314c-12.958,0-23.5,10.542-23.5,23.5s10.542,23.5,23.5,23.5s23.5-10.542,23.5-23.5
		S245.772,289.314,232.814,289.314z M232.814,321.314c-4.687,0-8.5-3.813-8.5-8.5s3.813-8.5,8.5-8.5s8.5,3.813,8.5,8.5
		S237.501,321.314,232.814,321.314z"/>
	<path d="M232.814,129.313c-12.958,0-23.5,10.542-23.5,23.5s10.542,23.5,23.5,23.5s23.5-10.542,23.5-23.5
		S245.772,129.313,232.814,129.313z M232.814,161.313c-4.687,0-8.5-3.813-8.5-8.5s3.813-8.5,8.5-8.5s8.5,3.813,8.5,8.5
		S237.501,161.313,232.814,161.313z"/>
	<path d="M322.448,284.564c6.479-11.222,2.62-25.622-8.602-32.102h0c-11.221-6.479-25.623-2.62-32.101,8.602
		c-3.139,5.436-3.973,11.769-2.348,17.833c1.625,6.063,5.513,11.131,10.949,14.269c3.621,2.091,7.639,3.159,11.711,3.159
		c2.041,0,4.096-0.269,6.121-0.811C314.242,293.888,319.309,290,322.448,284.564z M309.458,277.064
		c-1.135,1.966-2.968,3.373-5.162,3.96c-2.193,0.588-4.484,0.286-6.45-0.849c-1.966-1.135-3.373-2.968-3.96-5.161
		c-0.588-2.193-0.286-4.484,0.849-6.45c1.573-2.724,4.436-4.248,7.375-4.248c1.441,0,2.901,0.366,4.236,1.137
		C310.405,267.796,311.801,273.004,309.458,277.064z"/>
	<path d="M175.282,172.462c-11.223-6.479-25.622-2.62-32.102,8.602c-6.479,11.222-2.62,25.623,8.602,32.101
		c3.621,2.091,7.64,3.159,11.712,3.159c2.041,0,4.096-0.269,6.121-0.811c6.063-1.625,11.131-5.513,14.269-10.949
		c3.139-5.436,3.973-11.769,2.348-17.832C184.606,180.668,180.718,175.601,175.282,172.462z M170.893,197.064
		c-1.135,1.966-2.968,3.373-5.161,3.96c-2.194,0.588-4.484,0.286-6.45-0.849c-4.059-2.343-5.455-7.552-3.111-11.611
		c1.573-2.724,4.436-4.248,7.376-4.248c1.441,0,2.9,0.366,4.235,1.137c1.966,1.135,3.373,2.968,3.96,5.162
		C172.33,192.807,172.028,195.097,170.893,197.064z"/>
	<path d="M296.014,215.513c2.025,0.542,4.079,0.811,6.121,0.811c4.072,0,8.091-1.068,11.712-3.159
		c11.222-6.479,15.08-20.879,8.602-32.102c-6.479-11.222-20.881-15.08-32.102-8.602c-5.436,3.139-9.325,8.206-10.949,14.27
		c-1.625,6.063-0.791,12.396,2.348,17.832C284.883,210,289.95,213.888,296.014,215.513z M293.886,190.614
		c0.587-2.193,1.994-4.026,3.96-5.162c1.335-0.771,2.794-1.137,4.235-1.137c2.94,0,5.803,1.524,7.376,4.248
		c2.343,4.06,0.948,9.269-3.111,11.612c-1.967,1.135-4.256,1.437-6.45,0.849c-2.193-0.587-4.026-1.994-5.161-3.96
		S293.298,192.807,293.886,190.614z"/>
	<path d="M151.782,252.462c-11.222,6.48-15.08,20.88-8.602,32.102c3.139,5.436,8.206,9.325,14.27,10.949
		c2.024,0.542,4.079,0.811,6.121,0.811c4.072,0,8.091-1.068,11.711-3.159h0c5.437-3.138,9.325-8.206,10.95-14.269
		c1.625-6.063,0.791-12.396-2.348-17.833C177.404,249.842,163.003,245.983,151.782,252.462z M171.742,275.014
		c-0.587,2.193-1.994,4.026-3.96,5.161h0c-1.967,1.136-4.258,1.437-6.45,0.849c-2.193-0.587-4.026-1.994-5.162-3.96
		c-2.343-4.059-0.947-9.268,3.111-11.611c1.335-0.771,2.795-1.137,4.236-1.137c2.94,0,5.803,1.524,7.375,4.248
		C172.028,270.53,172.33,272.82,171.742,275.014z"/>
</g>
<g>
</g>
<g>
</g>
<g>
</g>
<g>
</g>
<g>
</g>
<g>
</g>
<g>
</g>
<g>
</g>
<g>
</g>
<g>
</g>
<g>
</g>
<g>
</g>
<g>
</g>
<g>
</g>
<g>
</g>
</svg>
