<?xml version="1.0" encoding="iso-8859-1"?>
<!-- Generator: Adobe Illustrator 19.0.0, SVG Export Plug-In . SVG Version: 6.00 Build 0)  -->
<svg version="1.1" id="Capa_1" xmlns="http://www.w3.org/2000/svg" xmlns:xlink="http://www.w3.org/1999/xlink" x="0px" y="0px"
	 viewBox="0 0 463 463" style="enable-background:new 0 0 463 463;" xml:space="preserve">
<g>
	<path d="M274.711,41.561c0.646-2.263,0.193-4.698-1.224-6.577C272.07,33.104,269.854,32,267.5,32h-128
		C122.131,32,108,46.131,108,63.5v16c0,12.958,10.542,23.5,23.5,23.5h95.862c17.542,0,33.161-11.781,37.98-28.648L274.711,41.561z
		 M250.92,70.23C247.931,80.693,238.243,88,227.362,88H131.5c-4.687,0-8.5-3.813-8.5-8.5v-16c0-9.098,7.402-16.5,16.5-16.5h118.057
		L250.92,70.23z"/>
	<path d="M371,239.5v-7.322c1.97-1.113,3.833-2.437,5.543-3.972c6.646-5.966,10.457-14.51,10.457-23.44V83.995
		c0-20.323-11.083-38.993-28.924-48.724L305.834,6.776C297.707,2.343,288.517,0,279.259,0H139.5C104.486,0,76,28.486,76,63.5v85.728
		c0,32.498,24.365,59.639,56.675,63.132L324,233.044v6.456c0,10.336,6.71,19.128,16,22.266V272h-8.5c-4.142,0-7.5,3.358-7.5,7.5
		s3.358,7.5,7.5,7.5h8.5v65.867c-13.894,3.233-24.742,15.218-25.967,29.924l-3.653,43.84c-0.778,9.332,2.413,18.636,8.753,25.526
		S334.48,463,343.844,463h7.313c9.364,0,18.371-3.952,24.711-10.842c6.34-6.891,9.53-16.195,8.753-25.527l-3.653-43.84
		c-1.225-14.705-12.071-26.689-25.967-29.923V287h8.5c4.142,0,7.5-3.358,7.5-7.5s-3.358-7.5-7.5-7.5H355v-10.234
		C364.291,258.628,371,249.836,371,239.5z M325.328,427.877l3.653-43.84c0.575-6.907,4.995-12.715,11.019-15.412v78.983
		c-3.754-0.779-7.157-2.703-9.829-5.608C326.611,438.132,324.892,433.117,325.328,427.877z M366.019,384.038l3.653,43.84
		c0.437,5.239-1.283,10.255-4.843,14.124c-2.672,2.904-6.074,4.828-9.829,5.607v-78.984
		C361.023,371.322,365.444,377.13,366.019,384.038z M91,149.228V63.5C91,36.757,112.757,15,139.5,15h139.759
		c6.756,0,13.462,1.71,19.393,4.945l52.242,28.495C363.913,55.541,372,69.165,372,83.995v120.771c0,4.747-1.945,9.107-5.478,12.278
		c-3.533,3.171-8.078,4.635-12.796,4.126l-219.44-23.723C109.609,194.779,91,174.049,91,149.228z M339,234.666l13.114,1.418
		c1.126,0.122,2.252,0.182,3.375,0.182c0.171,0,0.341-0.009,0.511-0.012v3.247c0,4.687-3.813,8.5-8.5,8.5s-8.5-3.813-8.5-8.5
		V234.666z"/>
	<path d="M320.804,122.197c-2.929-2.929-7.678-2.929-10.606,0l-2.372,2.372C303.061,121.671,297.472,120,291.5,120
		c-17.369,0-31.5,14.131-31.5,31.5c0,5.972,1.671,11.561,4.569,16.325l-2.372,2.372c-2.929,2.929-2.929,7.678,0,10.606
		c1.464,1.464,3.384,2.197,5.303,2.197s3.839-0.732,5.303-2.197l2.372-2.372C279.939,181.33,285.528,183,291.5,183
		c17.37,0,31.5-14.131,31.5-31.5c0-5.972-1.671-11.561-4.569-16.325l2.372-2.372C323.733,129.875,323.733,125.125,320.804,122.197z
		 M275,151.5c0-9.098,7.402-16.5,16.5-16.5c1.775,0,3.481,0.289,5.084,0.81l-20.774,20.774C275.289,154.981,275,153.274,275,151.5z
		 M308,151.5c0,9.098-7.402,16.5-16.5,16.5c-1.774,0-3.481-0.289-5.084-0.81l20.774-20.774C307.711,148.019,308,149.726,308,151.5z"
		/>
	<path d="M355,83.995c0-8.604-4.693-16.51-12.248-20.63c-3.638-1.986-8.192-0.644-10.175,2.993
		c-1.984,3.636-0.644,8.192,2.993,10.175c2.732,1.491,4.43,4.35,4.43,7.462V143.5c0,4.142,3.358,7.5,7.5,7.5s7.5-3.358,7.5-7.5
		V83.995z"/>
	<path d="M319.109,50.467l-8.018-4.373c-3.638-1.982-8.192-0.643-10.176,2.993c-1.983,3.636-0.643,8.192,2.993,10.176l8.018,4.373
		c1.141,0.622,2.371,0.917,3.584,0.917c2.656,0,5.229-1.414,6.591-3.91C324.085,57.007,322.745,52.451,319.109,50.467z"/>
</g>
<g>
</g>
<g>
</g>
<g>
</g>
<g>
</g>
<g>
</g>
<g>
</g>
<g>
</g>
<g>
</g>
<g>
</g>
<g>
</g>
<g>
</g>
<g>
</g>
<g>
</g>
<g>
</g>
<g>
</g>
</svg>
