<svg width="389" height="240" viewBox="0 0 389 240" fill="none" xmlns="http://www.w3.org/2000/svg">
<path d="M385.5 53.5C385.5 67.7214 381.884 80.4305 376.222 89.4727C370.529 98.5634 363.112 103.5 355.5 103.5C347.888 103.5 340.471 98.5634 334.778 89.4727C329.116 80.4305 325.5 67.7214 325.5 53.5C325.5 39.2786 329.116 26.5695 334.778 17.5273C340.471 8.43655 347.888 3.49999 355.5 3.49999C363.112 3.49999 370.529 8.43655 376.222 17.5273C381.884 26.5695 385.5 39.2786 385.5 53.5Z" stroke="black" stroke-width="7"/>
<line x1="352" y1="3.49999" x2="126" y2="3.49997" stroke="black" stroke-width="7"/>
<line x1="352" y1="103.5" x2="126" y2="103.5" stroke="black" stroke-width="7"/>
<path d="M127 3.49999L119.5 3.49999V3.49999C115.687 3.49999 112.06 5.14595 109.549 8.01545L106.5 11.5L106.047 12.0136C101.405 17.2744 97.9674 23.4851 95.9742 30.212V30.212C95.3256 32.4012 94.8333 34.6338 94.5011 36.8928L94.1414 39.3381C93.0522 46.7453 92.9707 54.2658 93.8993 61.6948L94.4262 65.9095C94.8081 68.9647 95.4396 71.9835 96.3142 74.9356V74.9356C98.0923 80.9366 100.857 86.5999 104.495 91.693L106.5 94.5L109.202 97.9745C111.914 101.461 116.083 103.5 120.5 103.5V103.5H127" stroke="black" stroke-width="7"/>
<path d="M7.32285 236.5L114.673 103.5H358.839L255.289 236.5H7.32285Z" stroke="black" stroke-width="7"/>
<line x1="124.168" y1="165.181" x2="183.168" y2="138.181" stroke="black" stroke-width="4"/>
<line x1="123.177" y1="184.177" x2="236.177" y2="133.177" stroke="black" stroke-width="4"/>
<line x1="185.132" y1="178.198" x2="239.132" y2="152.198" stroke="black" stroke-width="4"/>
</svg>
