<svg width="286" height="184" viewBox="0 0 286 184" fill="none" xmlns="http://www.w3.org/2000/svg">
<line x1="21.3635" y1="39.4851" x2="133.364" y2="87.4851" stroke="black" stroke-width="12"/>
<line x1="129.67" y1="87.1492" x2="261.67" y2="57.1492" stroke="black" stroke-width="12"/>
<line x1="17.2902" y1="39.2488" x2="128.29" y2="6.24878" stroke="black" stroke-width="12"/>
<path d="M124 6.5L261.067 57.3672" stroke="black" stroke-width="12"/>
<path d="M260.5 57.0001L268.686 59.6048C270.544 60.1958 272.266 61.1482 273.754 62.4072V62.4072C276.491 64.7232 278.293 67.9549 278.825 71.5007L279.108 73.388C279.368 75.1196 279.368 76.8804 279.108 78.6121V78.6121C278.4 83.3337 275.805 87.5654 271.918 90.3374L271.802 90.4195C270.277 91.5074 268.59 92.3495 266.804 92.9154L258.26 95.6227" stroke="black" stroke-width="12"/>
<line x1="260.705" y1="94.7528" x2="125.705" y2="134.753" stroke="black" stroke-width="12"/>
<line x1="128.75" y1="134.562" x2="39.7501" y2="98.5622" stroke="black" stroke-width="12"/>
<path d="M40 98.5L32.55 94.924C29.2258 93.3284 25.5856 92.5 21.8984 92.5H19.9645C18.663 92.5 17.3695 92.7048 16.1316 93.107V93.107C12.9824 94.1302 10.373 96.37 8.88435 99.3278L7.89014 101.303C6.64732 103.773 6 106.499 6 109.263V110.902C6 115.637 7.67932 120.218 10.7393 123.831V123.831C12.2351 125.597 14.026 127.09 16.0323 128.244L33 138" stroke="black" stroke-width="12"/>
<line x1="30.4049" y1="136.503" x2="126.405" y2="178.503" stroke="black" stroke-width="12"/>
<line x1="122.315" y1="178.241" x2="269.315" y2="135.241" stroke="black" stroke-width="12"/>
<path d="M261 117L272 111.5V141H261V117Z" fill="black"/>
<path d="M148.454 63L168.03 80.2096L152 86.5L133 80.5787L148.454 63Z" fill="black"/>
</svg>
