<svg width="438" height="275" viewBox="0 0 438 275" fill="none" xmlns="http://www.w3.org/2000/svg">
<g clip-path="url(#clip0)">
<path d="M50.4736 160.539L386.866 13.7865" stroke="#222222" stroke-width="12"/>
<path d="M48.3337 265.097L384.736 118.341" stroke="#222222" stroke-width="12"/>
<path d="M23.0696 207.461L359.471 60.7046" stroke="#222222" stroke-width="12"/>
<path d="M24.4297 205.602L52.6114 266.275" stroke="#222222" stroke-width="12"/>
<path d="M384.035 11.4977L410.314 73.3607" stroke="#222222" stroke-width="12"/>
<path d="M51.7793 160.657L63.7111 188.007" stroke="#222222" stroke-width="12"/>
<path d="M358.089 60.162L383.84 119.19" stroke="#222222" stroke-width="12"/>
<path d="M23.354 209.214L52.8379 159.257L23.354 209.214Z" fill="#4A90D6"/>
<path d="M23.354 209.214L52.8379 159.257" stroke="#222222" stroke-width="12"/>
<path d="M358.709 61.5827L386.468 15.2256L358.709 61.5827Z" fill="#4A90D6"/>
<path d="M358.709 61.5827L386.468 15.2256" stroke="#222222" stroke-width="12"/>
<path d="M383.612 119.693L410.863 69.6188L383.612 119.693Z" fill="#4A90D6"/>
<path d="M383.612 119.693L410.863 69.6188" stroke="#222222" stroke-width="12"/>
<path d="M355.819 85.9948L367.415 112.575" stroke="#222222" stroke-width="4"/>
<path d="M351.421 75.9124L354.22 82.3284" stroke="#222222" stroke-width="4"/>
</g>
<defs>
<clipPath id="clip0">
<rect width="428" height="113" fill="white" transform="translate(0.260742 171.283) rotate(-23.5694)"/>
</clipPath>
</defs>
</svg>
