<?xml version="1.0" encoding="iso-8859-1"?>
<!-- Generator: Adobe Illustrator 19.0.0, SVG Export Plug-In . SVG Version: 6.00 Build 0)  -->
<svg version="1.1" id="Capa_1" xmlns="http://www.w3.org/2000/svg" xmlns:xlink="http://www.w3.org/1999/xlink" x="0px" y="0px"
	 viewBox="0 0 463.001 463.001" style="enable-background:new 0 0 463.001 463.001;" xml:space="preserve">
<g>
	<path d="M404.777,114.26c-3.777-10.52-11.832-18.992-22.099-23.243c-10.198-4.224-21.753-3.972-31.736,0.669
		c-0.017,0.007-0.034,0.012-0.051,0.02c-0.014,0.006-0.027,0.015-0.041,0.021c-0.035,0.016-0.071,0.03-0.106,0.046l-47.668,22.433
		c4.968-10.19,7.694-21.347,7.964-32.805c0.492-20.857-7.34-40.887-22.053-56.399C274.269,9.481,254.68,0.614,233.83,0.033
		c-21.69-0.611-42.167,7.376-57.688,22.471c-15.527,15.1-24.078,35.342-24.078,56.997c0,12.14,2.735,23.948,7.982,34.702
		l-46.023-21.658c-19.938-9.384-43.33-2.239-53.25,16.265c-5.185,9.671-6.148,20.718-2.712,31.104
		c3.411,10.311,10.674,18.547,20.459,23.224c0.012,0.006,0.023,0.014,0.035,0.02c0.012,0.006,0.024,0.01,0.036,0.016
		c0.052,0.025,0.102,0.053,0.155,0.078l67.25,31.647c8.546,4.021,14.068,12.723,14.068,22.168v72.729
		c0,10.006-2.023,19.731-6.012,28.908l-38.094,87.616c-8.675,19.953-0.455,43.591,18.325,52.695
		c5.458,2.645,11.267,3.986,17.266,3.986c15.651,0,29.799-9.228,36.128-23.524c0.012-0.024,0.028-0.045,0.039-0.07
		c0.011-0.023,0.018-0.048,0.029-0.071c0.014-0.032,0.031-0.063,0.045-0.095l43.316-99.626c0.067-0.154,0.131-0.3,0.458-0.3
		s0.391,0.146,0.458,0.3l43.316,99.627c0.011,0.026,0.026,0.051,0.037,0.077c0.008,0.018,0.013,0.036,0.021,0.054
		c0.01,0.022,0.024,0.041,0.034,0.062c6.32,14.321,20.481,23.566,36.148,23.566c7.642,0,15.133-2.237,21.664-6.469
		c15.904-10.308,21.946-31.768,14.054-49.918l-38.221-87.91c-3.99-9.175-6.013-18.901-6.013-28.907v-72.729
		c0-9.445,5.522-18.146,14.068-22.168l66.001-31.06C402.056,154.935,411.564,133.157,404.777,114.26z M73.992,115.897
		c4.873-9.089,15.621-13.698,26.156-12.065l-21.123,41.775c-3.065-2.791-5.378-6.336-6.724-10.404
		C70.171,128.762,70.772,121.906,73.992,115.897z M151.548,448.001c-3.714,0-7.322-0.836-10.723-2.484
		c-9.386-4.55-14.441-15.124-13.154-25.695l42.431,19.683C165.521,444.809,158.796,448.001,151.548,448.001z M325.086,443.944
		c-4.096,2.654-8.766,4.057-13.506,4.057c-7.232,0-13.944-3.18-18.524-8.464l42.502-19.458
		C336.706,429.486,332.83,438.925,325.086,443.944z M330.609,405.847l-44.563,20.402l-40.267-92.615
		c-2.5-5.749-7.946-9.32-14.214-9.32h0c-6.268,0-11.715,3.571-14.214,9.32l-40.252,92.58l-44.465-20.626l35.175-80.903
		c3.782-8.698,6.092-17.807,6.913-27.166c1.079,0.866,2.195,1.955,3.521,3.282c4.3,4.304,10.189,10.199,21.291,10.199
		c11.103,0,16.993-5.895,21.293-10.199c3.915-3.918,6.004-5.801,10.683-5.801c4.694,0,6.789,1.885,10.713,5.806
		c4.306,4.302,10.203,10.194,21.314,10.194c11.112,0,17.009-5.892,21.315-10.194c1.34-1.339,2.465-2.434,3.554-3.304
		c0.819,9.365,3.13,18.479,6.915,27.182L330.609,405.847z M310.745,181.327c-13.778,6.483-22.681,20.513-22.681,35.74v63.95
		c-6.496,1.871-10.6,5.966-13.814,9.178c-3.924,3.921-6.019,5.806-10.713,5.806c-4.694,0-6.789-1.885-10.712-5.806
		C248.518,285.893,242.62,280,231.508,280c-11.102,0-16.992,5.895-21.293,10.199c-3.915,3.918-6.005,5.801-10.683,5.801
		c-4.676,0-6.765-1.883-10.679-5.801c-3.209-3.212-7.305-7.307-13.79-9.18v-63.953c0-15.228-8.903-29.257-22.681-35.74
		l-60.27-28.363l22.118-43.743l49.614,23.348c4.763,2.242,10.266,1.045,13.691-2.979c3.379-3.97,3.678-9.515,0.745-13.8
		c-7.339-10.72-11.218-23.269-11.218-36.291c0-17.569,6.938-33.992,19.536-46.244c12.593-12.247,29.226-18.716,46.812-18.23
		c34.772,0.969,63.455,31.203,62.634,66.021c-0.293,12.425-4.149,24.415-11.15,34.671c-2.969,4.349-2.677,9.954,0.727,13.948
		c3.396,3.984,8.87,5.158,13.621,2.922l50.955-23.98l19.907,44.784L310.745,181.327z M383.225,145.978l-18.995-42.733
		c4.264-0.584,8.658-0.048,12.71,1.63c6.462,2.676,11.334,7.81,13.721,14.454C394.018,128.679,390.784,139.232,383.225,145.978z"/>
	<path d="M251.336,97.473c-6.346,4.332-12.999,6.528-19.772,6.528s-13.426-2.196-19.772-6.528
		c-3.419-2.335-8.087-1.455-10.422,1.966c-2.335,3.421-1.455,8.087,1.966,10.422c8.884,6.064,18.381,9.139,28.228,9.139
		s19.344-3.075,28.228-9.139c3.421-2.335,4.302-7.001,1.966-10.422C259.424,96.018,254.757,95.136,251.336,97.473z"/>
	<path d="M207.568,79c1.97,0,3.9-0.8,5.3-2.2c1.39-1.39,2.2-3.33,2.2-5.3c0-1.97-0.81-3.91-2.2-5.3c-1.4-1.4-3.33-2.2-5.3-2.2
		c-1.98,0-3.91,0.8-5.31,2.2c-1.39,1.39-2.19,3.33-2.19,5.3c0,1.97,0.8,3.91,2.19,5.3C203.658,78.2,205.588,79,207.568,79z"/>
	<path d="M255.568,64c-1.98,0-3.91,0.8-5.31,2.2c-1.39,1.39-2.19,3.33-2.19,5.3c0,1.97,0.8,3.91,2.19,5.3c1.4,1.4,3.33,2.2,5.31,2.2
		c1.97,0,3.9-0.8,5.3-2.2c1.4-1.39,2.2-3.33,2.2-5.3c0-1.98-0.8-3.91-2.2-5.3C259.468,64.8,257.538,64,255.568,64z"/>
	<path d="M231.564,152c-12.958,0-23.5,10.542-23.5,23.5s10.542,23.5,23.5,23.5s23.5-10.542,23.5-23.5S244.522,152,231.564,152z
		 M231.564,184c-4.687,0-8.5-3.813-8.5-8.5s3.813-8.5,8.5-8.5s8.5,3.813,8.5,8.5S236.251,184,231.564,184z"/>
	<path d="M231.564,216c-12.958,0-23.5,10.542-23.5,23.5s10.542,23.5,23.5,23.5s23.5-10.542,23.5-23.5S244.522,216,231.564,216z
		 M231.564,248c-4.687,0-8.5-3.813-8.5-8.5s3.813-8.5,8.5-8.5s8.5,3.813,8.5,8.5S236.251,248,231.564,248z"/>
</g>
<g>
</g>
<g>
</g>
<g>
</g>
<g>
</g>
<g>
</g>
<g>
</g>
<g>
</g>
<g>
</g>
<g>
</g>
<g>
</g>
<g>
</g>
<g>
</g>
<g>
</g>
<g>
</g>
<g>
</g>
</svg>
