<?xml version="1.0" encoding="iso-8859-1"?>
<!-- Generator: Adobe Illustrator 19.0.0, SVG Export Plug-In . SVG Version: 6.00 Build 0)  -->
<svg version="1.1" id="Capa_1" xmlns="http://www.w3.org/2000/svg" xmlns:xlink="http://www.w3.org/1999/xlink" x="0px" y="0px"
	 viewBox="0 0 463 463" style="enable-background:new 0 0 463 463;" xml:space="preserve">
<g>
	<path d="M300.685,60.407c5.206,2.107,10.378,4.484,15.373,7.064c1.101,0.569,2.277,0.838,3.436,0.838
		c2.716,0,5.337-1.479,6.67-4.059c1.901-3.68,0.458-8.205-3.221-10.105c-5.403-2.791-10.998-5.362-16.628-7.641
		c-3.839-1.554-8.212,0.297-9.767,4.138C294.993,54.481,296.845,58.854,300.685,60.407z"/>
	<path d="M67.479,316.07c-3.845-7.441-7.207-15.213-9.993-23.1c-1.38-3.905-5.662-5.953-9.57-4.574
		c-3.906,1.379-5.953,5.665-4.574,9.57c3.014,8.532,6.651,16.939,10.81,24.989c1.333,2.579,3.954,4.059,6.669,4.059
		c1.159,0,2.335-0.27,3.437-0.838C67.938,324.274,69.38,319.75,67.479,316.07z"/>
	<path d="M170.054,405.523c-35.659-12.591-66.238-35.551-88.43-66.399c-2.419-3.363-7.106-4.129-10.468-1.708
		c-3.362,2.419-4.127,7.106-1.708,10.468c23.989,33.346,57.051,58.168,95.612,71.783c0.826,0.292,1.668,0.43,2.497,0.43
		c3.09,0,5.984-1.925,7.072-5.005C176.008,411.187,173.96,406.903,170.054,405.523z"/>
	<path d="M417.446,191.001c0.619,0,1.248-0.077,1.875-0.238c4.011-1.033,6.426-5.122,5.394-9.133
		c-10.971-42.627-36.301-81.009-71.323-108.075c-3.278-2.534-7.987-1.929-10.521,1.348c-2.533,3.277-1.929,7.987,1.348,10.521
		c32.396,25.037,55.825,60.531,65.969,99.945C411.059,188.754,414.105,191.001,417.446,191.001z"/>
	<path d="M231.5,120C170.019,120,120,170.019,120,231.5S170.019,343,231.5,343S343,292.982,343,231.5S292.981,120,231.5,120z
		 M231.5,328c-53.21,0-96.5-43.29-96.5-96.5c0-53.21,43.29-96.5,96.5-96.5s96.5,43.29,96.5,96.5C328,284.71,284.71,328,231.5,328z"
		/>
	<path d="M395.196,67.805C351.471,24.08,293.336,0,231.5,0S111.529,24.08,67.805,67.805S0,169.664,0,231.5
		s24.08,119.971,67.805,163.695C111.529,438.92,169.664,463,231.5,463s119.971-24.08,163.696-67.805
		C438.92,351.471,463,293.336,463,231.5S438.92,111.53,395.196,67.805z M384.589,384.589C343.698,425.48,289.33,448,231.5,448
		c-57.829,0-112.197-22.52-153.089-63.412C37.52,343.698,15,289.329,15,231.5c0-57.83,22.52-112.197,63.411-153.089
		C119.303,37.52,173.671,15,231.5,15c57.83,0,112.198,22.52,153.089,63.411C425.48,119.303,448,173.671,448,231.5
		C448,289.329,425.48,343.698,384.589,384.589z"/>
	<path d="M119.5,119c1.97,0,3.91-0.8,5.3-2.2c1.4-1.39,2.2-3.33,2.2-5.3s-0.8-3.91-2.2-5.3c-1.39-1.4-3.33-2.2-5.3-2.2
		c-1.97,0-3.91,0.8-5.3,2.2c-1.4,1.39-2.2,3.33-2.2,5.3s0.8,3.91,2.2,5.3C115.59,118.2,117.53,119,119.5,119z"/>
	<path d="M175.5,111c1.97,0,3.91-0.8,5.3-2.2c1.4-1.39,2.2-3.33,2.2-5.3s-0.8-3.91-2.2-5.3c-1.39-1.4-3.33-2.2-5.3-2.2
		c-1.97,0-3.91,0.8-5.3,2.2c-1.4,1.39-2.2,3.33-2.2,5.3s0.8,3.91,2.2,5.3C171.59,110.2,173.53,111,175.5,111z"/>
	<path d="M175.5,71c1.97,0,3.91-0.8,5.3-2.2c1.4-1.39,2.2-3.33,2.2-5.3s-0.8-3.91-2.2-5.3c-1.39-1.4-3.32-2.2-5.3-2.2
		s-3.91,0.8-5.3,2.2c-1.4,1.39-2.2,3.33-2.2,5.3s0.8,3.91,2.2,5.3C171.59,70.2,173.53,71,175.5,71z"/>
	<path d="M223.5,55c1.97,0,3.91-0.8,5.3-2.2c1.4-1.39,2.2-3.33,2.2-5.3s-0.8-3.91-2.2-5.3c-1.39-1.4-3.33-2.2-5.3-2.2
		c-1.97,0-3.91,0.8-5.3,2.2c-1.4,1.39-2.2,3.33-2.2,5.3s0.8,3.91,2.2,5.3C219.59,54.2,221.53,55,223.5,55z"/>
	<path d="M271.5,103c1.97,0,3.91-0.8,5.3-2.2c1.4-1.39,2.2-3.33,2.2-5.3s-0.8-3.91-2.2-5.3c-1.39-1.4-3.33-2.2-5.3-2.2
		c-1.97,0-3.91,0.8-5.3,2.2c-1.4,1.39-2.2,3.33-2.2,5.3s0.8,3.91,2.2,5.3C267.59,102.2,269.53,103,271.5,103z"/>
	<path d="M175.5,360c-1.97,0-3.91,0.8-5.3,2.2c-1.4,1.39-2.2,3.33-2.2,5.3s0.8,3.91,2.2,5.3c1.39,1.4,3.33,2.2,5.3,2.2
		c1.97,0,3.91-0.8,5.3-2.2c1.4-1.39,2.2-3.33,2.2-5.3s-0.8-3.91-2.2-5.3C179.41,360.8,177.47,360,175.5,360z"/>
	<path d="M87.5,263c1.97,0,3.91-0.8,5.3-2.2c1.4-1.39,2.2-3.33,2.2-5.3s-0.8-3.91-2.2-5.3c-1.39-1.4-3.33-2.2-5.3-2.2
		c-1.97,0-3.91,0.8-5.3,2.2c-1.4,1.39-2.2,3.33-2.2,5.3s0.8,3.91,2.2,5.3C83.59,262.2,85.53,263,87.5,263z"/>
	<path d="M63.5,183c1.97,0,3.91-0.8,5.3-2.2c1.4-1.39,2.2-3.33,2.2-5.3s-0.8-3.91-2.2-5.3c-1.39-1.4-3.33-2.2-5.3-2.2
		c-1.97,0-3.91,0.8-5.3,2.2c-1.4,1.39-2.2,3.33-2.2,5.3s0.8,3.91,2.2,5.3C59.59,182.2,61.53,183,63.5,183z"/>
	<path d="M378.2,194.2c-1.4,1.39-2.2,3.33-2.2,5.3s0.8,3.91,2.2,5.3c1.39,1.4,3.33,2.2,5.3,2.2c1.98,0,3.91-0.8,5.3-2.2
		c1.4-1.39,2.2-3.33,2.2-5.3s-0.8-3.91-2.2-5.3c-1.39-1.4-3.32-2.2-5.3-2.2C381.53,192,379.59,192.8,378.2,194.2z"/>
	<path d="M391,263.5c0-1.97-0.8-3.91-2.2-5.3c-1.39-1.4-3.33-2.2-5.3-2.2c-1.97,0-3.91,0.8-5.3,2.2c-1.4,1.39-2.2,3.33-2.2,5.3
		s0.8,3.91,2.2,5.3c1.39,1.4,3.33,2.2,5.3,2.2c1.97,0,3.91-0.8,5.3-2.2C390.2,267.41,391,265.47,391,263.5z"/>
	<path d="M415.5,232c-1.97,0-3.91,0.8-5.3,2.2c-1.4,1.39-2.2,3.33-2.2,5.3s0.8,3.91,2.2,5.3c1.39,1.4,3.33,2.2,5.3,2.2
		c1.97,0,3.91-0.8,5.3-2.2c1.4-1.39,2.2-3.33,2.2-5.3s-0.8-3.91-2.2-5.3C419.41,232.8,417.47,232,415.5,232z"/>
	<path d="M103.5,167c1.97,0,3.91-0.8,5.3-2.2c1.4-1.39,2.2-3.33,2.2-5.3s-0.8-3.91-2.2-5.3c-1.39-1.4-3.33-2.2-5.3-2.2
		c-1.97,0-3.91,0.8-5.3,2.2c-1.4,1.39-2.2,3.33-2.2,5.3s0.8,3.91,2.2,5.3C99.59,166.2,101.53,167,103.5,167z"/>
	<path d="M103.5,319c1.97,0,3.91-0.8,5.3-2.2c1.4-1.39,2.2-3.33,2.2-5.3s-0.8-3.91-2.2-5.3c-1.39-1.4-3.33-2.2-5.3-2.2
		c-1.97,0-3.91,0.8-5.3,2.2c-1.4,1.39-2.2,3.33-2.2,5.3s0.8,3.91,2.2,5.3C99.59,318.2,101.53,319,103.5,319z"/>
	<path d="M391.5,312c-1.97,0-3.91,0.8-5.3,2.2c-1.4,1.39-2.2,3.33-2.2,5.3s0.8,3.91,2.2,5.3c1.39,1.4,3.33,2.2,5.3,2.2
		c1.97,0,3.91-0.8,5.3-2.2c1.4-1.39,2.2-3.33,2.2-5.3s-0.8-3.91-2.2-5.3C395.41,312.8,393.47,312,391.5,312z"/>
	<path d="M279.5,384c-1.97,0-3.91,0.8-5.3,2.2c-1.4,1.39-2.2,3.32-2.2,5.3c0,1.97,0.8,3.91,2.2,5.3c1.39,1.4,3.32,2.2,5.3,2.2
		c1.97,0,3.91-0.8,5.3-2.2c1.4-1.39,2.2-3.33,2.2-5.3c0-1.98-0.8-3.91-2.2-5.3C283.41,384.8,281.47,384,279.5,384z"/>
	<path d="M319.5,344c-1.97,0-3.91,0.8-5.3,2.2c-1.4,1.39-2.2,3.33-2.2,5.3s0.8,3.91,2.2,5.3c1.39,1.4,3.33,2.2,5.3,2.2
		c1.97,0,3.91-0.8,5.3-2.2c1.4-1.39,2.2-3.33,2.2-5.3s-0.8-3.91-2.2-5.3C323.41,344.8,321.47,344,319.5,344z"/>
	<path d="M239.5,400c-1.97,0-3.91,0.8-5.3,2.2c-1.4,1.39-2.2,3.33-2.2,5.3s0.8,3.91,2.2,5.3c1.39,1.4,3.33,2.2,5.3,2.2
		c1.97,0,3.91-0.8,5.3-2.2c1.4-1.39,2.2-3.33,2.2-5.3s-0.8-3.91-2.2-5.3C243.41,400.8,241.47,400,239.5,400z"/>
	<path d="M335.5,127c1.98,0,3.91-0.8,5.3-2.2c1.4-1.39,2.2-3.33,2.2-5.3s-0.8-3.91-2.2-5.3c-1.39-1.4-3.32-2.2-5.3-2.2
		c-1.97,0-3.91,0.8-5.3,2.2c-1.4,1.39-2.2,3.32-2.2,5.3c0,1.97,0.8,3.91,2.2,5.3C331.59,126.2,333.53,127,335.5,127z"/>
</g>
<g>
</g>
<g>
</g>
<g>
</g>
<g>
</g>
<g>
</g>
<g>
</g>
<g>
</g>
<g>
</g>
<g>
</g>
<g>
</g>
<g>
</g>
<g>
</g>
<g>
</g>
<g>
</g>
<g>
</g>
</svg>
