<?xml version="1.0" encoding="iso-8859-1"?>
<!-- Generator: Adobe Illustrator 19.0.0, SVG Export Plug-In . SVG Version: 6.00 Build 0)  -->
<svg version="1.1" id="Capa_1" xmlns="http://www.w3.org/2000/svg" xmlns:xlink="http://www.w3.org/1999/xlink" x="0px" y="0px"
	 viewBox="0 0 463 463" style="enable-background:new 0 0 463 463;" xml:space="preserve">
<g>
	<path d="M322.942,73.47c-5.401-2.791-10.996-5.361-16.629-7.642c-3.838-1.553-8.211,0.299-9.766,4.138
		c-1.554,3.839,0.299,8.212,4.138,9.766c5.207,2.107,10.379,4.484,15.372,7.063c1.101,0.569,2.277,0.838,3.436,0.838
		c2.716,0,5.337-1.48,6.669-4.059C328.064,79.896,326.622,75.371,322.942,73.47z"/>
	<path d="M67.479,335.395c-3.845-7.443-7.207-15.215-9.993-23.101c-1.379-3.905-5.663-5.953-9.57-4.573
		c-3.906,1.379-5.953,5.664-4.574,9.569c3.014,8.531,6.65,16.938,10.81,24.989c1.333,2.579,3.954,4.059,6.669,4.059
		c1.159,0,2.335-0.27,3.436-0.838C67.938,343.599,69.38,339.074,67.479,335.395z"/>
	<path d="M118.753,396.878c-14.176-10.959-26.668-23.889-37.128-38.43c-2.419-3.362-7.106-4.128-10.468-1.708
		c-3.362,2.419-4.127,7.105-1.708,10.468c11.307,15.716,24.809,29.691,40.13,41.537c1.366,1.056,2.98,1.567,4.582,1.567
		c2.243,0,4.461-1.001,5.939-2.913C122.632,404.122,122.03,399.412,118.753,396.878z"/>
	<path d="M419.321,210.087c4.011-1.032,6.426-5.121,5.394-9.132c-10.972-42.627-36.302-81.009-71.323-108.075
		c-3.278-2.533-7.988-1.93-10.521,1.348c-2.533,3.277-1.929,7.988,1.348,10.521c32.396,25.037,55.825,60.531,65.97,99.945
		c0.871,3.385,3.917,5.632,7.258,5.632C418.065,210.326,418.694,210.249,419.321,210.087z"/>
	<path d="M231.5,19.324C103.851,19.324,0,123.175,0,250.824c0,67.516,29.504,131.528,80.947,175.624
		c29.931,25.658,75.158,22.181,100.818-7.75c12.43-14.5,18.469-32.973,17.005-52.016c-1.464-19.043-10.256-36.375-24.755-48.802
		C154.304,300.984,143,276.543,143,250.824c0-48.799,39.701-88.5,88.5-88.5s88.5,39.701,88.5,88.5
		c0,25.724-11.307,50.165-31.021,67.059c-14.502,12.426-23.297,29.756-24.765,48.799s4.569,37.517,16.996,52.019
		c13.598,15.872,33.398,24.976,54.325,24.976c17.033,0,33.544-6.111,46.494-17.207C433.488,382.374,463,318.354,463,250.824
		C463,123.175,359.15,19.324,231.5,19.324z M372.269,415.079c-10.232,8.768-23.278,13.597-36.733,13.597
		c-16.54,0-32.189-7.193-42.934-19.735c-9.82-11.46-14.59-26.059-13.43-41.106c1.159-15.047,8.109-28.742,19.569-38.561
		c23.044-19.747,36.26-48.341,36.26-78.449c0-57.07-46.43-103.5-103.5-103.5S128,193.754,128,250.824
		c0,30.103,13.213,58.694,36.252,78.445c11.458,9.82,18.405,23.515,19.562,38.563s-3.615,29.646-13.437,41.103
		c-20.278,23.653-56.017,26.399-79.668,6.125C42.595,373.818,15,313.956,15,250.824c0-119.378,97.122-216.5,216.5-216.5
		c119.378,0,216.5,97.122,216.5,216.5C448,313.969,420.397,373.837,372.269,415.079z"/>
	<path d="M151.5,75.321c-1.97,0-3.91,0.8-5.3,2.2c-1.4,1.4-2.2,3.33-2.2,5.3c0,1.979,0.8,3.91,2.2,5.31
		c1.39,1.39,3.33,2.19,5.3,2.19c1.97,0,3.91-0.8,5.3-2.19c1.4-1.4,2.2-3.33,2.2-5.31c0-1.97-0.8-3.9-2.2-5.3
		C155.41,76.12,153.47,75.321,151.5,75.321z"/>
	<path d="M215.5,91.321c-1.98,0-3.91,0.8-5.3,2.2c-1.4,1.4-2.2,3.33-2.2,5.3c0,1.979,0.8,3.91,2.2,5.31
		c1.39,1.39,3.32,2.19,5.3,2.19s3.91-0.8,5.3-2.19c1.4-1.4,2.2-3.33,2.2-5.31c0-1.97-0.8-3.9-2.2-5.3
		C219.41,92.12,217.48,91.321,215.5,91.321z"/>
	<path d="M247.5,67.321c-1.97,0-3.91,0.8-5.3,2.2c-1.4,1.4-2.2,3.33-2.2,5.3c0,1.979,0.8,3.91,2.2,5.31
		c1.39,1.39,3.33,2.19,5.3,2.19c1.97,0,3.91-0.8,5.3-2.19c1.4-1.4,2.2-3.33,2.2-5.31c0-1.97-0.8-3.9-2.2-5.3
		C251.41,68.12,249.47,67.321,247.5,67.321z"/>
	<path d="M311.5,123.321c-1.97,0-3.91,0.8-5.3,2.2c-1.4,1.4-2.2,3.33-2.2,5.3c0,1.979,0.8,3.91,2.2,5.31
		c1.39,1.39,3.33,2.19,5.3,2.19c1.97,0,3.91-0.8,5.3-2.19c1.4-1.4,2.2-3.33,2.2-5.31c0-1.97-0.8-3.9-2.2-5.3
		C315.41,124.12,313.47,123.321,311.5,123.321z"/>
	<path d="M143.5,131.321c-1.98,0-3.91,0.81-5.3,2.2c-1.4,1.4-2.2,3.33-2.2,5.3c0,1.979,0.8,3.91,2.2,5.31
		c1.39,1.39,3.33,2.19,5.3,2.19c1.97,0,3.91-0.8,5.3-2.19c1.4-1.4,2.2-3.33,2.2-5.31c0-1.97-0.8-3.9-2.2-5.3
		C147.41,132.13,145.48,131.321,143.5,131.321z"/>
	<path d="M79.5,162.321c1.98,0,3.91-0.8,5.3-2.19c1.4-1.4,2.2-3.33,2.2-5.3c0-1.98-0.8-3.91-2.2-5.31c-1.39-1.39-3.32-2.2-5.3-2.2
		s-3.91,0.81-5.3,2.2c-1.4,1.4-2.2,3.33-2.2,5.31c0,1.97,0.8,3.9,2.2,5.3C75.59,161.52,77.521,162.321,79.5,162.321z"/>
	<path d="M95.5,226.321c1.97,0,3.91-0.8,5.3-2.19c1.4-1.4,2.2-3.33,2.2-5.31c0-1.97-0.8-3.9-2.2-5.3c-1.39-1.39-3.33-2.2-5.3-2.2
		c-1.98,0-3.91,0.81-5.3,2.2c-1.4,1.4-2.2,3.33-2.2,5.3c0,1.979,0.8,3.91,2.2,5.31C91.59,225.52,93.53,226.321,95.5,226.321z"/>
	<path d="M367.5,315.321c-1.97,0-3.91,0.81-5.3,2.2c-1.4,1.4-2.2,3.33-2.2,5.3c0,1.979,0.8,3.91,2.2,5.31
		c1.39,1.39,3.33,2.2,5.3,2.2c1.97,0,3.91-0.81,5.3-2.2c1.4-1.4,2.2-3.33,2.2-5.31c0-1.97-0.8-3.9-2.2-5.3
		C371.41,316.13,369.47,315.321,367.5,315.321z"/>
	<path d="M55.5,250.321c1.97,0,3.91-0.8,5.3-2.19c1.4-1.4,2.2-3.33,2.2-5.31c0-1.97-0.8-3.9-2.2-5.3c-1.39-1.4-3.33-2.2-5.3-2.2
		c-1.98,0-3.91,0.8-5.3,2.2c-1.4,1.4-2.2,3.33-2.2,5.3c0,1.979,0.8,3.91,2.2,5.31C51.59,249.52,53.521,250.321,55.5,250.321z"/>
	<path d="M95.5,314.321c1.97,0,3.91-0.8,5.3-2.19c1.4-1.4,2.2-3.33,2.2-5.3c0-1.98-0.8-3.91-2.2-5.31c-1.39-1.4-3.33-2.2-5.3-2.2
		c-1.97,0-3.91,0.8-5.3,2.2c-1.4,1.4-2.2,3.33-2.2,5.31c0,1.97,0.8,3.9,2.2,5.3C91.59,313.52,93.521,314.321,95.5,314.321z"/>
	<path d="M135.5,354.321c1.97,0,3.91-0.8,5.3-2.19c1.4-1.4,2.2-3.33,2.2-5.31c0-1.97-0.8-3.9-2.2-5.3c-1.39-1.39-3.33-2.19-5.3-2.19
		c-1.98,0-3.91,0.8-5.3,2.19c-1.4,1.4-2.2,3.33-2.2,5.3c0,1.979,0.8,3.91,2.2,5.31C131.59,353.52,133.53,354.321,135.5,354.321z"/>
	<path d="M359.5,355.321c-1.97,0-3.91,0.81-5.3,2.2c-1.4,1.4-2.2,3.33-2.2,5.3c0,1.979,0.8,3.91,2.2,5.31
		c1.39,1.39,3.33,2.19,5.3,2.19c1.97,0,3.91-0.8,5.3-2.19c1.4-1.4,2.2-3.33,2.2-5.31c0-1.97-0.8-3.9-2.2-5.3
		C363.41,356.13,361.48,355.321,359.5,355.321z"/>
	<path d="M319.5,363.321c-1.98,0-3.91,0.8-5.3,2.2c-1.4,1.4-2.2,3.33-2.2,5.3c0,1.979,0.8,3.91,2.2,5.31c1.39,1.39,3.32,2.2,5.3,2.2
		s3.91-0.81,5.3-2.2c1.4-1.4,2.2-3.33,2.2-5.31c0-1.97-0.8-3.9-2.2-5.3C323.41,364.12,321.48,363.321,319.5,363.321z"/>
	<path d="M375.5,267.321c-1.97,0-3.91,0.81-5.3,2.2c-1.4,1.4-2.2,3.33-2.2,5.3c0,1.979,0.8,3.91,2.2,5.31
		c1.39,1.39,3.33,2.19,5.3,2.19c1.98,0,3.91-0.8,5.3-2.19c1.4-1.4,2.2-3.33,2.2-5.31c0-1.97-0.8-3.9-2.2-5.3
		C379.41,268.13,377.48,267.321,375.5,267.321z"/>
	<path d="M428.8,245.52c-1.39-1.4-3.33-2.2-5.3-2.2c-1.98,0-3.91,0.8-5.3,2.2c-1.4,1.4-2.2,3.33-2.2,5.3c0,1.979,0.8,3.91,2.2,5.31
		c1.39,1.39,3.33,2.2,5.3,2.2c1.97,0,3.91-0.81,5.3-2.2c1.4-1.4,2.2-3.33,2.2-5.31C431,248.85,430.2,246.92,428.8,245.52z"/>
	<path d="M359,178.821c0-1.97-0.8-3.9-2.2-5.3c-1.39-1.4-3.33-2.2-5.3-2.2c-1.97,0-3.91,0.8-5.3,2.2c-1.4,1.4-2.2,3.33-2.2,5.3
		c0,1.979,0.8,3.91,2.2,5.31c1.39,1.39,3.33,2.19,5.3,2.19c1.97,0,3.91-0.8,5.3-2.19C358.2,182.73,359,180.8,359,178.821z"/>
</g>
<g>
</g>
<g>
</g>
<g>
</g>
<g>
</g>
<g>
</g>
<g>
</g>
<g>
</g>
<g>
</g>
<g>
</g>
<g>
</g>
<g>
</g>
<g>
</g>
<g>
</g>
<g>
</g>
<g>
</g>
</svg>
