<?xml version="1.0" encoding="iso-8859-1"?>
<!-- Generator: Adobe Illustrator 21.0.0, SVG Export Plug-In . SVG Version: 6.00 Build 0)  -->
<svg xmlns="http://www.w3.org/2000/svg" xmlns:xlink="http://www.w3.org/1999/xlink" version="1.1" id="Capa_1" x="0px" y="0px" viewBox="0 0 512 512" style="enable-background:new 0 0 512 512;" xml:space="preserve" width="512" height="512">
<g>
	<path d="M511.263,34.756c-1.414-2.948-4.573-4.638-7.816-4.183c-3.437,0.487-7.592,0.823-12.403,1.212   c-24.934,2.015-66.667,5.388-104.32,40.208c-3.041,2.812-3.227,7.557-0.414,10.598c2.813,3.042,7.557,3.229,10.599,0.414   c30.001-27.743,62.489-33.245,86.538-35.515C445.87,82.834,352.242,171.12,317.158,206.215   c-54.867,54.884-75.658,71.761-101.981,98.842l-0.434-0.435c-2.929-2.929-7.678-2.93-10.607-0.001   c-2.929,2.929-2.93,7.677-0.001,10.606l0.541,0.541l-10.607,10.611c-9.288-9.29-27.091-27.096-37.996-38.004l10.516-10.696   c20.194,20.191,13.229,13.227,14.736,14.733c1.465,1.465,3.384,2.197,5.304,2.197c1.919,0,3.839-0.732,5.303-2.196   c2.929-2.928,2.93-7.677,0.001-10.606l-13.656-13.659c20.013-13.972,79.891-58.354,194.895-163.331   c3.06-2.792,3.276-7.536,0.483-10.596c-2.794-3.061-7.537-3.276-10.596-0.482c-141.038,128.738-199.95,166.583-200.525,166.947   c-0.012,0.007-0.023,0.015-0.035,0.023c-0.011,0.007-0.023,0.015-0.034,0.022c-0.131,0.085-0.258,0.173-0.382,0.265   c-0.017,0.013-0.035,0.025-0.052,0.038c-0.031,0.023-0.061,0.047-0.091,0.07c-0.022,0.017-0.044,0.034-0.065,0.051   c-0.028,0.022-0.056,0.045-0.084,0.068c-0.024,0.02-0.049,0.04-0.073,0.06c-0.026,0.022-0.052,0.044-0.078,0.066   c-0.024,0.021-0.048,0.042-0.072,0.063c-0.026,0.023-0.052,0.046-0.077,0.069c-0.024,0.022-0.049,0.045-0.073,0.068   c-0.023,0.021-0.046,0.043-0.069,0.065c-0.029,0.028-0.057,0.056-0.085,0.084c-0.018,0.018-0.037,0.036-0.055,0.055   c-0.004,0.004-0.008,0.008-0.012,0.011l-21.035,21.397c-2.886,2.936-2.866,7.649,0.044,10.561l6.822,6.824l-87.12,87.146   c-7.748,7.751-15.357,10.321-25.711,12.576c-12.154,2.642-23.822,9.895-29.062,16.115c-6.86,7.788-6.848,17.636,0.037,24.522   l35.509,35.52c6.8,6.801,17.842,6.755,24.674-0.077l13.884-13.889c2.929-2.93,2.928-7.679-0.002-10.607   c-2.93-2.929-7.679-2.928-10.607,0.002l-13.884,13.889c-0.989,0.991-2.539,0.996-3.456,0.077L15.781,430.3   c-0.687-0.687-1.54-1.54,0.571-3.956c17.553-17.355,33.107-6.983,54.166-28.047l87.117-87.143l7.443,7.444l-31.13,31.139   c-2.928,2.93-2.928,7.679,0.002,10.606c2.927,2.928,7.678,2.929,10.607-0.001l31.127-31.136l7.78,7.781l-92.218,92.246   c-2.928,2.93-2.928,7.679,0.002,10.607c2.929,2.928,7.678,2.928,10.607-0.002l97.52-97.549c0.006-0.006,0.013-0.013,0.019-0.02   l21.119-21.128c0.069-0.067,0.137-0.135,0.203-0.205c29.294-30.78,47.451-44.5,107.052-104.118   c43.953-43.966,180.49-172.062,181.864-173.351C512.016,41.232,512.677,37.706,511.263,34.756z"/>
</g>















</svg>
