<?xml version="1.0" encoding="iso-8859-1"?>
<!-- Generator: Adobe Illustrator 19.0.0, SVG Export Plug-In . SVG Version: 6.00 Build 0)  -->
<svg version="1.1" id="Capa_1" xmlns="http://www.w3.org/2000/svg" xmlns:xlink="http://www.w3.org/1999/xlink" x="0px" y="0px"
	 viewBox="0 0 463 463" style="enable-background:new 0 0 463 463;" xml:space="preserve">
<g>
	<path d="M169.603,158.997c-2.929-2.93-7.678-2.93-10.606,0c-2.929,2.929-2.929,7.677,0,10.606l134.4,134.4
		c1.464,1.464,3.384,2.197,5.303,2.197s3.839-0.732,5.303-2.197c2.929-2.929,2.929-7.677,0-10.606L169.603,158.997z"/>
	<path d="M187.523,114.197c-2.929-2.929-7.678-2.929-10.606,0c-2.929,2.929-2.929,7.677,0,10.606l116.48,116.48
		c1.464,1.465,3.384,2.197,5.303,2.197s3.839-0.732,5.303-2.197c2.929-2.929,2.929-7.677,0-10.606L187.523,114.197z"/>
	<path d="M209.923,73.877c-2.929-2.93-7.678-2.93-10.606,0c-2.929,2.929-2.929,7.677,0,10.606l94.08,94.08
		c1.464,1.464,3.384,2.196,5.303,2.196s3.839-0.732,5.303-2.196c2.929-2.929,2.929-7.678,0-10.606L209.923,73.877z"/>
	<path d="M169.603,221.717c-2.928-2.929-7.677-2.929-10.606,0c-2.929,2.929-2.929,7.678,0,10.606l120.96,120.96
		c1.464,1.465,3.384,2.197,5.303,2.197s3.839-0.732,5.303-2.197c2.929-2.929,2.929-7.677,0-10.606L169.603,221.717z"/>
	<path d="M169.603,284.437c-2.929-2.929-7.678-2.929-10.606,0c-2.929,2.929-2.929,7.677,0,10.606l98.56,98.56
		c1.464,1.465,3.384,2.197,5.303,2.197s3.839-0.732,5.303-2.197c2.929-2.929,2.929-7.678,0-10.606L169.603,284.437z"/>
	<path d="M322.964,69.566C298.931,24.706,266.449,0,231.5,0c-34.949,0-67.431,24.706-91.464,69.566
		C116.798,112.944,104,170.454,104,231.5c0,61.047,12.798,118.556,36.036,161.934C164.069,438.294,196.551,463,231.5,463
		c34.949,0,67.432-24.706,91.464-69.566C346.202,350.056,359,292.547,359,231.5C359,170.454,346.202,112.944,322.964,69.566z
		 M309.742,386.351C288.444,426.106,260.657,448,231.5,448s-56.944-21.894-78.242-61.649C131.166,345.112,119,290.119,119,231.5
		c0-58.618,12.167-113.612,34.258-154.85C174.556,36.895,202.343,15,231.5,15c29.158,0,56.944,21.895,78.242,61.65
		C331.834,117.888,344,172.881,344,231.5C344,290.119,331.834,345.112,309.742,386.351z"/>
	<path d="M165.778,333.255c-0.801-2.544-1.584-5.167-2.328-7.795c-0.726-2.566-1.429-5.19-2.089-7.799
		c-1.018-4.015-5.095-6.446-9.112-5.429c-4.015,1.017-6.446,5.097-5.429,9.112c0.695,2.742,1.434,5.5,2.197,8.198
		c0.783,2.77,1.609,5.535,2.454,8.218c1.008,3.201,3.964,5.249,7.152,5.249c0.746,0,1.505-0.112,2.254-0.348
		C164.827,341.417,167.022,337.206,165.778,333.255z"/>
	<path d="M244.273,50.116c4.666,2.205,9.409,5.555,14.097,9.958c1.448,1.359,3.292,2.033,5.133,2.033
		c1.999,0,3.993-0.794,5.469-2.366c2.835-3.02,2.687-7.766-0.333-10.602c-5.832-5.476-11.873-9.71-17.957-12.585
		c-3.745-1.77-8.216-0.168-9.985,3.577C238.927,43.876,240.528,48.347,244.273,50.116z"/>
	<path d="M225.262,415.23c-14.774-3.58-30.738-19.614-43.797-43.99c-1.213-2.266-2.41-4.62-3.557-6.999
		c-1.799-3.731-6.282-5.297-10.013-3.499c-3.731,1.799-5.297,6.282-3.499,10.013c1.239,2.569,2.533,5.115,3.846,7.567
		c15.294,28.549,34.29,46.833,53.487,51.486c0.594,0.144,1.188,0.213,1.772,0.213c3.382,0,6.452-2.304,7.283-5.735
		C231.761,420.26,229.288,416.206,225.262,415.23z"/>
	<path d="M316.18,141.656c-5.419-21.388-12.627-40.558-21.423-56.978c-1.67-3.118-3.414-6.167-5.184-9.062
		c-2.161-3.534-6.776-4.647-10.312-2.486c-3.534,2.161-4.647,6.777-2.486,10.311c1.622,2.652,3.223,5.451,4.758,8.319
		c8.221,15.347,14.986,33.373,20.106,53.58c0.86,3.397,3.913,5.66,7.265,5.66c0.61,0,1.229-0.075,1.848-0.231
		C314.767,149.751,317.198,145.671,316.18,141.656z"/>
</g>
<g>
</g>
<g>
</g>
<g>
</g>
<g>
</g>
<g>
</g>
<g>
</g>
<g>
</g>
<g>
</g>
<g>
</g>
<g>
</g>
<g>
</g>
<g>
</g>
<g>
</g>
<g>
</g>
<g>
</g>
</svg>
