<?xml version="1.0" encoding="iso-8859-1"?>
<!-- Generator: Adobe Illustrator 19.0.0, SVG Export Plug-In . SVG Version: 6.00 Build 0)  -->
<svg version="1.1" id="Capa_1" xmlns="http://www.w3.org/2000/svg" xmlns:xlink="http://www.w3.org/1999/xlink" x="0px" y="0px"
	 viewBox="0 0 463 463" style="enable-background:new 0 0 463 463;" xml:space="preserve">
<g>
	<path d="M251.319,211.104c-30.89-30.891-66.524-56.226-103.051-73.268c-2.857-1.333-6.245-0.736-8.474,1.494
		c-2.23,2.23-2.827,5.617-1.494,8.474c17.042,36.526,42.377,72.161,73.268,103.051c30.891,30.891,66.525,56.227,103.051,73.267
		c1.015,0.473,2.096,0.704,3.169,0.704c1.948,0,3.867-0.759,5.305-2.197c2.23-2.229,2.827-5.616,1.494-8.474
		C307.545,277.629,282.21,241.994,251.319,211.104z M222.174,240.248c-23.837-23.837-44.211-50.575-59.759-78.297
		c27.722,15.547,54.46,35.922,78.297,59.759c23.837,23.837,44.211,50.576,59.758,78.297
		C272.75,284.46,246.011,264.085,222.174,240.248z"/>
	<path d="M239.624,162.332c20.673,20.673,44.555,37.612,69.062,48.985c1.011,0.47,2.087,0.697,3.155,0.697
		c1.948,0,3.867-0.759,5.305-2.197c2.226-2.226,2.825-5.605,1.5-8.46c-11.373-24.506-28.312-48.388-48.986-69.062
		c-20.674-20.674-44.555-37.613-69.062-48.986c-2.856-1.326-6.234-0.726-8.46,1.5c-2.226,2.226-2.825,5.605-1.5,8.461
		C202.01,117.776,218.949,141.657,239.624,162.332z M259.053,142.902c13.248,13.248,24.851,27.866,34.266,43.089
		c-15.224-9.416-29.842-21.019-43.089-34.266c-13.248-13.248-24.851-27.866-34.266-43.09
		C231.188,118.051,245.805,129.654,259.053,142.902z"/>
	<path d="M223.262,299.627c-20.674-20.674-44.555-37.613-69.063-48.986c-2.856-1.325-6.234-0.727-8.46,1.5s-2.825,5.605-1.5,8.46
		c11.373,24.507,28.312,48.389,48.986,69.063c20.673,20.673,44.555,37.612,69.062,48.986c1.011,0.469,2.087,0.697,3.155,0.697
		c1.948,0,3.867-0.759,5.305-2.197c2.226-2.226,2.825-5.605,1.5-8.461C260.875,344.182,243.936,320.3,223.262,299.627z
		 M203.832,319.057c-13.248-13.248-24.851-27.866-34.267-43.09c15.224,9.416,29.843,21.019,43.09,34.267
		c13.248,13.248,24.851,27.865,34.266,43.089C231.698,343.907,217.08,332.304,203.832,319.057z"/>
	<path d="M345.186,68.897C315.038,24.468,274.664,0,231.5,0c-43.164,0-83.538,24.468-113.687,68.897
		C88.27,112.435,72,170.182,72,231.5c0,61.319,16.271,119.065,45.813,162.604C147.962,438.532,188.336,463,231.5,463
		c43.164,0,83.539-24.468,113.687-68.896C374.73,350.565,391,292.819,391,231.5C391,170.182,374.73,112.435,345.186,68.897z
		 M231.5,448C151.822,448,87,350.879,87,231.5C87,112.122,151.822,15,231.5,15S376,112.122,376,231.5
		C376,350.879,311.177,448,231.5,448z"/>
	<path d="M238.717,47.379c4.849,0.511,9.716,1.552,14.468,3.096c0.77,0.25,1.55,0.368,2.318,0.368c3.162,0,6.102-2.016,7.132-5.185
		c1.279-3.94-0.877-8.171-4.816-9.45c-5.745-1.866-11.643-3.126-17.53-3.747c-4.119-0.432-7.81,2.554-8.244,6.673
		C231.61,43.254,234.597,46.945,238.717,47.379z"/>
	<path d="M180.318,395.607c-23.842-20.177-42.602-53.54-52.824-93.944c-1.016-4.015-5.093-6.447-9.11-5.432
		c-4.016,1.017-6.447,5.095-5.432,9.111c10.983,43.412,31.466,79.535,57.676,101.715c1.409,1.192,3.129,1.775,4.841,1.775
		c2.13,0,4.246-0.902,5.729-2.655C183.874,403.016,183.48,398.283,180.318,395.607z"/>
	<path d="M224.281,415.621c-4.845-0.511-9.708-1.551-14.457-3.092c-3.941-1.28-8.17,0.877-9.449,4.817
		c-1.279,3.94,0.877,8.171,4.817,9.45c5.74,1.864,11.634,3.124,17.517,3.743c0.267,0.028,0.532,0.042,0.795,0.042
		c3.789,0,7.043-2.863,7.449-6.715C231.387,419.746,228.4,416.055,224.281,415.621z"/>
	<path d="M347.828,149.431c-11.373-39.648-31.068-72.85-55.458-93.489c-3.162-2.677-7.895-2.281-10.57,0.88
		c-2.676,3.162-2.282,7.895,0.88,10.57c22.149,18.744,40.165,49.348,50.729,86.175c0.944,3.291,3.945,5.434,7.206,5.434
		c0.685,0,1.38-0.094,2.071-0.292C346.668,157.565,348.97,153.412,347.828,149.431z"/>
</g>
<g>
</g>
<g>
</g>
<g>
</g>
<g>
</g>
<g>
</g>
<g>
</g>
<g>
</g>
<g>
</g>
<g>
</g>
<g>
</g>
<g>
</g>
<g>
</g>
<g>
</g>
<g>
</g>
<g>
</g>
</svg>
