<?xml version="1.0" encoding="iso-8859-1"?>
<!-- Generator: Adobe Illustrator 19.0.0, SVG Export Plug-In . SVG Version: 6.00 Build 0)  -->
<svg version="1.1" id="Capa_1" xmlns="http://www.w3.org/2000/svg" xmlns:xlink="http://www.w3.org/1999/xlink" x="0px" y="0px"
	 viewBox="0 0 463 463" style="enable-background:new 0 0 463 463;" xml:space="preserve">
<g>
	<path d="M462.027,27.805C460.696,25.454,458.203,24,455.5,24h-400C24.897,24,0,48.897,0,79.5v159.143
		c0,11.887,8.429,22.222,19.607,24.042c6.886,1.118,13.851-0.803,19.11-5.277C43.981,252.932,47,246.405,47,239.5v-160
		c0-4.687,3.813-8.5,8.5-8.5h20.413l33.963,339.635C111.494,426.806,124.968,439,141.22,439h212.561
		c16.251,0,29.726-12.194,31.344-28.366l29.671-296.717l47.136-78.559C463.322,33.041,463.358,30.156,462.027,27.805z
		 M401.069,107.641c-0.569,0.949-0.921,2.012-1.032,3.113l-29.839,298.388c-0.847,8.471-7.905,14.858-16.418,14.858H141.22
		c-8.513,0-15.571-6.388-16.418-14.858L90.163,62.754C89.779,58.92,86.553,56,82.7,56H55.5C42.542,56,32,66.542,32,79.5v160
		c0,2.497-1.093,4.859-3,6.48c-1.931,1.643-4.411,2.316-6.984,1.898c-3.935-0.64-7.017-4.697-7.017-9.236V79.5
		C15,57.168,33.168,39,55.5,39h386.754L401.069,107.641z"/>
	<path d="M223.5,327h48c4.142,0,7.5-3.358,7.5-7.5s-3.358-7.5-7.5-7.5h-48c-4.142,0-7.5,3.358-7.5,7.5S219.358,327,223.5,327z"/>
	<path d="M223.5,231h48c4.142,0,7.5-3.358,7.5-7.5s-3.358-7.5-7.5-7.5h-48c-4.142,0-7.5,3.358-7.5,7.5S219.358,231,223.5,231z"/>
	<path d="M223.5,135h48c4.142,0,7.5-3.358,7.5-7.5c0-4.142-3.358-7.5-7.5-7.5h-48c-4.142,0-7.5,3.358-7.5,7.5
		C216,131.642,219.358,135,223.5,135z"/>
	<path d="M255.5,280h-16c-4.142,0-7.5,3.358-7.5,7.5s3.358,7.5,7.5,7.5h16c4.142,0,7.5-3.358,7.5-7.5S259.642,280,255.5,280z"/>
	<path d="M255.5,248h-16c-4.142,0-7.5,3.358-7.5,7.5s3.358,7.5,7.5,7.5h16c4.142,0,7.5-3.358,7.5-7.5S259.642,248,255.5,248z"/>
	<path d="M255.5,184h-16c-4.142,0-7.5,3.358-7.5,7.5s3.358,7.5,7.5,7.5h16c4.142,0,7.5-3.358,7.5-7.5S259.642,184,255.5,184z"/>
	<path d="M255.5,152h-16c-4.142,0-7.5,3.358-7.5,7.5s3.358,7.5,7.5,7.5h16c4.142,0,7.5-3.358,7.5-7.5S259.642,152,255.5,152z"/>
	<path d="M136.514,280.038c-4.122,0.412-7.129,4.087-6.717,8.209l11.2,112c0.387,3.868,3.647,6.754,7.454,6.754
		c0.25,0,0.501-0.012,0.755-0.038c4.122-0.412,7.129-4.087,6.717-8.209l-11.2-112C144.311,282.632,140.634,279.621,136.514,280.038z
		"/>
	<path d="M357.762,286.963c0.253,0.025,0.505,0.038,0.755,0.038c3.806,0,7.067-2.886,7.454-6.754l11.2-112
		c0.412-4.122-2.595-7.797-6.717-8.209c-4.124-0.412-7.797,2.595-8.209,6.717l-11.2,112
		C350.633,282.876,353.641,286.551,357.762,286.963z"/>
	<path d="M372.194,142.962c0.254,0.025,0.506,0.038,0.755,0.038c3.806,0,7.067-2.886,7.454-6.754l1.601-16.002
		c0.412-4.122-2.595-7.797-6.716-8.209c-4.131-0.417-7.797,2.595-8.209,6.716l-1.601,16.002
		C365.065,138.874,368.072,142.549,372.194,142.962z"/>
	<path d="M126.597,256.243c0.387,3.868,3.647,6.754,7.454,6.754c0.25,0,0.502-0.012,0.756-0.038
		c4.122-0.412,7.128-4.088,6.716-8.209l-1.6-15.998c-0.413-4.121-4.083-7.13-8.209-6.716c-4.122,0.413-7.128,4.088-6.716,8.209
		L126.597,256.243z"/>
</g>
<g>
</g>
<g>
</g>
<g>
</g>
<g>
</g>
<g>
</g>
<g>
</g>
<g>
</g>
<g>
</g>
<g>
</g>
<g>
</g>
<g>
</g>
<g>
</g>
<g>
</g>
<g>
</g>
<g>
</g>
</svg>
