<?xml version="1.0" encoding="iso-8859-1"?>
<!-- Generator: Adobe Illustrator 19.0.0, SVG Export Plug-In . SVG Version: 6.00 Build 0)  -->
<svg version="1.1" id="Capa_1" xmlns="http://www.w3.org/2000/svg" xmlns:xlink="http://www.w3.org/1999/xlink" x="0px" y="0px"
	 viewBox="0 0 463 463" style="enable-background:new 0 0 463 463;" xml:space="preserve">
<g>
	<path d="M455.5,103c4.142,0,7.5-3.358,7.5-7.5v-48c0-4.142-3.358-7.5-7.5-7.5H7.5C3.358,40,0,43.358,0,47.5v48
		c0,4.142,3.358,7.5,7.5,7.5H16v177H7.5c-4.142,0-7.5,3.358-7.5,7.5v128c0,4.142,3.358,7.5,7.5,7.5h448c4.142,0,7.5-3.358,7.5-7.5
		v-128c0-4.142-3.358-7.5-7.5-7.5H447V103H455.5z M15,55h433v33H15V55z M63,280v-17h337v17H63z M359.5,216
		c-4.142,0-7.5,3.358-7.5,7.5V248h-17v-24.5c0-4.142-3.358-7.5-7.5-7.5s-7.5,3.358-7.5,7.5V248h-17v-24.5c0-4.142-3.358-7.5-7.5-7.5
		s-7.5,3.358-7.5,7.5V248h-17v-24.5c0-4.142-3.358-7.5-7.5-7.5s-7.5,3.358-7.5,7.5V248h-17v-24.5c0-4.142-3.358-7.5-7.5-7.5
		s-7.5,3.358-7.5,7.5V248h-17v-24.5c0-4.142-3.358-7.5-7.5-7.5s-7.5,3.358-7.5,7.5V248h-17v-24.5c0-4.142-3.358-7.5-7.5-7.5
		s-7.5,3.358-7.5,7.5V248h-17v-24.5c0-4.142-3.358-7.5-7.5-7.5s-7.5,3.358-7.5,7.5V248h-17v-24.5c0-4.142-3.358-7.5-7.5-7.5
		s-7.5,3.358-7.5,7.5V248H63v-49h337v49h-33v-24.5C367,219.358,363.643,216,359.5,216z M400,184h-33v-24.5
		c0-4.142-3.358-7.5-7.5-7.5s-7.5,3.358-7.5,7.5V184h-17v-24.5c0-4.142-3.358-7.5-7.5-7.5s-7.5,3.358-7.5,7.5V184h-17v-24.5
		c0-4.142-3.358-7.5-7.5-7.5s-7.5,3.358-7.5,7.5V184h-17v-24.5c0-4.142-3.358-7.5-7.5-7.5s-7.5,3.358-7.5,7.5V184h-17v-24.5
		c0-4.142-3.358-7.5-7.5-7.5s-7.5,3.358-7.5,7.5V184h-17v-24.5c0-4.142-3.358-7.5-7.5-7.5s-7.5,3.358-7.5,7.5V184h-17v-24.5
		c0-4.142-3.358-7.5-7.5-7.5s-7.5,3.358-7.5,7.5V184h-17v-24.5c0-4.142-3.358-7.5-7.5-7.5s-7.5,3.358-7.5,7.5V184h-17v-24.5
		c0-4.142-3.358-7.5-7.5-7.5s-7.5,3.358-7.5,7.5V184H63v-49h337V184z M400,120H63v-17h337V120z M31,103h17v177H31V103z M288,327v81
		H175v-81H288z M416,327v81H303v-81H416z M160,408H47v-81h113V408z M448,408h-17v-88.5c0-4.142-3.358-7.5-7.5-7.5h-384
		c-4.142,0-7.5,3.358-7.5,7.5V408H15V295h433V408z M432,280h-17V103h17V280z"/>
	<path d="M223.5,351h16c4.142,0,7.5-3.358,7.5-7.5s-3.358-7.5-7.5-7.5h-16c-4.142,0-7.5,3.358-7.5,7.5S219.358,351,223.5,351z"/>
	<path d="M95.5,351h16c4.142,0,7.5-3.358,7.5-7.5s-3.358-7.5-7.5-7.5h-16c-4.142,0-7.5,3.358-7.5,7.5S91.358,351,95.5,351z"/>
	<path d="M351.5,351h16c4.142,0,7.5-3.358,7.5-7.5s-3.358-7.5-7.5-7.5h-16c-4.142,0-7.5,3.358-7.5,7.5S347.358,351,351.5,351z"/>
</g>
<g>
</g>
<g>
</g>
<g>
</g>
<g>
</g>
<g>
</g>
<g>
</g>
<g>
</g>
<g>
</g>
<g>
</g>
<g>
</g>
<g>
</g>
<g>
</g>
<g>
</g>
<g>
</g>
<g>
</g>
</svg>
