<?xml version="1.0" encoding="iso-8859-1"?>
<!-- Generator: Adobe Illustrator 19.0.0, SVG Export Plug-In . SVG Version: 6.00 Build 0)  -->
<svg version="1.1" id="Capa_1" xmlns="http://www.w3.org/2000/svg" xmlns:xlink="http://www.w3.org/1999/xlink" x="0px" y="0px"
	 viewBox="0 0 463 463" style="enable-background:new 0 0 463 463;" xml:space="preserve">
<g>
	<path d="M231.503,34.862c1.97,0,3.91-0.8,5.3-2.2c1.4-1.4,2.2-3.33,2.2-5.31c0-1.97-0.8-3.9-2.2-5.3c-1.39-1.39-3.33-2.2-5.3-2.2
		c-1.97,0-3.91,0.81-5.3,2.2c-1.4,1.4-2.2,3.33-2.2,5.3c0,1.98,0.8,3.91,2.2,5.31C227.593,34.062,229.533,34.862,231.503,34.862z"/>
	<path d="M286.747,233.842l-32.072-24.055c-2.506-1.879-4.002-4.872-4.002-8.004v-64.692c3.626-3.428,5.943-8.233,6.039-13.557
		l1.715-96.019c0.159-7.302-2.567-14.199-7.675-19.42S238.807,0,231.503,0c-7.304,0-14.14,2.875-19.248,8.096
		s-7.834,12.118-7.676,19.391l1.715,96.048c0.095,5.324,2.413,10.129,6.039,13.557v64.692c0,3.132-1.496,6.125-4.002,8.004
		l-32.073,24.055c-6.987,5.241-10.245,14.128-8.31,22.596l41.972,189.358c2.316,10.13,11.19,17.205,21.582,17.205
		s19.266-7.075,21.593-17.253l41.951-189.262C296.993,247.97,293.735,239.082,286.747,233.842z M221.292,123.267L221.073,111h20.86
		l-0.219,12.266c-0.033,1.86-1.314,3.416-3.024,3.914h-14.374C222.606,126.682,221.325,125.126,221.292,123.267z M222.976,18.586
		c2.263-2.313,5.292-3.586,8.527-3.586c3.236,0,6.264,1.274,8.527,3.586c2.263,2.313,3.471,5.368,3.399,8.632L242.201,96h-21.396
		l-1.229-68.811C219.505,23.955,220.713,20.899,222.976,18.586z M280.413,253.191l-41.951,189.261
		c-0.747,3.267-3.608,5.548-6.959,5.548s-6.212-2.281-6.948-5.5l-41.972-189.357c-0.627-2.746,0.423-5.612,2.676-7.302
		l32.073-24.055c6.263-4.697,10.002-12.175,10.002-20.004v-59.421h8.34v59.421c0,7.829,3.739,15.307,10.002,20.004l32.072,24.055
		C280.001,247.532,281.051,250.398,280.413,253.191z"/>
	<path d="M256.836,246H206.17c-4.142,0-7.5,3.358-7.5,7.5s3.358,7.5,7.5,7.5h50.667c4.142,0,7.5-3.358,7.5-7.5
		S260.978,246,256.836,246z"/>
</g>
<g>
</g>
<g>
</g>
<g>
</g>
<g>
</g>
<g>
</g>
<g>
</g>
<g>
</g>
<g>
</g>
<g>
</g>
<g>
</g>
<g>
</g>
<g>
</g>
<g>
</g>
<g>
</g>
<g>
</g>
</svg>
