<?xml version="1.0" encoding="iso-8859-1"?>
<!-- Generator: Adobe Illustrator 19.0.0, SVG Export Plug-In . SVG Version: 6.00 Build 0)  -->
<svg version="1.1" id="Capa_1" xmlns="http://www.w3.org/2000/svg" xmlns:xlink="http://www.w3.org/1999/xlink" x="0px" y="0px"
	 viewBox="0 0 463.001 463.001" style="enable-background:new 0 0 463.001 463.001;" xml:space="preserve">
<g>
	<path d="M231.504,35.111c1.97,0,3.9-0.8,5.3-2.19c1.4-1.4,2.2-3.33,2.2-5.31c0-1.97-0.8-3.9-2.2-5.3s-3.33-2.2-5.3-2.2
		c-1.98,0-3.91,0.8-5.31,2.2c-1.39,1.4-2.19,3.33-2.19,5.3c0,1.98,0.8,3.91,2.19,5.31C227.594,34.311,229.524,35.111,231.504,35.111
		z"/>
	<path d="M268.544,177.696c-0.003-0.11-0.009-0.22-0.017-0.331c-0.012-0.174-0.03-0.346-0.054-0.516
		c-0.013-0.095-0.027-0.19-0.043-0.285c-0.036-0.2-0.081-0.396-0.132-0.59c-0.013-0.049-0.019-0.1-0.033-0.149l-11.514-40.298
		l1.924-107.755c0.161-7.37-2.59-14.332-7.747-19.601C245.772,2.902,238.873,0,231.5,0s-14.272,2.902-19.428,8.171
		c-5.156,5.269-7.907,12.23-7.748,19.572l1.925,107.784l-11.514,40.298c-0.014,0.049-0.02,0.1-0.033,0.149
		c-0.051,0.194-0.096,0.39-0.132,0.59c-0.017,0.095-0.03,0.19-0.043,0.285c-0.024,0.17-0.042,0.342-0.053,0.516
		c-0.008,0.11-0.014,0.22-0.017,0.331c-0.001,0.064-0.01,0.126-0.01,0.19v248.065c0,20.43,16.621,37.05,37.05,37.05h0.006
		c20.43,0,37.05-16.621,37.05-37.05V177.886C268.554,177.822,268.546,177.76,268.544,177.696z M241.865,129.012h-20.729
		l-0.298-16.664h21.324L241.865,129.012z M219.426,144.012h24.149l7.536,26.374H211.89L219.426,144.012z M222.793,18.662
		C225.104,16.301,228.196,15,231.5,15s6.396,1.301,8.707,3.662c2.311,2.361,3.543,5.481,3.471,8.813l-1.248,69.872h-21.86
		l-1.249-69.901C219.25,24.143,220.483,21.023,222.793,18.662z M253.554,425.951c0,12.159-9.892,22.05-22.05,22.05h-0.006
		c-12.159,0-22.05-9.892-22.05-22.05V185.386h44.106V425.951z"/>
</g>
<g>
</g>
<g>
</g>
<g>
</g>
<g>
</g>
<g>
</g>
<g>
</g>
<g>
</g>
<g>
</g>
<g>
</g>
<g>
</g>
<g>
</g>
<g>
</g>
<g>
</g>
<g>
</g>
<g>
</g>
</svg>
