<?xml version="1.0" encoding="iso-8859-1"?>
<!-- Generator: Adobe Illustrator 19.0.0, SVG Export Plug-In . SVG Version: 6.00 Build 0)  -->
<svg version="1.1" id="Capa_1" xmlns="http://www.w3.org/2000/svg" xmlns:xlink="http://www.w3.org/1999/xlink" x="0px" y="0px"
	 viewBox="0 0 463 463" style="enable-background:new 0 0 463 463;" xml:space="preserve">
<g>
	<path d="M395.195,67.805C351.471,24.08,293.336,0,231.5,0S111.529,24.08,67.805,67.805S0,169.664,0,231.5
		s24.08,119.971,67.805,163.696C111.529,438.92,169.664,463,231.5,463s119.971-24.08,163.695-67.805
		C438.92,351.471,463,293.336,463,231.5S438.92,111.53,395.195,67.805z M384.589,384.589C343.697,425.48,289.329,448,231.5,448
		s-112.197-22.52-153.089-63.411C37.52,343.698,15,289.33,15,231.5S37.52,119.303,78.411,78.411C119.303,37.52,173.671,15,231.5,15
		s112.197,22.52,153.089,63.411C425.48,119.303,448,173.671,448,231.5S425.48,343.698,384.589,384.589z"/>
	<path d="M231.5,32C121.495,32,32,121.495,32,231.5S121.495,431,231.5,431S431,341.505,431,231.5S341.505,32,231.5,32z
		 M380.907,339.616L375.964,329l37.124-79.731l1.67,3.586C411.035,285.003,399.02,314.656,380.907,339.616z M333.169,385.381
		c-5.493,3.641-11.187,7-17.069,10.048L285.17,329l37.123-79.731L359.417,329l-26.234,56.343
		C333.178,385.356,333.174,385.368,333.169,385.381z M129.832,385.381c-0.006-0.012-0.009-0.025-0.015-0.037L103.583,329
		l37.124-79.731L177.83,329l-30.929,66.428C141.019,392.381,135.325,389.022,129.832,385.381z M48.236,252.79
		c0.074-0.137,0.16-0.263,0.227-0.406l1.45-3.115L87.036,329l-4.943,10.616C63.968,314.639,51.949,284.963,48.236,252.79z
		 M82.094,123.384L87.036,134l-37.124,79.732l-1.45-3.115c-0.068-0.147-0.148-0.285-0.225-0.425
		C51.954,178.026,63.972,148.357,82.094,123.384z M58.186,231.5l37.124-79.732l37.124,79.731L95.31,311.232L58.186,231.5z
		 M146.901,67.572L177.83,134l-37.123,79.731L103.583,134l26.252-56.382C135.327,73.978,141.02,70.619,146.901,67.572z
		 M333.165,77.618L359.417,134l-37.124,79.731L285.17,134l30.93-66.428C321.98,70.62,327.674,73.978,333.165,77.618z M223.227,231.5
		l-37.124,79.731L148.98,231.5l37.123-79.731L223.227,231.5z M194.377,134L231.5,54.269L268.624,134L231.5,213.731L194.377,134z
		 M231.5,249.269L268.624,329L231.5,408.732L194.377,329L231.5,249.269z M239.773,231.5l37.123-79.731l37.124,79.731l-37.123,79.731
		L239.773,231.5z M276.897,116.231L244.89,47.489c20.283,1.462,39.667,6.216,57.621,13.731L276.897,116.231z M186.103,116.231
		L160.49,61.22c17.954-7.515,37.338-12.269,57.62-13.731L186.103,116.231z M186.103,346.769l32.007,68.743
		c-20.283-1.462-39.667-6.216-57.621-13.731L186.103,346.769z M276.897,346.769l25.614,55.011
		c-17.954,7.515-37.338,12.27-57.621,13.731L276.897,346.769z M330.567,231.5l37.124-79.731l37.124,79.731l-37.124,79.731
		L330.567,231.5z M414.757,210.145l-1.67,3.586L375.964,134l4.943-10.616C399.02,148.345,411.035,177.997,414.757,210.145z
		 M370.465,110.273l-2.774,5.958l-8.092-17.379C363.379,102.504,367.006,106.313,370.465,110.273z M103.401,98.853l-8.091,17.378
		l-2.774-5.958C95.994,106.313,99.621,102.504,103.401,98.853z M92.535,352.728l2.774-5.958l8.092,17.379
		C99.621,360.497,95.994,356.688,92.535,352.728z M359.599,364.148l8.092-17.379l2.774,5.958
		C367.006,356.688,363.379,360.496,359.599,364.148z"/>
	<path d="M248.802,132.334l-14.047-30.169c-1.749-3.755-6.208-5.382-9.965-3.633c-3.755,1.748-5.381,6.21-3.633,9.965l14.047,30.169
		c1.272,2.731,3.978,4.336,6.804,4.336c1.06,0,2.137-0.226,3.161-0.703C248.923,140.551,250.55,136.089,248.802,132.334z"/>
	<path d="M294.574,228.334l-14.047-30.169c-1.749-3.755-6.209-5.382-9.965-3.633c-3.755,1.748-5.382,6.21-3.634,9.965l14.047,30.169
		c1.272,2.731,3.978,4.336,6.804,4.336c1.06,0,2.137-0.226,3.161-0.703C294.696,236.551,296.322,232.09,294.574,228.334z"/>
	<path d="M312.701,108.497l14.047,30.169c1.272,2.731,3.978,4.336,6.804,4.336c1.06,0,2.137-0.226,3.161-0.703
		c3.755-1.748,5.382-6.21,3.634-9.965L326.3,102.165c-1.749-3.755-6.209-5.382-9.965-3.633
		C312.58,100.28,310.953,104.741,312.701,108.497z"/>
	<path d="M386.119,228.334l-14.047-30.169c-1.749-3.755-6.209-5.382-9.965-3.633c-3.755,1.748-5.382,6.21-3.634,9.965l14.047,30.169
		c1.272,2.731,3.978,4.336,6.804,4.336c1.06,0,2.137-0.226,3.161-0.703C386.241,236.551,387.867,232.09,386.119,228.334z"/>
	<path d="M340.347,324.334L326.3,294.165c-1.749-3.755-6.209-5.382-9.965-3.633c-3.755,1.748-5.382,6.21-3.634,9.965l14.047,30.169
		c1.272,2.731,3.978,4.336,6.804,4.336c1.06,0,2.137-0.226,3.161-0.703C340.468,332.551,342.095,328.09,340.347,324.334z"/>
	<path d="M128.701,108.497l14.047,30.169c1.272,2.731,3.978,4.336,6.804,4.336c1.06,0,2.137-0.226,3.161-0.703
		c3.755-1.748,5.381-6.21,3.633-9.965l-14.047-30.169c-1.749-3.755-6.209-5.382-9.965-3.633
		C128.579,100.28,126.953,104.741,128.701,108.497z"/>
	<path d="M174.473,204.497l14.047,30.169c1.272,2.731,3.978,4.336,6.804,4.336c1.06,0,2.137-0.226,3.161-0.703
		c3.755-1.748,5.381-6.21,3.633-9.965l-14.047-30.169c-1.749-3.755-6.21-5.382-9.965-3.633
		C174.352,196.28,172.725,200.741,174.473,204.497z"/>
	<path d="M234.293,330.666c1.272,2.731,3.978,4.336,6.804,4.336c1.06,0,2.137-0.226,3.161-0.703c3.755-1.748,5.382-6.21,3.634-9.965
		l-14.047-30.169c-1.749-3.755-6.21-5.382-9.965-3.633c-3.755,1.748-5.382,6.21-3.634,9.965L234.293,330.666z"/>
	<path d="M112.527,228.334L98.48,198.165c-1.749-3.755-6.21-5.382-9.965-3.633c-3.755,1.748-5.382,6.21-3.634,9.965l14.047,30.169
		c1.272,2.731,3.978,4.336,6.804,4.336c1.06,0,2.137-0.226,3.161-0.703C112.648,236.551,114.275,232.09,112.527,228.334z"/>
	<path d="M158.299,324.334l-14.047-30.169c-1.749-3.755-6.21-5.382-9.965-3.633c-3.755,1.748-5.382,6.21-3.634,9.965l14.047,30.169
		c1.272,2.731,3.978,4.336,6.804,4.336c1.06,0,2.137-0.226,3.161-0.703C158.421,332.551,160.047,328.09,158.299,324.334z"/>
</g>
<g>
</g>
<g>
</g>
<g>
</g>
<g>
</g>
<g>
</g>
<g>
</g>
<g>
</g>
<g>
</g>
<g>
</g>
<g>
</g>
<g>
</g>
<g>
</g>
<g>
</g>
<g>
</g>
<g>
</g>
</svg>
