<?xml version="1.0" encoding="iso-8859-1"?>
<!-- Generator: Adobe Illustrator 19.0.0, SVG Export Plug-In . SVG Version: 6.00 Build 0)  -->
<svg version="1.1" id="Capa_1" xmlns="http://www.w3.org/2000/svg" xmlns:xlink="http://www.w3.org/1999/xlink" x="0px" y="0px"
	 viewBox="0 0 463 463" style="enable-background:new 0 0 463 463;" xml:space="preserve">
<g>
	<path d="M379.368,29.088C338.574,10.33,286.06,0,231.5,0S124.426,10.33,83.632,29.088C46.292,46.257,24,68.093,24,87.5v16
		c0,15.642,9.729,27.608,24,30.711V423.5c0,21.78,17.72,39.5,39.5,39.5h288c21.78,0,39.5-17.72,39.5-39.5V134.211
		c14.271-3.103,24-15.069,24-30.711v-16C439,68.093,416.708,46.257,379.368,29.088z M424,103.5c0,2.852-0.607,5.884-2.007,8.56
		c-4.13-15.802-20.905-32.933-46.635-47.141c-3.627-2.002-8.188-0.686-10.191,2.94s-0.686,8.188,2.94,10.191
		C397.552,94.309,408,110.541,408,119.5v0.477c-0.17,0.003-0.326,0.023-0.5,0.023c-4.142,0-7.5,3.357-7.5,7.5v296
		c0,13.509-10.991,24.5-24.5,24.5h-288C73.99,448,63,437.009,63,423.5v-296c0-4.143-3.358-7.5-7.5-7.5c-0.174,0-0.33-0.02-0.5-0.023
		V119.5c0-6.498,5.257-15.092,14.423-23.58c10.858-10.054,26.408-19.477,44.968-27.25c3.821-1.6,5.621-5.994,4.021-9.814
		c-1.601-3.821-5.996-5.622-9.815-4.021c-37.016,15.502-62.379,37.261-67.588,57.23C39.607,109.388,39,106.354,39,103.5v-16
		c0-5.539,4.311-12.68,12.137-20.108c9.165-8.697,22.568-17.23,38.761-24.676C128.768,24.843,179.057,15,231.5,15
		s102.731,9.843,141.602,27.716c16.193,7.446,29.597,15.979,38.761,24.677C419.69,74.82,424,81.961,424,87.5V103.5z"/>
	<path d="M302.871,46.686c0.765-4.071-1.916-7.991-5.986-8.756C275.938,33.995,253.94,32,231.5,32
		c-31.614,0-61.887,3.895-89.979,11.575c-3.996,1.092-6.349,5.217-5.256,9.212c0.912,3.333,3.933,5.524,7.23,5.524
		c0.655,0,1.321-0.086,1.982-0.268C172.28,50.716,201.222,47,231.5,47c21.513,0,42.58,1.908,62.616,5.672
		C298.19,53.437,302.107,50.756,302.871,46.686z"/>
	<path d="M350.54,61.226c1.462-3.875-0.494-8.202-4.369-9.665c-5.296-1.999-10.822-3.88-16.422-5.592
		c-3.964-1.212-8.154,1.019-9.365,4.98c-1.211,3.961,1.019,8.154,4.98,9.365c5.295,1.618,10.513,3.395,15.51,5.281
		c0.872,0.329,1.767,0.485,2.647,0.485C346.552,66.079,349.406,64.229,350.54,61.226z"/>
	<path d="M151.5,207c12.958,0,23.5-10.542,23.5-23.5S164.458,160,151.5,160S128,170.542,128,183.5S138.542,207,151.5,207z
		 M151.5,175c4.687,0,8.5,3.813,8.5,8.5c0,4.687-3.813,8.5-8.5,8.5s-8.5-3.813-8.5-8.5C143,178.813,146.813,175,151.5,175z"/>
	<path d="M183.02,255.5c0-4.143-3.358-7.5-7.5-7.5h-0.01c-4.142,0-7.495,3.357-7.495,7.5c0,4.142,3.363,7.5,7.505,7.5
		S183.02,259.642,183.02,255.5z"/>
	<path d="M247.51,192c-4.142,0-7.495,3.357-7.495,7.5c0,4.142,3.363,7.5,7.505,7.5s7.5-3.358,7.5-7.5c0-4.143-3.358-7.5-7.5-7.5
		H247.51z"/>
	<path d="M335.52,240h-0.01c-4.142,0-7.495,3.357-7.495,7.5c0,4.142,3.363,7.5,7.505,7.5s7.5-3.358,7.5-7.5
		C343.02,243.357,339.662,240,335.52,240z"/>
	<path d="M215.52,328h-0.01c-4.142,0-7.495,3.358-7.495,7.5s3.363,7.5,7.505,7.5s7.5-3.358,7.5-7.5S219.662,328,215.52,328z"/>
	<path d="M127.02,311.5c0-4.142-3.358-7.5-7.5-7.5h-0.01c-4.142,0-7.495,3.358-7.495,7.5s3.363,7.5,7.505,7.5
		S127.02,315.642,127.02,311.5z"/>
	<path d="M215.52,96h-0.01c-4.142,0-7.495,3.357-7.495,7.5c0,4.142,3.363,7.5,7.505,7.5s7.5-3.358,7.5-7.5
		C223.02,99.357,219.662,96,215.52,96z"/>
	<path d="M351.52,144h-0.01c-4.142,0-7.495,3.357-7.495,7.5c0,4.142,3.363,7.5,7.505,7.5s7.5-3.358,7.5-7.5
		C359.02,147.357,355.662,144,351.52,144z"/>
	<path d="M103.52,200h-0.01c-4.142,0-7.495,3.357-7.495,7.5c0,4.142,3.363,7.5,7.505,7.5s7.5-3.358,7.5-7.5
		C111.02,203.357,107.662,200,103.52,200z"/>
	<path d="M183.52,392h-0.01c-4.142,0-7.495,3.358-7.495,7.5s3.363,7.5,7.505,7.5s7.5-3.358,7.5-7.5S187.662,392,183.52,392z"/>
	<path d="M127.52,135c4.142,0,7.5-3.358,7.5-7.5c0-4.143-3.358-7.5-7.5-7.5h-0.01c-4.142,0-7.495,3.357-7.495,7.5
		C120.015,131.642,123.378,135,127.52,135z"/>
	<path d="M360.015,319.5c0,4.142,3.363,7.5,7.505,7.5s7.5-3.358,7.5-7.5s-3.358-7.5-7.5-7.5h-0.01
		C363.368,312,360.015,315.358,360.015,319.5z"/>
	<path d="M319.5,360c-12.958,0-23.5,10.542-23.5,23.5s10.542,23.5,23.5,23.5s23.5-10.542,23.5-23.5S332.458,360,319.5,360z
		 M319.5,392c-4.687,0-8.5-3.813-8.5-8.5s3.813-8.5,8.5-8.5s8.5,3.813,8.5,8.5S324.187,392,319.5,392z"/>
	<path d="M143.5,344c-12.958,0-23.5,10.542-23.5,23.5s10.542,23.5,23.5,23.5s23.5-10.542,23.5-23.5S156.458,344,143.5,344z
		 M143.5,376c-4.687,0-8.5-3.813-8.5-8.5s3.813-8.5,8.5-8.5s8.5,3.813,8.5,8.5S148.187,376,143.5,376z"/>
	<path d="M255.5,256c-12.958,0-23.5,10.542-23.5,23.5s10.542,23.5,23.5,23.5s23.5-10.542,23.5-23.5S268.458,256,255.5,256z
		 M255.5,288c-4.687,0-8.5-3.813-8.5-8.5c0-4.688,3.813-8.5,8.5-8.5s8.5,3.813,8.5,8.5C264,284.187,260.187,288,255.5,288z"/>
	<path d="M311,151.5c0-12.958-10.542-23.5-23.5-23.5S264,138.542,264,151.5s10.542,23.5,23.5,23.5S311,164.458,311,151.5z
		 M287.5,160c-4.687,0-8.5-3.813-8.5-8.5c0-4.688,3.813-8.5,8.5-8.5s8.5,3.813,8.5,8.5C296,156.187,292.187,160,287.5,160z"/>
</g>
<g>
</g>
<g>
</g>
<g>
</g>
<g>
</g>
<g>
</g>
<g>
</g>
<g>
</g>
<g>
</g>
<g>
</g>
<g>
</g>
<g>
</g>
<g>
</g>
<g>
</g>
<g>
</g>
<g>
</g>
</svg>
