<?xml version="1.0" encoding="iso-8859-1"?>
<!-- Generator: Adobe Illustrator 19.0.0, SVG Export Plug-In . SVG Version: 6.00 Build 0)  -->
<svg version="1.1" id="Capa_1" xmlns="http://www.w3.org/2000/svg" xmlns:xlink="http://www.w3.org/1999/xlink" x="0px" y="0px"
	 viewBox="0 0 463 463" style="enable-background:new 0 0 463 463;" xml:space="preserve">
<g>
	<path d="M431.931,165.239c-16.89-20.874-40.593-38.187-70.452-51.457C312,91.791,256.496,85.923,231.5,85.923
		s-80.5,5.867-129.979,27.858c-29.858,13.271-53.562,30.583-70.451,51.457C10.453,190.719,0,221.489,0,256.694
		c0,46.821,9.259,77.419,29.139,96.293c20.446,19.412,49.626,24.09,85.727,24.089c15.661,0,32.629-0.881,50.742-1.821
		c20.97-1.089,42.655-2.215,65.892-2.215s44.922,1.126,65.892,2.215c59.868,3.109,107.154,5.565,136.469-22.268
		C453.741,334.113,463,303.515,463,256.694C463,221.489,452.547,190.719,431.931,165.239z M423.533,342.109
		c-24.644,23.397-69.093,21.088-125.363,18.167c-21.162-1.099-43.044-2.235-66.67-2.235s-45.508,1.136-66.67,2.235
		c-56.271,2.922-100.719,5.23-125.362-18.167C23.003,326.478,15,298.539,15,256.694c0-58.422,31.159-101.893,92.613-129.205
		c59.093-26.264,121.269-26.565,123.887-26.565s64.794,0.302,123.888,26.565C416.841,154.801,448,198.272,448,256.694
		C448,298.539,439.997,326.478,423.533,342.109z"/>
	<path d="M239.52,293.923h-0.01c-4.142,0-7.495,3.358-7.495,7.5c0,4.143,3.363,7.5,7.505,7.5s7.5-3.357,7.5-7.5
		C247.02,297.282,243.662,293.923,239.52,293.923z"/>
	<path d="M279.52,237.923h-0.01c-4.142,0-7.495,3.358-7.495,7.5s3.363,7.5,7.505,7.5s7.5-3.358,7.5-7.5
		S283.662,237.923,279.52,237.923z"/>
	<path d="M95.52,205.923h-0.01c-4.142,0-7.495,3.358-7.495,7.5s3.363,7.5,7.505,7.5s7.5-3.358,7.5-7.5S99.662,205.923,95.52,205.923
		z"/>
	<path d="M159.52,269.923h-0.01c-4.142,0-7.495,3.358-7.495,7.5c0,4.143,3.363,7.5,7.505,7.5s7.5-3.357,7.5-7.5
		C167.02,273.282,163.662,269.923,159.52,269.923z"/>
	<path d="M207.52,205.923h-0.01c-4.142,0-7.495,3.358-7.495,7.5s3.363,7.5,7.505,7.5s7.5-3.358,7.5-7.5
		S211.662,205.923,207.52,205.923z"/>
	<path d="M71.52,261.923h-0.01c-4.142,0-7.495,3.358-7.495,7.5c0,4.143,3.363,7.5,7.505,7.5s7.5-3.357,7.5-7.5
		C79.02,265.282,75.662,261.923,71.52,261.923z"/>
	<path d="M95.52,293.923h-0.01c-4.142,0-7.495,3.358-7.495,7.5c0,4.143,3.363,7.5,7.505,7.5s7.5-3.357,7.5-7.5
		C103.02,297.282,99.662,293.923,95.52,293.923z"/>
	<path d="M383.521,301.923h-0.01c-4.142,0-7.495,3.358-7.495,7.5c0,4.143,3.363,7.5,7.505,7.5s7.5-3.357,7.5-7.5
		C391.021,305.282,387.663,301.923,383.521,301.923z"/>
	<path d="M383.521,213.923h-0.01c-4.142,0-7.495,3.358-7.495,7.5s3.363,7.5,7.505,7.5s7.5-3.358,7.5-7.5
		S387.663,213.923,383.521,213.923z"/>
	<path d="M319.521,196.923c4.142,0,7.5-3.358,7.5-7.5s-3.358-7.5-7.5-7.5h-0.01c-4.142,0-7.495,3.358-7.495,7.5
		S315.378,196.923,319.521,196.923z"/>
	<path d="M247.52,133.923h-0.01c-4.142,0-7.495,3.358-7.495,7.5s3.363,7.5,7.505,7.5s7.5-3.358,7.5-7.5
		S251.662,133.923,247.52,133.923z"/>
	<path d="M311.5,253.923c-12.958,0-23.5,10.542-23.5,23.5s10.542,23.5,23.5,23.5s23.5-10.542,23.5-23.5
		S324.458,253.923,311.5,253.923z M311.5,285.923c-4.687,0-8.5-3.813-8.5-8.5c0-4.687,3.813-8.5,8.5-8.5s8.5,3.813,8.5,8.5
		C320,282.111,316.187,285.923,311.5,285.923z"/>
	<path d="M159.5,157.923c-12.958,0-23.5,10.542-23.5,23.5s10.542,23.5,23.5,23.5s23.5-10.542,23.5-23.5
		S172.458,157.923,159.5,157.923z M159.5,189.923c-4.687,0-8.5-3.813-8.5-8.5s3.813-8.5,8.5-8.5s8.5,3.813,8.5,8.5
		S164.187,189.923,159.5,189.923z"/>
</g>
<g>
</g>
<g>
</g>
<g>
</g>
<g>
</g>
<g>
</g>
<g>
</g>
<g>
</g>
<g>
</g>
<g>
</g>
<g>
</g>
<g>
</g>
<g>
</g>
<g>
</g>
<g>
</g>
<g>
</g>
</svg>
