<?xml version="1.0" encoding="iso-8859-1"?>
<!-- Generator: Adobe Illustrator 19.0.0, SVG Export Plug-In . SVG Version: 6.00 Build 0)  -->
<svg version="1.1" id="Capa_1" xmlns="http://www.w3.org/2000/svg" xmlns:xlink="http://www.w3.org/1999/xlink" x="0px" y="0px"
	 viewBox="0 0 462.539 462.539" style="enable-background:new 0 0 462.539 462.539;" xml:space="preserve">
<g>
	<path d="M406.907,81.865c-31.6-24.21-75.291-38.096-119.868-38.096c-19.942,0-38.792,2.514-56.025,7.472
		c-0.222,0.064-0.437,0.141-0.648,0.223c-17.957-5.167-36.695-7.695-54.866-7.695c-44.578,0-88.268,13.885-119.868,38.096
		C19.237,109.749,0,148.964,0,195.27c0,66.45,26.788,125.796,75.43,167.107c42.054,35.714,98.691,56.244,155.477,56.386
		c0.044,0.001,0.087,0.007,0.132,0.007c0.077,0,0.154-0.003,0.23-0.003s0.154,0.003,0.23,0.003c0.045,0,0.088-0.006,0.132-0.007
		c56.786-0.142,113.423-20.672,155.477-56.386c48.642-41.311,75.43-100.657,75.43-167.107
		C462.539,148.964,443.302,109.749,406.907,81.865z M377.399,350.944c-39.474,33.523-92.724,52.768-146.129,52.823
		c-53.406-0.055-106.655-19.3-146.129-52.823C39.91,312.53,15,257.244,15,195.27c0-89.613,80.742-136.5,160.5-136.5
		c64.628,0,137.129,34.477,143.59,110.173c2.499,29.291-5.306,55.7-23.203,78.596c-3.187-1.497-6.591-2.583-10.155-3.195
		c-16.471-2.833-30.128-7.515-41.195-13.396c18.263-15.869,27.551-36.49,25.728-57.834c-2.776-32.525-33.155-65.343-94.766-65.343
		c-12.009,0-42.891,1.686-70.209,17.307C78.278,140.523,64,164.795,64,195.27c0,103.35,85.886,159.226,166.915,159.494
		c0.042,0,0.083,0.006,0.125,0.006c0.076,0,0.151-0.002,0.227-0.003c0.078,0,0.156,0.003,0.234,0.003
		c0.044,0,0.086-0.006,0.13-0.007c41.617-0.139,82.897-14.97,113.342-40.747c24.438-20.691,53.568-58.089,53.568-118.746
		c0-25.271-9.5-45.878-28.236-61.249c-17.687-14.51-39.711-20.898-55.415-23.716c-14.207-21.971-34.994-38.263-58.638-49.225
		c9.848-1.52,20.132-2.311,30.789-2.311c79.758,0,160.5,46.887,160.5,136.5C447.539,257.244,422.629,312.53,377.399,350.944z
		 M231.27,339.767C157.409,339.662,79,289.028,79,195.27c0-25.136,11.351-44.371,33.737-57.172c7.625-4.36,16.636-7.911,26.302-10.5
		c-5.771,12.823-9.373,26.455-10.535,40.07c-3.005,35.213,7.531,64.952,26.024,88.782c-8.204,8.915-12.048,21.348-9.955,33.512
		c1.786,10.399,7.516,19.48,16.135,25.568c6.742,4.762,14.619,7.248,22.709,7.248c2.249,0,4.515-0.192,6.776-0.58
		c14.015-2.41,27.808-6.22,41.057-11.301c13.411,5.143,27.293,8.927,41.098,11.301c2.253,0.387,4.493,0.574,6.707,0.574
		c18.87,0,35.612-13.602,38.911-32.807c1.789-10.397-0.579-20.869-6.667-29.486c-1.021-1.444-2.132-2.8-3.313-4.078
		c19.834-25.64,28.83-56.162,26.051-88.732c-1.252-14.664-4.663-27.952-9.815-39.904c11.895,3.233,25.375,8.672,36.569,17.855
		c15.096,12.384,22.75,29.089,22.75,49.651C383.539,289.028,305.13,339.662,231.27,339.767z M231.283,222.425
		c-17.984-13.977-25.451-31.807-24.065-48.037c1.254-14.697,9.953-28.157,24.031-37.433c15.033,9.874,22.897,23.684,24.07,37.433
		C256.828,192.044,248.11,209.344,231.283,222.425z M192.273,173.112c-2.948,34.523,24.021,74.509,90.917,86.015
		c3.569,0.613,6.885,1.978,9.777,3.978c0.191,0.152,0.386,0.293,0.586,0.423c2.093,1.542,3.95,3.421,5.494,5.605
		c3.776,5.345,5.245,11.84,4.135,18.29c-2.286,13.31-14.978,22.279-28.294,19.992c-67.999-11.691-138.134-60.011-131.439-138.471
		c1.321-15.474,6.261-31.002,14.29-45.016c5.895-0.754,11.859-1.157,17.761-1.157c16.075,0,29.613,2.474,40.724,6.643
		C202.263,140.917,193.706,156.325,192.273,173.112z M164.438,267.906c13.221,13.75,29.228,25.125,46.635,34.015
		c-7.689,2.285-15.516,4.133-23.422,5.492c-6.45,1.107-12.945-0.361-18.29-4.136c-5.345-3.775-8.898-9.406-10.006-15.857
		C158.155,280.438,160.109,273.314,164.438,267.906z"/>
	<path d="M362.895,83.629c-5.616-2.546-11.522-4.83-17.556-6.789c-3.942-1.28-8.171,0.877-9.45,4.817
		c-1.279,3.939,0.877,8.17,4.817,9.449c5.505,1.787,10.887,3.868,15.996,6.184c1.005,0.456,2.057,0.671,3.092,0.671
		c2.854,0,5.581-1.638,6.835-4.406C368.339,89.784,366.667,85.339,362.895,83.629z"/>
	<path d="M232.65,268.669c1.026,0.479,2.106,0.707,3.169,0.707c2.823,0,5.527-1.601,6.8-4.328c1.753-3.753,0.131-8.216-3.621-9.969
		c-20.345-9.503-36.133-23.188-45.658-39.576c-2.082-3.582-6.674-4.797-10.253-2.716c-3.582,2.082-4.797,6.672-2.716,10.253
		C191.442,242.087,209.52,257.865,232.65,268.669z"/>
	<path d="M390.953,100.16c-3.308-2.492-8.011-1.831-10.503,1.477c-2.492,3.308-1.831,8.01,1.477,10.503
		c27.223,20.511,41.612,49.257,41.612,83.129c0,4.142,3.358,7.5,7.5,7.5s7.5-3.358,7.5-7.5
		C438.539,156.505,422.084,123.616,390.953,100.16z"/>
	<path d="M261.013,278.847c5.799,1.54,11.894,2.862,18.113,3.932c0.431,0.074,0.858,0.109,1.28,0.109
		c3.584,0,6.754-2.578,7.383-6.229c0.702-4.082-2.038-7.961-6.12-8.663c-5.783-0.994-11.438-2.222-16.809-3.647
		c-4-1.062-8.11,1.321-9.173,5.325C254.625,273.678,257.009,277.785,261.013,278.847z"/>
</g>
<g>
</g>
<g>
</g>
<g>
</g>
<g>
</g>
<g>
</g>
<g>
</g>
<g>
</g>
<g>
</g>
<g>
</g>
<g>
</g>
<g>
</g>
<g>
</g>
<g>
</g>
<g>
</g>
<g>
</g>
</svg>
