<?xml version="1.0" encoding="iso-8859-1"?>
<!-- Generator: Adobe Illustrator 19.0.0, SVG Export Plug-In . SVG Version: 6.00 Build 0)  -->
<svg version="1.1" id="Capa_1" xmlns="http://www.w3.org/2000/svg" xmlns:xlink="http://www.w3.org/1999/xlink" x="0px" y="0px"
	 viewBox="0 0 463.15 463.15" style="enable-background:new 0 0 463.15 463.15;" xml:space="preserve">
<g>
	<path d="M447.031,155.559c-11.702-29.365-29.143-55.761-51.836-78.454C351.471,33.381,293.336,9.3,231.5,9.3
		S111.529,33.381,67.805,77.105S0,178.965,0,240.801s24.08,119.971,67.805,163.695c31.578,31.579,76.136,49.355,119.281,49.354
		c12.987,0,25.849-1.611,38.187-4.941c10.725,1.883,21.759,2.866,33.015,2.866c46.09,0,105.94-26.244,132.922-50.755
		c44.907-40.795,70.432-96.399,71.875-156.572C463.814,214.026,458.413,184.12,447.031,155.559z M448.089,244.088
		c-1.343,56.03-25.125,107.819-66.965,145.828c-24.397,22.163-80.844,46.858-122.836,46.858
		c-96.689,0-175.352-78.663-175.352-175.352c0-76.525,62.257-138.782,138.782-138.782c60.393,0,109.525,49.133,109.525,109.526
		c0,47.487-38.633,86.12-86.12,86.12c-37.163,0-67.396-30.234-67.396-67.396c0-28.903,23.514-52.417,52.417-52.417
		c4.142,0,7.5-3.358,7.5-7.5s-3.358-7.5-7.5-7.5c-37.174,0-67.417,30.243-67.417,67.417c0,45.433,36.963,82.396,82.396,82.396
		c55.758,0,101.12-45.363,101.12-101.12c0-68.664-55.862-124.526-124.525-124.526c-84.795,0-153.782,68.986-153.782,153.782
		c0,80.668,50.434,149.775,121.431,177.444c-39.916,0.709-81.567-15.588-110.956-44.977C37.52,352.998,15,298.63,15,240.801
		S37.52,128.603,78.411,87.712C119.303,46.82,173.671,24.3,231.5,24.3c57.83,0,112.197,22.52,153.089,63.411
		c21.244,21.244,37.564,45.94,48.508,73.4C443.726,187.783,448.77,215.7,448.089,244.088z"/>
	<path d="M340.29,73.497c-5.678-3.708-11.604-7.156-17.614-10.25c-3.684-1.896-8.206-0.447-10.101,3.235
		c-1.896,3.683-0.448,8.205,3.235,10.101c5.554,2.859,11.031,6.047,16.279,9.474c1.266,0.826,2.687,1.221,4.094,1.221
		c2.448,0,4.848-1.198,6.287-3.4C344.734,80.409,343.758,75.761,340.29,73.497z"/>
	<path d="M368.449,95.727c-3.01-2.846-7.757-2.712-10.602,0.297c-2.846,3.01-2.713,7.757,0.297,10.603
		c1.281,1.211,2.565,2.46,3.817,3.712c32.457,32.457,52.151,76.772,54.033,121.582c0.169,4.031,3.49,7.185,7.488,7.185
		c0.106,0,0.213-0.002,0.32-0.007c4.138-0.174,7.352-3.67,7.178-7.808c-2.068-49.236-22.813-95.958-58.414-131.559
		C371.217,98.381,369.832,97.034,368.449,95.727z"/>
	<path d="M195.008,390.347c-35.958-17.937-63.055-50.269-74.343-88.704c-1.167-3.974-5.337-6.251-9.31-5.083
		c-3.975,1.167-6.25,5.335-5.083,9.31c12.459,42.424,42.362,78.106,82.04,97.9c1.075,0.536,2.217,0.79,3.342,0.79
		c2.753,0,5.405-1.522,6.717-4.154C200.221,396.7,198.715,392.196,195.008,390.347z"/>
	<path d="M108.461,280.971c4.128-0.341,7.198-3.964,6.857-8.092c-0.33-3.99-0.497-8.054-0.497-12.079
		c0-1.279,0.017-2.554,0.05-3.825c0.107-4.141-3.162-7.584-7.303-7.692c-4.152-0.117-7.585,3.162-7.692,7.303
		c-0.036,1.4-0.055,2.805-0.055,4.214c0,4.436,0.184,8.915,0.547,13.313c0.324,3.918,3.604,6.883,7.466,6.883
		C108.043,280.997,108.251,280.989,108.461,280.971z"/>
</g>
<g>
</g>
<g>
</g>
<g>
</g>
<g>
</g>
<g>
</g>
<g>
</g>
<g>
</g>
<g>
</g>
<g>
</g>
<g>
</g>
<g>
</g>
<g>
</g>
<g>
</g>
<g>
</g>
<g>
</g>
</svg>
