<svg width="464" height="464" viewBox="0 0 464 464" fill="none" xmlns="http://www.w3.org/2000/svg">
<path d="M249.05 157.511L262.726 173.089L60.6765 342.848C54.6459 347.915 50.9962 355.03 50.4002 362.883C49.8041 370.736 52.3382 378.323 57.5346 384.241C62.7309 390.16 69.9242 393.654 77.789 394.079C85.6537 394.505 93.1814 391.807 98.9858 386.482L293.468 208.103L307.144 223.68C317.88 235.909 336.565 237.123 348.794 226.387L413.417 169.65C423.343 160.935 426.266 146.542 420.527 134.645L380.813 52.3397C379.621 49.8693 378.125 47.6179 376.373 45.6227C372.184 40.8509 366.535 37.5481 360.107 36.2425C350.991 34.3909 341.752 36.8488 334.761 42.9866L251.757 115.862C239.528 126.598 238.313 145.282 249.05 157.511ZM78.5993 379.101C74.7969 378.896 71.319 377.206 68.8066 374.345C66.2943 371.483 65.0693 367.816 65.3579 364.019C65.6464 360.222 67.4104 356.782 70.3261 354.333L237.584 213.805L249.84 227.765L88.8476 375.429C86.0409 378.002 82.4011 379.307 78.5993 379.101ZM249.071 204.153L300.746 160.737C303.832 158.145 308.505 158.5 311.201 161.57C313.86 164.599 313.606 169.278 310.637 172.002L260.897 217.624L249.071 204.153ZM344.657 54.2594C348.095 51.241 352.638 50.0325 357.12 50.9424C361.603 51.853 365.315 54.738 367.303 58.8587L407.016 141.165C409.839 147.014 408.402 154.092 403.521 158.377L338.897 215.115C332.884 220.394 323.695 219.797 318.416 213.784L304.525 197.961L320.775 183.056C329.709 174.861 330.47 160.784 322.435 151.631C314.437 142.521 300.379 141.454 291.097 149.253L274.214 163.438L260.323 147.616C255.043 141.602 255.641 132.414 261.654 127.134L344.658 54.2601L344.657 54.2594Z" fill="black"/>
<path d="M85.3466 359.823C84.0468 358.343 82.1657 357.413 80.2041 357.285C78.2284 357.157 76.2502 357.829 74.7623 359.136C73.2819 360.435 72.3594 362.31 72.231 364.286C72.096 366.254 72.7747 368.239 74.0745 369.72C75.3742 371.2 77.2553 372.13 79.2245 372.251C81.2002 372.38 83.1783 371.707 84.6587 370.408C86.1467 369.101 87.0692 367.227 87.1976 365.251C87.3251 363.289 86.6463 361.304 85.3466 359.823Z" fill="black"/>
</svg>
