<?xml version="1.0" encoding="iso-8859-1"?>
<!-- Generator: Adobe Illustrator 19.0.0, SVG Export Plug-In . SVG Version: 6.00 Build 0)  -->
<svg version="1.1" id="Capa_1" xmlns="http://www.w3.org/2000/svg" xmlns:xlink="http://www.w3.org/1999/xlink" x="0px" y="0px"
	 viewBox="0 0 463 463" style="enable-background:new 0 0 463 463;" xml:space="preserve">
<g>
	<path d="M277.226,325.198l-22.787-15.192l6.094-280.335c0.171-7.875-2.768-15.312-8.276-20.941S239.376,0,231.5,0
		s-15.248,3.1-20.756,8.73c-5.508,5.629-8.448,13.066-8.276,20.941l6.094,280.337l-22.786,15.19
		c-7.31,4.872-11.673,13.025-11.673,21.81v21.172c0,6.252,4.202,11.531,9.927,13.188V455.5c0,4.142,3.358,7.5,7.5,7.5
		s7.5-3.358,7.5-7.5v-73.584h11.647V455.5c0,4.142,3.358,7.5,7.5,7.5s7.5-3.358,7.5-7.5v-73.584h11.647V455.5
		c0,4.142,3.358,7.5,7.5,7.5s7.5-3.358,7.5-7.5v-73.584h11.647V455.5c0,4.142,3.358,7.5,7.5,7.5s7.5-3.358,7.5-7.5v-74.133
		c5.725-1.657,9.927-6.936,9.927-13.188v-21.172C288.898,338.224,284.535,330.071,277.226,325.198z M221.465,19.221
		C224.128,16.499,227.692,15,231.5,15c3.808,0,7.372,1.499,10.035,4.221s4.084,6.317,4.001,10.124l-5.982,275.2h-16.108
		l-5.982-275.2C217.381,25.538,218.802,21.942,221.465,19.221z M189.103,347.008c0-3.757,1.867-7.245,4.993-9.329l27.204-18.135
		h20.405l27.201,18.134c3.126,2.084,4.992,5.572,4.992,9.329v19.909h-84.795V347.008z"/>
	<path d="M231.502,37.01c1.97,0,3.91-0.8,5.3-2.19c1.4-1.4,2.2-3.33,2.2-5.31c0-1.97-0.8-3.9-2.2-5.3c-1.39-1.4-3.33-2.2-5.3-2.2
		c-1.98,0-3.91,0.8-5.31,2.2c-1.39,1.4-2.19,3.33-2.19,5.3c0,1.98,0.8,3.91,2.19,5.31C227.592,36.21,229.522,37.01,231.502,37.01z"
		/>
</g>
<g>
</g>
<g>
</g>
<g>
</g>
<g>
</g>
<g>
</g>
<g>
</g>
<g>
</g>
<g>
</g>
<g>
</g>
<g>
</g>
<g>
</g>
<g>
</g>
<g>
</g>
<g>
</g>
<g>
</g>
</svg>
