<svg width="463" height="463" viewBox="0 0 463 463" fill="none" xmlns="http://www.w3.org/2000/svg">
<path d="M271.704 139.642C279.906 148.836 279.098 162.989 269.904 171.191L60.3137 358.162C52.3163 365.298 51.6134 377.609 58.749 385.608C65.8845 393.607 78.1958 394.308 86.1938 387.173L295.784 200.202C304.978 192 319.132 192.808 327.334 202.002C332.278 207.544 340.808 208.031 346.351 203.086L399.801 155.404C422.537 135.123 424.533 100.127 404.252 77.3923C383.971 54.6577 348.975 52.6616 326.24 72.9432L272.79 120.625C267.247 125.568 266.76 134.1 271.704 139.642ZM336.225 84.1353C352.788 69.3602 378.283 70.8137 393.058 87.3762C407.833 103.939 406.379 129.434 389.816 144.209L337.485 190.893C323.646 176.591 300.782 175.641 285.799 189.007L76.2078 375.979C74.3818 377.608 71.5706 377.448 69.9417 375.622C68.3127 373.796 68.4731 370.985 70.2991 369.356L279.889 182.385C294.874 169.017 296.529 146.195 283.893 130.82L336.225 84.1353V84.1353Z" fill="black"/>
<path d="M352.348 100.361C353.22 104.41 357.209 106.986 361.259 106.114C364.173 105.487 367.209 106.47 369.18 108.679C371.937 111.77 376.678 112.04 379.769 109.283C382.86 106.526 383.131 101.785 380.373 98.6938C374.815 92.4635 366.281 89.6884 358.101 91.45C354.051 92.3224 351.475 96.3117 352.348 100.361Z" fill="black"/>
<path d="M319.211 142.195L339.433 124.156C342.524 121.399 342.794 116.658 340.037 113.567C337.279 110.476 332.538 110.206 329.447 112.963L309.225 131.002C306.134 133.76 305.864 138.501 308.621 141.592C311.379 144.683 316.121 144.952 319.211 142.195Z" fill="black"/>
</svg>
