<?xml version="1.0" encoding="iso-8859-1"?>
<!-- Generator: Adobe Illustrator 19.0.0, SVG Export Plug-In . SVG Version: 6.00 Build 0)  -->
<svg version="1.1" id="Capa_1" xmlns="http://www.w3.org/2000/svg" xmlns:xlink="http://www.w3.org/1999/xlink" x="0px" y="0px"
	 viewBox="0 0 447 447" style="enable-background:new 0 0 447 447;" xml:space="preserve">
<g>
	<path d="M439.5,304H439V135.5c0-39.425-32.075-71.5-71.5-71.5H231V53.765c9.29-3.138,16-11.93,16-22.266
		C247,18.542,236.458,8,223.5,8S200,18.542,200,31.5c0,10.336,6.71,19.128,16,22.266V64H79.5C40.075,64,8,96.074,8,135.5V304H7.5
		c-4.142,0-7.5,3.358-7.5,7.5v8C0,336.869,14.131,351,31.5,351h144.256c-1.096,14.936-6.733,49.742-34.894,73H127.5
		c-4.142,0-7.5,3.358-7.5,7.5s3.358,7.5,7.5,7.5h15.997c0.003,0,0.006,0,0.009,0c0.002,0,0.004,0,0.006,0h159.992
		c0.002,0,0.004,0,0.006,0c0.003,0,0.006,0,0.009,0H319.5c4.142,0,7.5-3.358,7.5-7.5s-3.358-7.5-7.5-7.5h-13.347
		c-28.037-23.168-33.74-58.044-34.874-73H415.5c17.369,0,31.5-14.131,31.5-31.5v-8C447,307.358,443.643,304,439.5,304z M223.5,23
		c4.687,0,8.5,3.813,8.5,8.5s-3.813,8.5-8.5,8.5s-8.5-3.813-8.5-8.5S218.813,23,223.5,23z M23,135.5C23,104.345,48.346,79,79.5,79
		h288c31.154,0,56.5,25.346,56.5,56.5V304h-17V135.5c0-21.78-17.72-39.5-39.5-39.5h-288C57.72,96,40,113.719,40,135.5V304H23V135.5z
		 M55,304v-17h337v17H55z M55,198.975c0.167,0.011,0.333,0.025,0.5,0.025c1.97,0,3.91-0.8,5.3-2.2c1.4-1.39,2.2-3.32,2.2-5.3
		c0-1.97-0.8-3.91-2.2-5.3c-1.39-1.4-3.33-2.2-5.3-2.2c-0.167,0-0.333,0.014-0.5,0.025v-17.051c0.166,0.011,0.331,0.025,0.5,0.025
		c9.607,0,18.218-4.328,24-11.131c5.782,6.803,14.393,11.131,24,11.131s18.218-4.328,24-11.131c5.782,6.803,14.393,11.131,24,11.131
		s18.218-4.328,24-11.131c5.782,6.803,14.393,11.131,24,11.131s18.218-4.328,24-11.131c5.782,6.803,14.393,11.131,24,11.131
		s18.218-4.328,24-11.131c5.782,6.803,14.393,11.131,24,11.131c9.607,0,18.218-4.328,24-11.131c5.782,6.803,14.393,11.131,24,11.131
		s18.218-4.328,24-11.131c5.782,6.803,14.393,11.131,24,11.131c0.169,0,0.334-0.014,0.5-0.025v17.051
		c-0.167-0.011-0.333-0.025-0.5-0.025c-1.97,0-3.91,0.8-5.3,2.2c-1.4,1.39-2.2,3.33-2.2,5.3c0,1.98,0.8,3.91,2.2,5.3
		c1.39,1.4,3.33,2.2,5.3,2.2c0.167,0,0.334-0.014,0.5-0.025v33.056c-0.205-0.017-0.41-0.031-0.62-0.031
		c-8.274,0-12.836,3.039-16.168,5.258c-2.654,1.768-4.117,2.742-7.853,2.742c-3.734,0-5.195-0.974-7.849-2.742
		c-3.331-2.219-7.893-5.258-16.166-5.258c-8.273,0-12.834,3.04-16.165,5.259c-2.653,1.768-4.114,2.741-7.847,2.741
		c-3.724,0-5.183-0.973-7.83-2.739c-3.328-2.22-7.886-5.261-16.154-5.261c-8.273,0-12.834,3.04-16.165,5.259
		c-2.653,1.768-4.114,2.741-7.848,2.741s-5.195-0.974-7.848-2.741c-3.331-2.219-7.892-5.259-16.165-5.259
		c-8.271,0-12.832,3.04-16.161,5.259c-2.651,1.767-4.111,2.741-7.841,2.741c-3.726,0-5.185-0.973-7.833-2.74
		c-3.329-2.22-7.888-5.26-16.157-5.26c-8.271,0-12.832,3.04-16.162,5.259c-2.651,1.767-4.112,2.741-7.843,2.741
		c-3.723,0-5.181-0.973-7.828-2.739c-3.328-2.22-7.886-5.261-16.154-5.261c-8.27,0-12.829,3.04-16.158,5.26
		c-2.65,1.767-4.109,2.74-7.837,2.74c-3.718,0-5.175-0.972-7.819-2.738c-3.327-2.221-7.882-5.262-16.148-5.262
		c-8.27,0-12.829,3.04-16.158,5.26c-2.649,1.767-4.109,2.74-7.836,2.74c-3.718,0-5.175-0.972-7.819-2.738
		C68.242,235.042,63.687,232,55.421,232c-0.142,0-0.281,0.013-0.421,0.021V198.975z M392,152.025
		c-0.166-0.011-0.331-0.025-0.5-0.025c-9.098,0-16.5-7.402-16.5-16.5c0-4.142-3.358-7.5-7.5-7.5s-7.5,3.358-7.5,7.5
		c0,9.098-7.402,16.5-16.5,16.5s-16.5-7.402-16.5-16.5c0-4.142-3.358-7.5-7.5-7.5s-7.5,3.358-7.5,7.5c0,9.098-7.402,16.5-16.5,16.5
		c-9.098,0-16.5-7.402-16.5-16.5c0-4.142-3.358-7.5-7.5-7.5s-7.5,3.358-7.5,7.5c0,9.098-7.402,16.5-16.5,16.5s-16.5-7.402-16.5-16.5
		c0-4.142-3.358-7.5-7.5-7.5s-7.5,3.358-7.5,7.5c0,9.098-7.402,16.5-16.5,16.5s-16.5-7.402-16.5-16.5c0-4.142-3.358-7.5-7.5-7.5
		s-7.5,3.358-7.5,7.5c0,9.098-7.402,16.5-16.5,16.5s-16.5-7.402-16.5-16.5c0-4.142-3.358-7.5-7.5-7.5s-7.5,3.358-7.5,7.5
		c0,9.098-7.402,16.5-16.5,16.5S87,144.598,87,135.5c0-4.142-3.358-7.5-7.5-7.5s-7.5,3.358-7.5,7.5c0,9.098-7.402,16.5-16.5,16.5
		c-0.169,0-0.334,0.014-0.5,0.025V135.5C55,121.99,65.991,111,79.5,111h288c13.509,0,24.5,10.991,24.5,24.5V152.025z M55,246.979
		c0.14,0.008,0.279,0.021,0.421,0.021c3.718,0,5.175,0.972,7.819,2.738c3.326,2.221,7.882,5.262,16.147,5.262
		c8.27,0,12.829-3.04,16.158-5.26c2.649-1.767,4.109-2.74,7.836-2.74c3.719,0,5.175,0.973,7.82,2.738
		c3.327,2.221,7.882,5.262,16.147,5.262c8.27,0,12.83-3.04,16.159-5.26c2.65-1.767,4.109-2.74,7.837-2.74
		c3.724,0,5.182,0.973,7.829,2.739c3.328,2.221,7.886,5.261,16.153,5.261c8.271,0,12.832-3.04,16.162-5.259
		c2.651-1.767,4.112-2.741,7.843-2.741c3.726,0,5.185,0.973,7.833,2.74c3.329,2.22,7.888,5.26,16.157,5.26
		c8.271,0,12.832-3.04,16.161-5.259c2.651-1.767,4.111-2.741,7.841-2.741c3.733,0,5.194,0.974,7.847,2.741
		c3.331,2.219,7.892,5.259,16.165,5.259s12.834-3.04,16.165-5.259c2.653-1.768,4.114-2.741,7.848-2.741
		c3.724,0,5.183,0.973,7.83,2.739c3.328,2.22,7.886,5.261,16.154,5.261c8.273,0,12.834-3.04,16.165-5.259
		c2.653-1.768,4.114-2.741,7.847-2.741c3.734,0,5.196,0.974,7.849,2.742c3.331,2.219,7.893,5.258,16.166,5.258
		c8.274,0,12.837-3.039,16.168-5.258c2.654-1.768,4.117-2.742,7.853-2.742c0.209,0,0.415-0.014,0.62-0.031V272H55V246.979z
		 M284.698,424h-122.38c22.939-26.221,27.609-58.412,28.501-73h65.377C257.089,365.588,261.758,397.779,284.698,424z M432,319.5
		c0,9.098-7.402,16.5-16.5,16.5h-384c-9.098,0-16.5-7.402-16.5-16.5V319h417V319.5z"/>
	<path d="M228.59,377.45c2.428,9.08,5.746,17.68,9.86,25.561c1.338,2.563,3.95,4.03,6.655,4.03c1.169,0,2.356-0.274,3.465-0.853
		c3.672-1.917,5.094-6.448,3.177-10.12c-3.606-6.907-6.522-14.476-8.666-22.494c-1.07-4.002-5.182-6.378-9.183-5.308
		C229.896,369.338,227.52,373.449,228.59,377.45z"/>
	<path d="M103.5,199c1.97,0,3.91-0.8,5.3-2.2c1.4-1.39,2.2-3.33,2.2-5.3c0-1.97-0.8-3.91-2.2-5.3c-1.39-1.4-3.33-2.2-5.3-2.2
		c-1.97,0-3.91,0.8-5.3,2.2c-1.4,1.39-2.2,3.33-2.2,5.3c0,1.98,0.8,3.91,2.2,5.3C99.59,198.2,101.53,199,103.5,199z"/>
	<path d="M151.5,199c1.97,0,3.91-0.8,5.3-2.2c1.4-1.39,2.2-3.32,2.2-5.3c0-1.97-0.8-3.91-2.2-5.3c-1.39-1.4-3.33-2.2-5.3-2.2
		c-1.97,0-3.91,0.8-5.3,2.2c-1.4,1.39-2.2,3.33-2.2,5.3c0,1.97,0.8,3.91,2.2,5.3C147.59,198.2,149.53,199,151.5,199z"/>
	<path d="M199.5,199c1.97,0,3.91-0.8,5.3-2.2c1.4-1.39,2.2-3.33,2.2-5.3c0-1.97-0.8-3.91-2.2-5.3c-1.39-1.4-3.33-2.2-5.3-2.2
		c-1.97,0-3.91,0.8-5.3,2.2c-1.4,1.39-2.2,3.33-2.2,5.3c0,1.98,0.8,3.91,2.2,5.3C195.59,198.2,197.53,199,199.5,199z"/>
	<path d="M247.5,199c1.97,0,3.91-0.8,5.3-2.2c1.4-1.39,2.2-3.32,2.2-5.3c0-1.97-0.8-3.91-2.2-5.3c-1.39-1.4-3.33-2.2-5.3-2.2
		c-1.97,0-3.91,0.8-5.3,2.2c-1.4,1.39-2.2,3.33-2.2,5.3c0,1.97,0.8,3.91,2.2,5.3C243.59,198.2,245.53,199,247.5,199z"/>
	<path d="M295.5,199c1.97,0,3.91-0.8,5.3-2.2c1.4-1.39,2.2-3.33,2.2-5.3c0-1.97-0.8-3.91-2.2-5.3c-1.39-1.4-3.33-2.2-5.3-2.2
		c-1.97,0-3.91,0.8-5.3,2.2c-1.4,1.39-2.2,3.33-2.2,5.3c0,1.97,0.8,3.91,2.2,5.3C291.59,198.2,293.53,199,295.5,199z"/>
	<path d="M343.5,199c1.97,0,3.91-0.8,5.3-2.2c1.4-1.39,2.2-3.33,2.2-5.3c0-1.97-0.8-3.91-2.2-5.3c-1.39-1.4-3.32-2.2-5.3-2.2
		c-1.97,0-3.91,0.8-5.3,2.2c-1.4,1.39-2.2,3.33-2.2,5.3c0,1.97,0.8,3.91,2.2,5.3C339.59,198.2,341.53,199,343.5,199z"/>
</g>
<g>
</g>
<g>
</g>
<g>
</g>
<g>
</g>
<g>
</g>
<g>
</g>
<g>
</g>
<g>
</g>
<g>
</g>
<g>
</g>
<g>
</g>
<g>
</g>
<g>
</g>
<g>
</g>
<g>
</g>
</svg>
