<svg width="325" height="105" viewBox="0 0 325 105" fill="none" xmlns="http://www.w3.org/2000/svg">
<g clip-path="url(#clip0)">
<path d="M3.46997 3.16998H91.1H181.27C181.27 53.22 181.27 84.51 181.27 97.02C181.27 99.84 178.99 102.13 176.16 102.13C141.62 102.13 42.8 102.13 8.18997 102.13C5.57997 102.13 3.46997 100.02 3.46997 97.42C3.46997 84.85 3.46997 53.43 3.46997 3.16998Z" stroke="black" stroke-width="10"/>
<path d="M170.99 25.96C171.88 25.96 172.61 26.69 172.61 27.58C172.61 40.61 172.61 78.04 172.61 91.06C172.61 91.96 171.88 92.69 170.99 92.69C170.29 92.69 169.84 92.69 169.15 92.69C168.25 92.69 167.52 91.96 167.52 91.06C167.52 78.04 167.52 40.61 167.52 27.58C167.52 26.69 168.25 25.96 169.15 25.96C169.84 25.96 170.29 25.96 170.99 25.96Z" fill="black"/>
<path d="M172.32 10.79C172.48 10.79 172.61 10.92 172.61 11.08C172.61 13.43 172.61 20.19 172.61 22.54C172.61 22.7 172.48 22.83 172.32 22.83C171.36 22.83 168.77 22.83 167.81 22.83C167.65 22.83 167.52 22.7 167.52 22.54C167.52 20.19 167.52 13.43 167.52 11.08C167.52 10.92 167.65 10.79 167.81 10.79C168.77 10.79 171.36 10.79 172.32 10.79Z" fill="black"/>
<path d="M180 28L199.846 24L248.45 16.5L293.813 13L325 16.5V30.5L293.813 28L268.701 30.5L248.45 33.5L225.768 38.5L199.846 46.5L180 58V28Z" fill="black"/>
</g>
<defs>
<clipPath id="clip0">
<rect width="325" height="105" fill="white"/>
</clipPath>
</defs>
</svg>
