<svg width="467" height="455" viewBox="0 0 467 455" fill="none" xmlns="http://www.w3.org/2000/svg">
<rect x="283.398" y="13.3315" width="269" height="348.744" rx="34" transform="rotate(50.747 283.398 13.3315)" stroke="black" stroke-width="18"/>
<path d="M382.199 78.526C390.753 71.5369 403.352 72.805 410.341 81.3583L412.24 83.6814C419.229 92.2347 417.961 104.834 409.407 111.823L393.689 124.667C385.136 131.656 372.536 130.388 365.547 121.835L363.649 119.512C356.66 110.958 357.928 98.3586 366.481 91.3695L382.199 78.526Z" fill="black"/>
<line y1="-3.5" x2="96.2297" y2="-3.5" transform="matrix(-0.999097 -0.0424883 -0.138634 -0.990344 324.612 155.284)" stroke="black" stroke-width="7"/>
<line y1="-3.5" x2="173.946" y2="-3.5" transform="matrix(-0.999307 -0.0372123 -0.143296 -0.98968 335.217 196.982)" stroke="black" stroke-width="7"/>
<line y1="-3.5" x2="183.433" y2="-3.5" transform="matrix(-0.999783 -0.020832 -0.157638 -0.987497 311.407 243.558)" stroke="black" stroke-width="7"/>
<path d="M283.752 294.566L133.489 288.21" stroke="black" stroke-width="7"/>
</svg>
