<svg id="Capa_1" enable-background="new 0 0 512.04 512.04" height="512" viewBox="0 0 512.04 512.04" width="512" xmlns="http://www.w3.org/2000/svg"><g><g><path d="m205.462 395.288c.078-4.142-3.216-7.562-7.357-7.64-4.114-.076-7.562 3.216-7.64 7.357-.391 20.682-.171 42.222.645 64.135h-104.687c-19.186-78.723 9.436-155.933 9.733-156.718.025-.065.049-.132.072-.198 19.586-56.303 23.761-88.716 23.932-90.09 1.536-12.643-2.766-25.661-12.442-37.649-7.29-9.018-11.205-20.271-11.024-31.682.833-50.782 12.26-93.313 18.997-114.144 2.756-8.511 10.946-14.114 19.911-13.63l29.554 1.592c4.139.219 7.67-2.95 7.893-7.086s-2.95-7.669-7.086-7.893l-29.553-1.591c-15.75-.847-30.142 9.012-34.992 23.992-8.544 26.419-18.901 68.426-19.723 118.519-.236 14.922 4.863 29.608 14.354 41.349 7.168 8.881 10.271 17.769 9.224 26.389-.04.317-4.208 32.342-23.179 86.903-1.793 4.762-31.812 86.708-8.725 171.409.612 2.247 3.347 11.156 4.086 13.318 1.446 4.235 3.01 8.4 4.688 12.461 4.429 10.721 14.739 17.648 26.266 17.648h70.476c7.77 0 15.286-3.24 20.62-8.889 4.772-5.054 7.512-11.741 7.722-18.649 0-.836.023-1.626-.025-2.463-1.653-28.701-2.282-57.982-1.74-86.75zm-16.866 97.565c-2.549 2.7-5.999 4.187-9.713 4.187h-70.476c-5.432 0-10.301-3.288-12.403-8.375-1.97-4.768-3.724-9.628-5.313-14.524h101.065c.007.134.438 8.225.468 8.759.214 3.714-1.074 7.249-3.628 9.953z"/><path d="m338.494 10.864-137.996-7.362c-4.142-.223-7.669 2.95-7.893 7.086-.223 4.136 2.95 7.67 7.086 7.893l108.763 5.857v116.69c-50.813 13.715-78.594 62.871-81.32 67.901-19.41 29.625-31.3 80.338-35.346 150.747-.237 4.135 2.922 7.68 7.058 7.918.146.008.292.012.437.012 3.945 0 7.251-3.081 7.481-7.07 1.796-31.267 5.126-58.367 9.951-81.19h30.171c6.383 0 12.403-2.797 16.517-7.674 4.125-4.89 5.87-11.317 4.789-17.632-3.409-19.917-4.717-49.185-5.217-67.811 12.978-13.338 31.289-27.102 54.372-31.906l22.579-3.593c10.813-1.278 18.942-10.406 18.942-21.317v-97.11c0-11.441-8.949-20.858-20.374-21.439zm-86.557 251.136c-.739.875-2.377 2.345-5.05 2.345h-26.627c5.205-19.703 11.74-35.558 19.584-47.444.134-.203.258-.413.372-.628.087-.164 2.928-5.442 8.34-12.892.766 17.262 2.192 37.655 4.851 53.188.457 2.667-.725 4.548-1.47 5.431zm91.931-132.589c0 3.307-2.479 6.07-5.767 6.428-.123.013-14.647 2.321-14.647 2.321l.001-113.043 14.276.727c3.441.175 6.137 3.012 6.137 6.458z"/><path d="m132.061 47.311c-5.104 16.165-13.696 47.783-13.883 77.921-.031 5.035 2.084 9.861 5.805 13.241 3.262 2.964 7.514 4.59 11.884 4.59.594 0 1.191-.03 1.788-.091l137.319-14.022c9.054-.925 15.881-8.484 15.881-17.585v-58.722c0-9.747-7.93-17.676-17.676-17.676h-124.264c-7.749 0-14.522 4.961-16.854 12.344zm143.793 5.332v58.723c0 1.378-1.034 2.522-2.404 2.662l-137.319 14.022c-1.035.107-1.732-.379-2.06-.678-.336-.306-.899-.978-.893-2.047.182-29.219 9.283-61.133 13.187-73.497.352-1.113 1.376-1.861 2.55-1.861h124.263c1.476 0 2.676 1.201 2.676 2.676z"/><path d="m178.75 107.598c13.176 0 23.896-10.72 23.896-23.896s-10.72-23.896-23.896-23.896-23.896 10.72-23.896 23.896 10.72 23.896 23.896 23.896zm0-32.791c4.905 0 8.896 3.991 8.896 8.896s-3.991 8.896-8.896 8.896-8.896-3.991-8.896-8.896 3.991-8.896 8.896-8.896z"/><path d="m239.353 107.598c13.176 0 23.895-10.72 23.895-23.896s-10.72-23.896-23.895-23.896-23.896 10.72-23.896 23.896 10.72 23.896 23.896 23.896zm0-32.791c4.905 0 8.896 3.991 8.896 8.896s-3.991 8.896-8.896 8.896-8.896-3.991-8.896-8.896 3.991-8.896 8.896-8.896z"/><path d="m421.301 26.89c-3.207-2.623-7.932-2.147-10.554 1.058-2.623 3.207-2.149 7.932 1.058 10.554 13.064 10.684 20.557 26.478 20.557 43.332 0 16.508-7.241 32.093-19.866 42.758-3.164 2.673-3.563 7.405-.89 10.569 1.484 1.756 3.601 2.66 5.733 2.66 1.709 0 3.428-.581 4.836-1.771 16.006-13.521 25.186-33.283 25.186-54.217.001-21.373-9.498-41.399-26.06-54.943z"/><path d="m405.678 57.985c-3.207-2.621-7.931-2.148-10.554 1.059-2.622 3.207-2.148 7.932 1.059 10.554 3.627 2.966 5.708 7.351 5.708 12.029 0 4.582-2.011 8.908-5.516 11.87-3.164 2.673-3.563 7.405-.89 10.569 1.484 1.756 3.601 2.66 5.733 2.66 1.709 0 3.428-.581 4.836-1.771 6.887-5.817 10.836-14.32 10.836-23.329 0-9.197-4.087-17.815-11.212-23.641z"/></g></g></svg>