<svg height="512pt" viewBox="-77 0 512 512" width="512pt" xmlns="http://www.w3.org/2000/svg"><path d="m178.859375 512c69.578125 0 129.117187-27.976562 144.933594-68.4375l.097656-.300781c.058594-.171875.019531-.34375.066406-.519531l.085938.019531 2.53125-9.484375c.105469-.273438.199219-.554688.273437-.839844l15.3125-57.566406c8.683594-3.914063 14.609375-12.179688 15.53125-21.660156v-39.730469c0-.105469.03125-.203125.03125-.304688 0-16.90625-22.1875-29.925781-66.476562-38.847656.773437-1.523437 1.535156-3.054687 2.152344-4.628906l.078124-.242188c.054688-.15625.015626-.3125.058594-.46875l.078125.019531 1.960938-7.324218c.085937-.234375.160156-.476563.222656-.71875l11.714844-44.03125c7.035156-3.402344 11.730469-10.28125 12.339843-18.070313v-31.164062c0-.066407-.039062-.121094-.039062-.1875-.191406-17.726563-28.71875-27.535157-58.847656-32.949219 5.269531-4.980469 9.417968-11.027344 12.164062-17.742188l.0625-.191406c.042969-.125.011719-.253906.046875-.378906.027344-.097656.089844-.171875.113281-.269531l1.410157-5.300781c.125-.316407.234375-.640626.320312-.964844l8.226563-30.847656c6.691406-4.472657 10.882812-11.835938 11.308594-19.875v-25.234376c0-32.808593-103.910157-33.757812-115.757813-33.757812-11.851563 0-115.757813.949219-115.757813 33.757812v25.234376c.425782 8.035156 4.617188 15.402343 11.308594 19.871093l8.222656 30.851563c.085938.3125.1875.617187.308594.917968l1.304688 4.890626c.136718.597656.339844 1.175781.605468 1.726562l-.097656.042969c.128906.328125.316406.644531.453125.96875l.050781.109375c2.6875 6.105468 6.558594 11.613281 11.390626 16.207031-30.089844 5.421875-58.550782 15.226563-58.738282 32.933594 0 .066406-.039062.121093-.039062.1875v31.167969c.609375 7.789062 5.304687 14.667968 12.335937 18.070312l11.71875 44.03125c.050781.203125.125.425781.207031.660156l2.1875 8.074219c.050782.160156.160157.273437.21875.425781l-.054687.027344c.550781 1.40625 1.25 2.773438 1.933594 4.144531-44.070313 8.84375-66.417969 21.902344-66.417969 38.871094 0 .105469.0273438.203125.03125.304687v39.730469c.917969 9.480469 6.84375 17.746094 15.527344 21.65625l15.316406 57.570313c.070312.257812.15625.515625.253906.765625l2.800782 10.359375c.046874.144531.148437.246094.199218.386718l-.050781.019532c15.664063 40.058594 75.203125 68.035156 144.78125 68.035156zm-151.71875-150.15625c-7.96875-4.257812-10.042969-7.644531-10.042969-8.636719v-17.484375c22.128906 12.761719 62.457032 19.824219 101.105469 23.257813.410156.117187.828125.203125 1.25.257812h.097656c.171875 0 .3125-.085937.484375-.097656 21.367188 1.835937 42.109375 2.585937 58.820313 2.585937 16.714843 0 37.457031-.746093 58.820312-2.585937.171875.007813.3125.097656.484375.097656h.101563c.421875-.054687.835937-.140625 1.246093-.257812 38.648438-3.433594 78.980469-10.496094 101.109376-23.257813v17.484375c0 1.199219-2.894532 5.875-15.765626 11.394531-28.96875 12.421876-84.914062 20.136719-145.996093 20.136719s-117.023438-7.714843-146-20.136719c-2.203125-.945312-4.019531-1.851562-5.675781-2.730468zm151.71875 133.089844c-61.675781 0-115.835937-24.011719-128.804687-56.996094l-2.589844-9.695312c-.066406-.226563-.148438-.484376-.25-.742188l-11.605469-43.640625c32.550781 11.15625 85.921875 17.949219 143.25 17.949219s110.699219-6.796875 143.25-17.949219l-11.589844 43.550781c-.097656.273438-.191406.546875-.265625.832032l-2.597656 9.703124c-13.101562 33.03125-67.195312 56.988282-128.796875 56.988282zm-117.136719-291.011719c-5.953125-3.121094-6.796875-5.121094-6.785156-5.0625v-10.507813c18.054688 9.277344 47.917969 14.449219 77.117188 16.980469.207031.015625.386718.121094.597656.121094h.078125c.074219 0 .136719-.042969.214843-.042969 16.289063 1.378906 32.320313 1.953125 45.910157 1.953125 13.585937 0 29.621093-.574219 45.910156-1.953125.074219 0 .136719.042969.214844.042969h.078125c.210937 0 .390625-.105469.597656-.121094 29.195312-2.527343 59.058594-7.699219 77.117188-16.980469v10.3125c-.160157.335938-1.804688 3.328126-11.117188 7.320313-22.296875 9.566406-65.519531 15.507813-112.796875 15.507813-47.28125 0-90.5-5.941407-112.804687-15.507813-1.636719-.703125-2.960938-1.347656-4.15625-1.96875zm18.765625 60.28125-2-7.476563c-.050781-.191406-.117187-.402343-.195312-.617187l-8.117188-30.5c35.449219 9.34375 72.03125 13.703125 108.683594 12.949219 36.652344.753906 73.234375-3.605469 108.683594-12.949219l-8.097657 30.425781c-.085937.230469-.152343.457032-.214843.691406l-1.984375 7.40625c-9.949219 24.960938-51.257813 43.066407-98.386719 43.066407-47.21875 0-88.605469-18.171875-98.371094-42.996094zm43.308594-130.949219c-.199219-.15625-.457031-.210937-.667969-.347656-9.699218-4.289062-17.589844-11.847656-22.285156-21.359375l-1.632812-6.128906c-.082032-.316407-.1875-.625-.304688-.925781l-3.925781-14.726563c27.027343 8.984375 55.402343 13.257813 83.878906 12.632813 28.476563.625 56.847656-3.644532 83.875-12.628907l-3.910156 14.679688c-.125.316406-.230469.640625-.320313.972656l-1.597656 6.003906c-7.960938 19.503907-40.660156 33.640625-78.046875 33.640625-19.015625.308594-37.847656-3.730468-55.0625-11.8125zm17.109375-67.414062c.191406.011718.355469.113281.550781.113281h.0625c.070313 0 .128907-.039063.199219-.039063 17.976562 1.5 33.042969 1.609376 37.140625 1.609376 4.09375 0 19.164063-.113282 37.140625-1.613282.070312 0 .125.039063.195312.039063h.0625c.195313 0 .359376-.097657.554688-.109375 20.777344-1.054688 41.269531-5.332032 60.738281-12.675782v5.832032c0 1.964844-2.367187 5.464844-9 9.398437-17.625 10.449219-51.992187 16.9375-89.691406 16.9375s-72.066406-6.488281-89.6875-16.941406c-6.636719-3.933594-9.003906-7.433594-9.003906-9.398437v-5.828126c19.46875 7.34375 39.957031 11.617188 60.738281 12.671876zm37.953125-48.773438c56.925781 0 92.296875 10.292969 98.234375 16.691406-5.933594 6.410157-41.304688 16.699219-98.234375 16.699219-56.933594 0-92.300781-10.289062-98.234375-16.699219 5.9375-6.398437 41.308594-16.691406 98.234375-16.691406zm-61.746094 131.683594c19.292969 9.105469 40.414063 13.683594 61.746094 13.382812 21.308594.304688 42.402344-4.277343 61.664063-13.398437 48.25 6.152344 61.414062 16.664063 62.269531 18.71875-2.605469 7.972656-47.460938 22.839844-123.933594 22.839844-76.414063 0-121.25-14.839844-123.921875-22.339844v-.042969c.910156-2.554687 14.113281-13.023437 62.175781-19.160156zm-39.65625 140.792969c20.558594 21.121093 58.542969 34.722656 101.402344 34.722656 42.703125 0 80.570313-13.507813 101.257813-34.707031 49.679687 8.882812 60.324218 20.648437 60.515624 23.523437l-.011718.050781v.128907c-.3125 9.460937-55.320313 31.398437-161.761719 31.398437-106.445313 0-161.453125-21.9375-161.761719-31.402344v-.128906l-.011718-.046875c.191406-2.886719 10.890624-14.730469 60.371093-23.539062zm0 0"/><path d="m96.226562 444.175781c-11.382812-3.730469-19.257812-14.125-19.769531-26.09375-.011719-4.710937-3.84375-8.519531-8.558593-8.507812-4.710938.015625-8.519532 3.847656-8.507813 8.558593.519531 19.296876 13.097656 36.195313 31.433594 42.226563 2.917969 1.066406 6.1875.460937 8.53125-1.574219 2.34375-2.039062 3.394531-5.191406 2.742187-8.230468-.648437-3.035157-2.898437-5.480469-5.871094-6.378907zm0 0"/></svg>