<?xml version="1.0" encoding="iso-8859-1"?>
<!-- Generator: Adobe Illustrator 19.0.0, SVG Export Plug-In . SVG Version: 6.00 Build 0)  -->
<svg version="1.1" id="Capa_1" xmlns="http://www.w3.org/2000/svg" xmlns:xlink="http://www.w3.org/1999/xlink" x="0px" y="0px"
	 viewBox="0 0 463 463" style="enable-background:new 0 0 463 463;" xml:space="preserve">
<g>
	<path d="M366.969,79.5v-24c0-30.603-24.892-55.5-55.488-55.5H151.52c-30.596,0-55.488,24.897-55.488,55.5v352
		c0,30.603,24.892,55.5,55.488,55.5h159.961c30.596,0,55.488-24.897,55.488-55.5v-24.002c0-10.334-6.708-19.125-15.996-22.263
		v-19.469c9.288-3.138,15.996-11.93,15.996-22.263v-16.004c0-10.334-6.708-19.125-15.996-22.263v-19.458
		c3.395-1.14,6.508-3.052,9.114-5.659c4.438-4.438,6.882-10.339,6.882-16.616v-16.004c0-10.334-6.708-19.125-15.996-22.263v-19.469
		c9.288-3.138,15.996-11.929,15.996-22.263v-16.005c0-10.334-6.708-19.125-15.996-22.263v-19.47
		C360.261,98.627,366.969,89.835,366.969,79.5z M351.969,159.502c0,4.662-3.773,8.456-8.427,8.494l-167.737-6.991
		c-8.388-0.352-16.336,2.657-22.392,8.466c-6.058,5.81-9.394,13.634-9.394,22.028s3.336,16.218,9.394,22.028
		c5.74,5.505,13.182,8.493,21.081,8.493c0.436,0,0.874-0.009,1.312-0.027l167.739-6.991c4.651,0.038,8.425,3.832,8.425,8.494v16.004
		c0,2.27-0.884,4.405-2.489,6.01c-1.588,1.588-3.693,2.466-5.935,2.484l-167.74-6.991c-8.388-0.353-16.336,2.657-22.392,8.466
		c-6.058,5.81-9.394,13.634-9.394,22.028s3.336,16.218,9.394,22.028c5.74,5.505,13.182,8.493,21.081,8.493
		c0.436,0,0.874-0.009,1.312-0.027l167.739-6.991c4.651,0.038,8.425,3.832,8.425,8.494v16.004c0,4.661-3.772,8.455-8.427,8.494
		l-167.737-6.99c-8.382-0.348-16.336,2.657-22.392,8.466c-6.058,5.811-9.394,13.634-9.394,22.029s3.336,16.218,9.394,22.028
		c5.74,5.505,13.182,8.493,21.081,8.493c0.436,0,0.874-0.009,1.312-0.027l167.739-6.991c4.651,0.038,8.425,3.832,8.425,8.494V407.5
		c0,22.332-18.163,40.5-40.488,40.5H151.52c-22.325,0-40.488-18.168-40.488-40.5v-352c0-22.332,18.163-40.5,40.488-40.5h159.961
		c22.325,0,40.488,18.168,40.488,40.5v24c0,4.663-3.774,8.458-8.426,8.497l-167.738-6.991c-8.388-0.351-16.336,2.657-22.392,8.466
		c-6.058,5.81-9.394,13.633-9.394,22.028s3.336,16.218,9.394,22.028c5.74,5.505,13.182,8.493,21.081,8.493
		c0.436,0,0.874-0.009,1.312-0.027l167.738-6.991c4.652,0.038,8.425,3.832,8.425,8.494V159.502z M175.18,207.008
		c-4.255,0.18-8.305-1.351-11.384-4.304c-3.081-2.955-4.777-6.933-4.777-11.203s1.697-8.248,4.777-11.203
		c3.079-2.953,7.12-4.484,11.383-4.304l160.792,6.701v17.612L175.18,207.008z M175.18,287.008
		c-4.255,0.179-8.305-1.351-11.383-4.304c-3.081-2.955-4.777-6.934-4.777-11.203s1.697-8.248,4.777-11.203
		c3.079-2.953,7.12-4.48,11.383-4.304l160.792,6.701v17.612L175.18,287.008z M175.18,367.008c-4.255,0.18-8.305-1.351-11.383-4.304
		c-3.081-2.955-4.777-6.934-4.777-11.203s1.697-8.248,4.777-11.203c3.079-2.953,7.12-4.48,11.383-4.304l160.792,6.701v17.612
		L175.18,367.008z M175.18,127.008c-4.255,0.179-8.305-1.351-11.383-4.304c-3.081-2.955-4.777-6.934-4.777-11.203
		s1.696-8.248,4.777-11.203c3.08-2.954,7.127-4.485,11.384-4.304l160.792,6.701v17.612L175.18,127.008z"/>
	<path d="M202.97,47l81.228,0c4.142,0,7.5-3.358,7.5-7.5s-3.358-7.5-7.5-7.5l-81.228,0c-4.142,0-7.5,3.358-7.5,7.5
		S198.828,47,202.97,47z"/>
	<path d="M312.302,47c2.763,0,4.583,1.407,5.421,2.246c0,0,0,0,0,0c0.839,0.839,2.246,2.659,2.246,5.425
		c0,4.142,3.358,7.5,7.5,7.499c4.142,0,7.5-3.359,7.5-7.501c0-8.17-4.159-13.55-6.638-16.029l0,0
		c-2.479-2.48-7.859-6.64-16.029-6.64c-4.142,0-7.5,3.358-7.5,7.5S308.159,47,312.302,47z"/>
	<path d="M312.302,431c12.499,0,22.667-10.171,22.667-22.671c0-4.142-3.358-7.5-7.5-7.5s-7.5,3.358-7.5,7.5
		c0,4.23-3.439,7.671-7.667,7.671c-4.142,0-7.5,3.358-7.5,7.5C304.802,427.643,308.16,431,312.302,431z"/>
	<path d="M202.969,431l81.229,0c4.142,0,7.5-3.358,7.5-7.5s-3.358-7.5-7.5-7.5l-81.229,0c-4.142,0-7.5,3.358-7.5,7.5
		S198.827,431,202.969,431z"/>
</g>
<g>
</g>
<g>
</g>
<g>
</g>
<g>
</g>
<g>
</g>
<g>
</g>
<g>
</g>
<g>
</g>
<g>
</g>
<g>
</g>
<g>
</g>
<g>
</g>
<g>
</g>
<g>
</g>
<g>
</g>
</svg>
