<?xml version="1.0" encoding="iso-8859-1"?>
<!-- Generator: Adobe Illustrator 19.0.0, SVG Export Plug-In . SVG Version: 6.00 Build 0)  -->
<svg version="1.1" id="Capa_1" xmlns="http://www.w3.org/2000/svg" xmlns:xlink="http://www.w3.org/1999/xlink" x="0px" y="0px"
	 viewBox="0 0 463 463" style="enable-background:new 0 0 463 463;" xml:space="preserve">
<g>
	<path d="M391.5,264H383V159.5c0-21.78-17.72-39.5-39.5-39.5H335V39.5C335,17.72,317.281,0,295.5,0h-128
		C145.72,0,128,17.72,128,39.5V120h-8.5C97.72,120,80,137.72,80,159.5V264h-8.5C49.72,264,32,281.72,32,303.5v152
		c0,4.142,3.358,7.5,7.5,7.5h384c4.142,0,7.5-3.358,7.5-7.5v-152C431,281.72,413.281,264,391.5,264z M87.5,323.87
		c5.783,6.803,14.393,11.131,24,11.131c9.607,0,18.218-4.328,24-11.131c5.783,6.803,14.393,11.131,24,11.131s18.217-4.328,24-11.131
		c5.783,6.803,14.393,11.131,24,11.131s18.217-4.328,24-11.131c5.783,6.803,14.393,11.131,24,11.131s18.217-4.328,24-11.131
		c5.783,6.803,14.393,11.131,24,11.131s18.217-4.328,24-11.131c5.783,6.803,14.393,11.131,24,11.131s18.217-4.328,24-11.131
		c5.783,6.803,14.393,11.131,24,11.131c6.046,0,11.698-1.716,16.5-4.681V416H47v-85.681C51.802,333.284,57.454,335,63.5,335
		C73.107,335,81.717,330.672,87.5,323.87z M135.5,179.869c5.783,6.803,14.393,11.131,24,11.131s18.217-4.328,24-11.131
		c5.783,6.803,14.393,11.131,24,11.131s18.217-4.328,24-11.131c5.783,6.803,14.393,11.131,24,11.131s18.217-4.328,24-11.131
		c5.783,6.803,14.393,11.131,24,11.131s18.217-4.328,24-11.131c5.783,6.803,14.393,11.131,24,11.131
		c6.046,0,11.698-1.716,16.5-4.681V240H95v-53.681c4.802,2.965,10.454,4.681,16.5,4.681C121.107,191,129.718,186.672,135.5,179.869z
		 M167.5,15h128C309.01,15,320,25.991,320,39.5c0,9.098-7.402,16.5-16.5,16.5S287,48.598,287,39.5c0-4.142-3.358-7.5-7.5-7.5
		s-7.5,3.358-7.5,7.5c0,9.098-7.402,16.5-16.5,16.5S239,48.598,239,39.5c0-4.142-3.358-7.5-7.5-7.5s-7.5,3.358-7.5,7.5
		c0,9.098-7.402,16.5-16.5,16.5S191,48.598,191,39.5c0-4.142-3.358-7.5-7.5-7.5s-7.5,3.358-7.5,7.5c0,9.098-7.402,16.5-16.5,16.5
		S143,48.598,143,39.5C143,25.991,153.991,15,167.5,15z M143,66.319C147.803,69.284,153.454,71,159.5,71
		c9.607,0,18.217-4.328,24-11.131C189.283,66.672,197.894,71,207.5,71s18.217-4.328,24-11.131C237.283,66.672,245.894,71,255.5,71
		s18.217-4.328,24-11.131C285.283,66.672,293.894,71,303.5,71c6.046,0,11.698-1.716,16.5-4.681V120H143V66.319z M119.5,135h224
		c13.509,0,24.5,10.991,24.5,24.5c0,9.098-7.402,16.5-16.5,16.5s-16.5-7.402-16.5-16.5c0-4.142-3.358-7.5-7.5-7.5
		s-7.5,3.358-7.5,7.5c0,9.098-7.402,16.5-16.5,16.5s-16.5-7.402-16.5-16.5c0-4.142-3.358-7.5-7.5-7.5s-7.5,3.358-7.5,7.5
		c0,9.098-7.402,16.5-16.5,16.5s-16.5-7.402-16.5-16.5c0-4.142-3.358-7.5-7.5-7.5s-7.5,3.358-7.5,7.5c0,9.098-7.402,16.5-16.5,16.5
		s-16.5-7.402-16.5-16.5c0-4.142-3.358-7.5-7.5-7.5s-7.5,3.358-7.5,7.5c0,9.098-7.402,16.5-16.5,16.5s-16.5-7.402-16.5-16.5
		c0-4.142-3.358-7.5-7.5-7.5s-7.5,3.358-7.5,7.5c0,9.098-7.402,16.5-16.5,16.5S95,168.598,95,159.5
		C95,145.991,105.991,135,119.5,135z M95,255h273v9H95V255z M71.5,279h320c13.509,0,24.5,10.991,24.5,24.5
		c0,9.099-7.402,16.5-16.5,16.5s-16.5-7.402-16.5-16.5c0-4.142-3.358-7.5-7.5-7.5s-7.5,3.358-7.5,7.5c0,9.099-7.402,16.5-16.5,16.5
		s-16.5-7.402-16.5-16.5c0-4.142-3.358-7.5-7.5-7.5s-7.5,3.358-7.5,7.5c0,9.099-7.402,16.5-16.5,16.5s-16.5-7.402-16.5-16.5
		c0-4.142-3.358-7.5-7.5-7.5s-7.5,3.358-7.5,7.5c0,9.099-7.402,16.5-16.5,16.5s-16.5-7.402-16.5-16.5c0-4.142-3.358-7.5-7.5-7.5
		s-7.5,3.358-7.5,7.5c0,9.099-7.402,16.5-16.5,16.5s-16.5-7.402-16.5-16.5c0-4.142-3.358-7.5-7.5-7.5s-7.5,3.358-7.5,7.5
		c0,9.099-7.402,16.5-16.5,16.5s-16.5-7.402-16.5-16.5c0-4.142-3.358-7.5-7.5-7.5s-7.5,3.358-7.5,7.5c0,9.099-7.402,16.5-16.5,16.5
		S95,312.599,95,303.5c0-4.142-3.358-7.5-7.5-7.5s-7.5,3.358-7.5,7.5c0,9.099-7.402,16.5-16.5,16.5S47,312.599,47,303.5
		C47,289.991,57.991,279,71.5,279z M47,448v-17h369v17H47z"/>
	<path d="M207.5,367c1.97,0,3.91-0.8,5.3-2.2c1.4-1.39,2.2-3.33,2.2-5.3c0-1.97-0.8-3.91-2.2-5.3c-1.39-1.4-3.33-2.2-5.3-2.2
		c-1.97,0-3.91,0.8-5.3,2.2c-1.4,1.39-2.2,3.33-2.2,5.3c0,1.97,0.8,3.91,2.2,5.3C203.59,366.2,205.53,367,207.5,367z"/>
	<path d="M255.5,367c1.98,0,3.91-0.8,5.3-2.2c1.4-1.39,2.2-3.33,2.2-5.3c0-1.97-0.8-3.91-2.2-5.3c-1.39-1.4-3.32-2.2-5.3-2.2
		c-1.97,0-3.91,0.8-5.3,2.2c-1.4,1.39-2.2,3.33-2.2,5.3c0,1.98,0.8,3.91,2.2,5.3C251.59,366.2,253.521,367,255.5,367z"/>
	<path d="M303.5,367c1.97,0,3.91-0.8,5.3-2.2c1.4-1.39,2.2-3.33,2.2-5.3c0-1.97-0.8-3.91-2.2-5.3c-1.39-1.4-3.33-2.2-5.3-2.2
		c-1.97,0-3.91,0.8-5.3,2.2c-1.4,1.39-2.2,3.33-2.2,5.3c0,1.97,0.8,3.91,2.2,5.3C299.59,366.2,301.53,367,303.5,367z"/>
	<path d="M351.5,367c1.97,0,3.91-0.8,5.3-2.2c1.4-1.39,2.2-3.33,2.2-5.3c0-1.97-0.8-3.91-2.2-5.3c-1.39-1.4-3.33-2.2-5.3-2.2
		c-1.97,0-3.91,0.8-5.3,2.2c-1.4,1.39-2.2,3.33-2.2,5.3c0,1.97,0.8,3.91,2.2,5.3C347.59,366.2,349.53,367,351.5,367z"/>
	<path d="M399.5,367c1.97,0,3.91-0.8,5.3-2.2c1.4-1.39,2.2-3.33,2.2-5.3c0-1.97-0.8-3.91-2.2-5.3c-1.39-1.4-3.33-2.2-5.3-2.2
		c-1.97,0-3.91,0.8-5.3,2.2c-1.4,1.39-2.2,3.33-2.2,5.3c0,1.97,0.8,3.91,2.2,5.3C395.59,366.2,397.53,367,399.5,367z"/>
	<path d="M159.5,367c1.97,0,3.91-0.8,5.3-2.2c1.4-1.39,2.2-3.33,2.2-5.3c0-1.97-0.8-3.91-2.2-5.3c-1.39-1.4-3.33-2.2-5.3-2.2
		c-1.97,0-3.91,0.8-5.3,2.2c-1.4,1.39-2.2,3.33-2.2,5.3c0,1.97,0.8,3.91,2.2,5.3C155.59,366.2,157.521,367,159.5,367z"/>
	<path d="M111.5,367c1.97,0,3.91-0.8,5.3-2.2c1.4-1.39,2.2-3.33,2.2-5.3c0-1.97-0.8-3.91-2.2-5.3c-1.39-1.4-3.33-2.2-5.3-2.2
		c-1.97,0-3.91,0.8-5.3,2.2c-1.4,1.39-2.2,3.33-2.2,5.3c0,1.98,0.8,3.91,2.2,5.3C107.59,366.2,109.53,367,111.5,367z"/>
	<path d="M207.5,223c1.97,0,3.9-0.8,5.3-2.2c1.4-1.39,2.2-3.33,2.2-5.3c0-1.97-0.8-3.91-2.2-5.3c-1.39-1.4-3.33-2.2-5.3-2.2
		c-1.97,0-3.91,0.8-5.3,2.2c-1.4,1.39-2.2,3.33-2.2,5.3c0,1.97,0.8,3.91,2.2,5.3C203.6,222.2,205.53,223,207.5,223z"/>
	<path d="M255.5,223c1.98,0,3.91-0.8,5.3-2.2c1.4-1.39,2.2-3.33,2.2-5.3c0-1.97-0.8-3.91-2.2-5.3c-1.39-1.4-3.32-2.2-5.3-2.2
		s-3.91,0.8-5.3,2.2c-1.4,1.39-2.2,3.32-2.2,5.3c0,1.97,0.8,3.91,2.2,5.3C251.59,222.2,253.53,223,255.5,223z"/>
	<path d="M303.5,223c1.97,0,3.91-0.8,5.3-2.2c1.4-1.39,2.2-3.33,2.2-5.3c0-1.97-0.8-3.91-2.2-5.3c-1.39-1.4-3.33-2.2-5.3-2.2
		c-1.97,0-3.91,0.8-5.3,2.2c-1.4,1.39-2.2,3.33-2.2,5.3c0,1.97,0.8,3.91,2.2,5.3C299.59,222.2,301.53,223,303.5,223z"/>
	<path d="M351.5,223c1.97,0,3.91-0.8,5.3-2.2c1.4-1.39,2.2-3.33,2.2-5.3c0-1.97-0.8-3.91-2.2-5.3c-1.39-1.4-3.33-2.2-5.3-2.2
		c-1.97,0-3.91,0.8-5.3,2.2c-1.4,1.39-2.2,3.33-2.2,5.3c0,1.97,0.8,3.91,2.2,5.3C347.59,222.2,349.53,223,351.5,223z"/>
	<path d="M159.5,223c1.97,0,3.91-0.8,5.3-2.2c1.4-1.39,2.2-3.33,2.2-5.3c0-1.97-0.8-3.91-2.2-5.3c-1.39-1.4-3.33-2.2-5.3-2.2
		c-1.98,0-3.91,0.8-5.3,2.2c-1.4,1.39-2.2,3.33-2.2,5.3c0,1.97,0.8,3.91,2.2,5.3C155.59,222.2,157.53,223,159.5,223z"/>
	<path d="M207.5,88c-1.97,0-3.91,0.8-5.3,2.2c-1.4,1.39-2.2,3.33-2.2,5.3c0,1.97,0.8,3.91,2.2,5.3c1.39,1.4,3.33,2.2,5.3,2.2
		c1.97,0,3.91-0.8,5.3-2.2c1.4-1.39,2.2-3.33,2.2-5.3c0-1.97-0.8-3.91-2.2-5.3C211.41,88.8,209.47,88,207.5,88z"/>
	<path d="M255.5,88c-1.97,0-3.91,0.8-5.3,2.2c-1.4,1.39-2.2,3.33-2.2,5.3c0,1.97,0.8,3.91,2.2,5.3c1.39,1.4,3.32,2.2,5.3,2.2
		s3.91-0.8,5.3-2.2c1.4-1.39,2.2-3.33,2.2-5.3c0-1.97-0.8-3.91-2.2-5.3C259.41,88.8,257.48,88,255.5,88z"/>
	<path d="M308.8,90.2c-1.39-1.4-3.33-2.2-5.3-2.2c-1.97,0-3.91,0.8-5.3,2.2c-1.4,1.39-2.2,3.33-2.2,5.3c0,1.97,0.8,3.91,2.2,5.3
		c1.39,1.4,3.33,2.2,5.3,2.2c1.97,0,3.91-0.8,5.3-2.2c1.4-1.39,2.2-3.33,2.2-5.3C311,93.53,310.2,91.59,308.8,90.2z"/>
	<path d="M159.5,88c-1.97,0-3.91,0.8-5.3,2.2c-1.4,1.39-2.2,3.33-2.2,5.3c0,1.97,0.8,3.91,2.2,5.3c1.39,1.4,3.33,2.2,5.3,2.2
		c1.97,0,3.91-0.8,5.3-2.2c1.4-1.39,2.2-3.33,2.2-5.3c0-1.97-0.8-3.91-2.2-5.3C163.41,88.8,161.47,88,159.5,88z"/>
	<path d="M104,215.5c0,1.97,0.8,3.91,2.2,5.3c1.39,1.4,3.32,2.2,5.3,2.2c1.97,0,3.91-0.8,5.3-2.2c1.4-1.39,2.2-3.33,2.2-5.3
		c0-1.97-0.8-3.91-2.2-5.3c-1.39-1.4-3.33-2.2-5.3-2.2c-1.97,0-3.91,0.8-5.3,2.2C104.8,211.59,104,213.53,104,215.5z"/>
	<path d="M56,359.5c0,1.97,0.8,3.91,2.2,5.3c1.39,1.4,3.33,2.2,5.3,2.2c1.97,0,3.91-0.8,5.3-2.2c1.4-1.39,2.2-3.33,2.2-5.3
		c0-1.97-0.8-3.91-2.2-5.3c-1.39-1.4-3.33-2.2-5.3-2.2c-1.97,0-3.91,0.8-5.3,2.2C56.8,355.59,56,357.53,56,359.5z"/>
</g>
<g>
</g>
<g>
</g>
<g>
</g>
<g>
</g>
<g>
</g>
<g>
</g>
<g>
</g>
<g>
</g>
<g>
</g>
<g>
</g>
<g>
</g>
<g>
</g>
<g>
</g>
<g>
</g>
<g>
</g>
</svg>
