<?xml version="1.0" encoding="iso-8859-1"?>
<!-- Generator: Adobe Illustrator 19.0.0, SVG Export Plug-In . SVG Version: 6.00 Build 0)  -->
<svg version="1.1" id="Capa_1" xmlns="http://www.w3.org/2000/svg" xmlns:xlink="http://www.w3.org/1999/xlink" x="0px" y="0px"
	 viewBox="0 0 463 463" style="enable-background:new 0 0 463 463;" xml:space="preserve">
<g>
	<path d="M423.48,307.667L299.029,183.216c-1.406-1.407-3.314-2.197-5.303-2.197s-3.897,0.79-5.303,2.197l-16.968,16.968
		c-0.001,0.001-0.002,0.002-0.003,0.002s-0.001,0.002-0.002,0.003l-11.665,11.665l-17.678-17.678l22.981-22.981L389.539,46.745
		c2.929-2.929,2.929-7.678,0-10.606L355.598,2.197C354.191,0.79,352.284,0,350.294,0s-3.897,0.79-5.303,2.197L220.54,126.648
		c-1.407,1.406-2.197,3.314-2.197,5.303s0.79,3.897,2.197,5.303l16.968,16.968c0.001,0.001,0.002,0.002,0.002,0.003
		s0.002,0.001,0.003,0.002l11.665,11.665L231.5,183.57l-22.981-22.981L84.068,36.138c-2.929-2.93-7.678-2.929-10.606,0
		L39.521,70.079c-1.407,1.406-2.197,3.314-2.197,5.303s0.79,3.897,2.197,5.303l124.451,124.451c1.406,1.407,3.314,2.197,5.303,2.197
		s3.897-0.79,5.303-2.197l28.638-28.638l17.678,17.678l-22.981,22.981L73.462,341.608c-2.929,2.929-2.929,7.678,0,10.606
		l33.941,33.941c1.406,1.407,3.314,2.197,5.303,2.197s3.897-0.79,5.303-2.197l44.359-44.359l-10.248,56.362
		c-0.398,2.188,0.196,4.44,1.621,6.147c1.425,1.708,3.534,2.694,5.758,2.694h0.5v41h-16.5c-4.142,0-7.5,3.358-7.5,7.5
		s3.358,7.5,7.5,7.5h176c4.142,0,7.5-3.358,7.5-7.5s-3.358-7.5-7.5-7.5H303v-41h0.5c2.224,0,4.333-0.987,5.758-2.694
		c1.425-1.708,2.019-3.959,1.621-6.147l-25.332-139.329l93.385,93.385c1.464,1.465,3.384,2.197,5.303,2.197
		c1.919,0,3.839-0.732,5.303-2.197l33.941-33.941c1.407-1.406,2.197-3.314,2.197-5.303S424.887,309.074,423.48,307.667z
		 M350.294,18.106l23.334,23.335L259.785,155.286l-6.364-6.364l51.265-51.265c2.929-2.929,2.929-7.678,0-10.606
		c-2.929-2.929-7.678-2.929-10.606,0l-51.265,51.266l-6.364-6.364L350.294,18.106z M169.275,189.227L55.43,75.382l23.335-23.334
		l113.844,113.844l-6.364,6.364l-51.265-51.265c-2.929-2.929-7.678-2.929-10.606,0c-2.929,2.929-2.929,7.678,0,10.606l51.265,51.265
		L169.275,189.227z M112.706,370.247l-23.334-23.335l113.844-113.844l6.364,6.364l-51.266,51.265c-2.929,2.929-2.929,7.678,0,10.606
		c1.464,1.465,3.384,2.197,5.303,2.197c1.919,0,3.839-0.732,5.303-2.197l51.266-51.265l6.364,6.364L112.706,370.247z M288,448h-49
		v-24.5c0-4.142-3.358-7.5-7.5-7.5s-7.5,3.358-7.5,7.5V448h-49v-41h113V448z M294.513,392H168.487l12.516-68.837l61.458-61.458
		c1.407-1.406,2.197-3.314,2.197-5.303s-0.79-3.897-2.197-5.303l-28.638-28.638l17.678-17.678l22.981,22.981l12.432,12.432
		L294.513,392z M384.235,336.305L270.391,222.461l6.364-6.364l51.265,51.265c1.464,1.464,3.384,2.197,5.303,2.197
		s3.839-0.732,5.303-2.197c2.929-2.929,2.929-7.678,0-10.606l-51.266-51.265l6.364-6.364L407.57,312.971L384.235,336.305z"/>
	<path d="M199.5,439c4.142,0,7.5-3.358,7.5-7.5v-8c0-4.142-3.358-7.5-7.5-7.5s-7.5,3.358-7.5,7.5v8
		C192,435.643,195.358,439,199.5,439z"/>
	<path d="M263.5,439c4.142,0,7.5-3.358,7.5-7.5v-8c0-4.142-3.358-7.5-7.5-7.5s-7.5,3.358-7.5,7.5v8
		C256,435.643,259.358,439,263.5,439z"/>
	<path d="M231.5,304c-4.142,0-7.5,3.358-7.5,7.5v8c0,4.142,3.358,7.5,7.5,7.5s7.5-3.358,7.5-7.5v-8
		C239,307.358,235.642,304,231.5,304z"/>
</g>
<g>
</g>
<g>
</g>
<g>
</g>
<g>
</g>
<g>
</g>
<g>
</g>
<g>
</g>
<g>
</g>
<g>
</g>
<g>
</g>
<g>
</g>
<g>
</g>
<g>
</g>
<g>
</g>
<g>
</g>
</svg>
